<?xml version="1.0" encoding="UTF-8"?>
<svg width="64px" height="64px" viewBox="0 0 64 64" version="1.1" xmlns="http://www.w3.org/2000/svg" xmlns:xlink="http://www.w3.org/1999/xlink">
    <!-- Generator: Sketch 63.1 (92452) - https://sketch.com -->
    <title>analyze-logo-color-reverse-64px</title>
    <desc>Created with Sketch.</desc>
    <g id="analyze-logo-color-reverse-64px" stroke="none" stroke-width="1" fill="none" fill-rule="evenodd">
        <rect id="bounding-box" x="0" y="0" width="64" height="64"></rect>
        <g id="Group" transform="translate(5.000000, 6.000000)" fill-rule="nonzero">
            <path d="M16.2456463,45.3543219 L27.542587,29.2475022 L36.2116161,36.8446788 L48.1575064,20.3145828 C49.5911,23.1237909 50.3998525,26.3017917 50.3998525,29.6648965 C50.3998525,33.2041632 49.503509,36.5386749 47.9254072,39.4539844 L55,45.5034663 L49.159455,52 L42.2453396,46.0888154 C38.7623009,48.7457147 34.412707,50.3256866 29.6999263,50.3256866 C24.5677826,50.3256866 19.8663373,48.4520192 16.2456463,45.3543219 Z" id="Combined-Shape-path" fill="#1BA9F5"></path>
            <path d="M5.5655324,51.8528873 C2.38758424,51.1910553 -4.68958206e-13,48.3743527 -4.68958206e-13,45 L-4.68958206e-13,7 C-4.68958206e-13,3.13400675 3.13400675,6.39488462e-14 7,6.39488462e-14 L46,6.39488462e-14 C49.2857029,6.39488462e-14 52.0426715,2.26378053 52.7962921,5.3167279 L45.1460141,15.9209943 C41.3524575,11.6764955 35.8338138,9 29.6999263,9 C18.2845258,9 9,18.2699461 9,29.6648965 C9,34.1009803 10.4081451,38.2153965 12.8019036,41.5858851 L12.8019036,41.5858851 L5.5655324,51.8528873 Z" id="Combined-Shape" fill="#FEC514"></path>
            <path d="M12.8019036,41.5858851 C10.4081451,38.2153965 9,34.1009803 9,29.6648965 C9,18.2699461 18.2845258,9 29.6999263,9 C35.8338138,9 41.3524575,11.6764955 45.1460141,15.9209943 L35.5318185,29.2475022 L26.8495754,21.6549732 L12.8019036,41.5858851 Z" id="Combined-Shape-Copy-3" fill="#FFFFFF"></path>
        </g>
    </g>
</svg>