<?xml version="1.0" encoding="UTF-8"?>
<svg width="519px" height="64px" viewBox="0 0 519 64" version="1.1" xmlns="http://www.w3.org/2000/svg" xmlns:xlink="http://www.w3.org/1999/xlink">
    <!-- Generator: Sketch 63.1 (92452) - https://sketch.com -->
    <title>endpoint-logo-white-horizontal</title>
    <desc>Created with Sketch.</desc>
    <g id="endpoint-logo-white-horizontal" stroke="none" stroke-width="1" fill="none" fill-rule="evenodd">
        <rect id="bounding-box" x="0" y="0" width="519" height="64"></rect>
        <g id="group" transform="translate(6.000000, 5.000000)" fill="#FFFFFF">
            <path d="M22,26.9999 L8.935,4.4319 C6.48,0.1939 0,1.9349 0,6.8319 L0,47.1679 C0,52.0649 6.48,53.8059 8.935,49.5669 L22,26.9999 Z" id="Fill-1"></path>
            <path d="M27.9273,0 C31.7073,0 35.2213,1.94 37.2363,5.139 L37.2363,5.139 L50.9993,26.999 L51.0003,26.9999 L51.0003,27 L50.9993,27 L37.2363,48.8609 C35.2805647,51.9658118 31.9127092,53.8846933 28.2601077,53.9948827 L27.9273,53.9999 L11.8023,53.9999 C12.3533,53.4269 12.8473,52.7869 13.2613,52.0729 L13.2613,52.0729 L26.3273,29.5049 L27.7773,26.9999 L26.3273,24.494 L13.2613,1.927 C12.8473,1.212 12.3533,0.573 11.8023,0 L11.8023,0 Z" id="Combined-Shape"></path>
        </g>
        <path d="M95.8521069,46.9125683 L95.8521069,42.0196721 L82.283393,42.0196721 L82.283393,35.1453552 L92.5299734,35.1453552 L92.5299734,30.252459 L82.283393,30.252459 L82.283393,23.4994536 L95.8521069,23.4994536 L95.8521069,18.6065574 L77,18.6065574 L77,46.9125683 L95.8521069,46.9125683 Z M105.458276,46.9125683 L105.458276,18.6065574 L100.415037,18.6065574 L100.415037,46.9125683 L105.458276,46.9125683 Z M116.105113,47.4786885 C118.386579,47.4786885 120.668044,46.4677596 121.588635,45.0120219 L121.748738,45.0120219 L121.748738,46.9125683 L126.511797,46.9125683 L126.511797,34.7005464 C126.511797,29.7672131 123.669972,27.0174863 118.586707,27.0174863 C114.223905,27.0174863 111.1019,29.0393443 109.981181,32.557377 L115.024419,32.9617486 C115.464702,31.9103825 116.545396,31.0612022 118.266501,31.0612022 C120.307812,31.0612022 121.508583,32.2743169 121.508583,34.3770492 L121.508583,35.7923497 C120.868172,35.4284153 119.227118,35.0644809 117.586064,35.0644809 C112.5028,35.0644809 109.420821,37.4502732 109.420821,41.4535519 C109.420821,44.9715847 112.182594,47.4786885 116.105113,47.4786885 Z M117.546039,43.515847 C115.624805,43.515847 114.504085,42.5453552 114.504085,41.0491803 C114.504085,39.5530055 115.824933,38.5825137 118.146424,38.5825137 C119.627375,38.5825137 121.028275,38.9464481 121.588635,39.431694 L121.588635,40.6852459 C121.588635,42.1814208 119.707427,43.515847 117.546039,43.515847 Z M137.839071,47.5191257 C142.522078,47.5191257 145.684109,44.9715847 145.684109,41.0491803 C145.684109,33.2852459 135.477554,36.6010929 135.477554,32.8 C135.477554,31.7081967 136.35812,30.8590164 137.919122,30.8590164 C139.440099,30.8590164 140.64087,31.7081967 140.881025,32.9617486 L145.564032,31.9508197 C144.763518,28.9989071 141.721564,27.0174863 137.799045,27.0174863 C133.436243,27.0174863 130.474341,29.484153 130.474341,33.1639344 C130.474341,40.968306 140.680896,37.652459 140.680896,41.4131148 C140.680896,42.8284153 139.680253,43.7584699 137.959148,43.7584699 C136.198017,43.7584699 134.717066,42.7879781 134.316809,41.2918033 L129.673827,42.1814208 C130.714496,45.5781421 133.716423,47.5191257 137.839071,47.5191257 Z M157.251538,47.3169399 C158.692463,47.3169399 159.853208,47.0743169 160.533645,46.7912568 L160.013311,42.747541 C159.573029,42.9497268 159.012669,43.1114754 158.25218,43.1114754 C156.370972,43.1114754 155.410355,42.3027322 155.410355,39.7147541 L155.410355,31.9508197 L160.333517,31.9508197 L160.333517,27.6240437 L155.410355,27.6240437 L155.410355,21.5180328 L150.367116,22.5289617 L150.367116,27.6240437 L147.085009,27.6240437 L147.085009,31.9508197 L150.367116,31.9508197 L150.367116,40.5234973 C150.367116,45.6185792 153.248967,47.3169399 157.251538,47.3169399 Z M168.298632,23.4994536 L168.298632,18.6065574 L163.255393,18.6065574 L163.255393,23.4994536 L168.298632,23.4994536 Z M168.298632,46.9125683 L168.298632,27.6240437 L163.255393,27.6240437 L163.255393,46.9125683 L168.298632,46.9125683 Z M181.667217,47.5191257 C185.949968,47.5191257 189.111999,45.295082 190.272744,41.2918033 L185.549711,40.0786885 C184.989351,41.8983607 183.628477,43.0710383 181.507115,43.0710383 C178.505187,43.0710383 176.824107,40.6448087 176.824107,37.2885246 C176.824107,33.8918033 178.505187,31.5060109 181.507115,31.5060109 C183.628477,31.5060109 185.069402,32.5978142 185.629762,34.4579235 L190.512898,33.7704918 C189.432204,29.3628415 186.310199,27.0174863 181.387038,27.0174863 C176.063619,27.0174863 171.780868,30.9398907 171.780868,37.2480874 C171.780868,43.273224 175.743413,47.5191257 181.667217,47.5191257 Z M221.372716,46.9125683 L221.372716,42.0196721 L207.804003,42.0196721 L207.804003,35.1453552 L218.050583,35.1453552 L218.050583,30.252459 L207.804003,30.252459 L207.804003,23.4994536 L221.372716,23.4994536 L221.372716,18.6065574 L202.52061,18.6065574 L202.52061,46.9125683 L221.372716,46.9125683 Z M230.978886,46.9125683 L230.978886,35.8327869 C230.978886,33.2448087 232.780042,31.5060109 234.981456,31.5060109 C237.022767,31.5060109 238.183512,32.8404372 238.183512,35.5092896 L238.183512,46.9125683 L243.226751,46.9125683 L243.226751,34.579235 C243.226751,29.8076503 240.665106,27.0174863 236.542458,27.0174863 C233.900762,27.0174863 231.7794,28.3114754 230.698706,30.0502732 L230.618654,30.0502732 L230.618654,27.6240437 L225.935647,27.6240437 L225.935647,46.9125683 L230.978886,46.9125683 Z M255.314514,47.5191257 C257.595979,47.5191257 260.117598,46.589071 261.358395,44.1628415 L261.478472,44.1628415 L261.478472,46.9125683 L266.121454,46.9125683 L266.121454,18.6065574 L261.078215,18.6065574 L261.078215,30.0098361 C260.19765,28.3519126 258.196365,27.0174863 255.434591,27.0174863 C250.391352,27.0174863 246.428807,31.1420765 246.428807,37.2885246 C246.428807,43.3945355 250.231249,47.5191257 255.314514,47.5191257 Z M256.395208,43.0710383 C253.39328,43.0710383 251.512072,40.6043716 251.512072,37.2885246 C251.512072,33.9726776 253.353254,31.5060109 256.395208,31.5060109 C259.437161,31.5060109 261.238318,33.8918033 261.238318,37.2885246 C261.238318,40.6448087 259.437161,43.0710383 256.395208,43.0710383 Z M275.807675,55 L275.807675,44.526776 C276.68824,46.1846995 278.689525,47.5191257 281.451299,47.5191257 C286.494538,47.5191257 290.457083,43.4349727 290.457083,37.2885246 C290.457083,31.1420765 286.654641,27.0174863 281.571376,27.0174863 C279.289911,27.0174863 276.768292,27.9879781 275.487469,30.4142077 L275.407418,30.4142077 L275.407418,27.6240437 L270.764436,27.6240437 L270.764436,55 L275.807675,55 Z M280.490682,43.0710383 C277.448729,43.0710383 275.607546,40.6448087 275.607546,37.2885246 C275.607546,33.8918033 277.448729,31.5060109 280.490682,31.5060109 C283.49261,31.5060109 285.373818,33.9726776 285.373818,37.2885246 C285.373818,40.5639344 283.532636,43.0710383 280.490682,43.0710383 Z M302.865051,47.5191257 C308.348572,47.5191257 312.951529,43.7180328 312.951529,37.2885246 C312.951529,30.7781421 308.348572,27.0174863 302.865051,27.0174863 C297.381529,27.0174863 292.778573,30.7781421 292.778573,37.2885246 C292.778573,43.7584699 297.381529,47.5191257 302.865051,47.5191257 Z M302.865051,43.0710383 C299.903149,43.0710383 297.821812,40.7661202 297.821812,37.2885246 C297.821812,33.7704918 299.903149,31.5060109 302.865051,31.5060109 C305.826953,31.5060109 307.868264,33.7704918 307.868264,37.2885246 C307.868264,40.7661202 305.826953,43.0710383 302.865051,43.0710383 Z M321.436978,23.4994536 L321.436978,18.6065574 L316.393739,18.6065574 L316.393739,23.4994536 L321.436978,23.4994536 Z M321.436978,46.9125683 L321.436978,27.6240437 L316.393739,27.6240437 L316.393739,46.9125683 L321.436978,46.9125683 Z M331.083173,46.9125683 L331.083173,35.8327869 C331.083173,33.2448087 332.884329,31.5060109 335.085743,31.5060109 C337.127054,31.5060109 338.2878,32.8404372 338.2878,35.5092896 L338.2878,46.9125683 L343.331038,46.9125683 L343.331038,34.579235 C343.331038,29.8076503 340.769393,27.0174863 336.646746,27.0174863 C334.005049,27.0174863 331.883687,28.3114754 330.802993,30.0502732 L330.722941,30.0502732 L330.722941,27.6240437 L326.039934,27.6240437 L326.039934,46.9125683 L331.083173,46.9125683 Z M355.859084,47.3169399 C357.300009,47.3169399 358.460755,47.0743169 359.141192,46.7912568 L358.620857,42.747541 C358.180575,42.9497268 357.620215,43.1114754 356.859726,43.1114754 C354.978518,43.1114754 354.017901,42.3027322 354.017901,39.7147541 L354.017901,31.9508197 L358.941063,31.9508197 L358.941063,27.6240437 L354.017901,27.6240437 L354.017901,21.5180328 L348.974663,22.5289617 L348.974663,27.6240437 L345.692555,27.6240437 L345.692555,31.9508197 L348.974663,31.9508197 L348.974663,40.5234973 C348.974663,45.6185792 351.856513,47.3169399 355.859084,47.3169399 Z M379.754429,47.5191257 C385.838337,47.5191257 389.880933,43.9202186 389.880933,38.5420765 C389.880933,27.704918 375.83191,32.1530055 375.83191,26.0469945 C375.83191,23.9038251 377.472964,22.6907104 379.874507,22.6907104 C382.516203,22.6907104 384.237308,24.1868852 384.677591,26.5726776 L389.800881,25.642623 C389.040393,21.073224 385.358028,18 380.034609,18 C374.431011,18 370.468466,21.4775956 370.468466,26.4918033 C370.468466,37.3693989 384.517488,32.8808743 384.517488,39.1486339 C384.517488,41.3726776 382.716332,42.8688525 379.954558,42.8688525 C377.312861,42.8688525 374.991371,41.4535519 374.511062,39.0273224 L369.387772,40.1191257 C370.228312,44.7289617 374.591114,47.5191257 379.754429,47.5191257 Z M402.689158,47.5191257 C406.611677,47.5191257 409.453502,45.6994536 411.05453,42.1409836 L406.851831,40.9278689 C406.051317,42.4644809 404.610392,43.3540984 402.729184,43.3540984 C400.087487,43.3540984 398.166254,41.4939891 397.685945,38.7038251 L411.815019,38.7038251 L411.815019,37.4907104 C411.774993,30.8590164 407.61232,27.0174863 402.20885,27.0174863 C396.605251,27.0174863 392.562655,31.4655738 392.562655,37.3289617 C392.562655,43.2327869 396.765354,47.5191257 402.689158,47.5191257 Z M406.571652,35.2262295 L397.725971,35.2262295 C398.246305,32.3551913 399.927385,30.9398907 402.288901,30.9398907 C404.530341,30.9398907 406.411549,32.3147541 406.571652,35.2262295 Z M423.942807,47.5191257 C428.225558,47.5191257 431.387588,45.295082 432.548334,41.2918033 L427.825301,40.0786885 C427.264941,41.8983607 425.904067,43.0710383 423.782704,43.0710383 C420.780777,43.0710383 419.099697,40.6448087 419.099697,37.2885246 C419.099697,33.8918033 420.780777,31.5060109 423.782704,31.5060109 C425.904067,31.5060109 427.344992,32.5978142 427.905352,34.4579235 L432.788488,33.7704918 C431.707794,29.3628415 428.585789,27.0174863 423.662627,27.0174863 C418.339209,27.0174863 414.056458,30.9398907 414.056458,37.2480874 C414.056458,43.273224 418.019003,47.5191257 423.942807,47.5191257 Z M442.154503,47.5191257 C444.796199,47.5191257 446.917562,46.2251366 447.95823,44.526776 L448.158359,44.526776 L448.158359,46.9125683 L452.761315,46.9125683 L452.761315,27.6240437 L447.718076,27.6240437 L447.718076,38.7038251 C447.718076,41.3322404 445.956945,43.0710383 443.715505,43.0710383 C441.71422,43.0710383 440.513449,41.6961749 440.513449,39.0273224 L440.513449,27.6240437 L435.47021,27.6240437 L435.47021,39.9978142 C435.47021,44.7289617 438.031855,47.5191257 442.154503,47.5191257 Z M462.367484,46.9125683 L462.367484,38.2590164 C462.367484,33.7300546 464.44882,32.2338798 467.210594,32.2338798 C467.690902,32.2338798 468.251262,32.3147541 468.611494,32.4765027 L468.611494,27.5836066 C468.331314,27.4218579 467.81098,27.3005464 467.170568,27.3005464 C464.969155,27.3005464 463.047921,28.5540984 462.087304,30.7377049 L462.007252,30.7377049 L462.007252,27.6240437 L457.324245,27.6240437 L457.324245,46.9125683 L462.367484,46.9125683 Z M476.336455,23.4994536 L476.336455,18.6065574 L471.293216,18.6065574 L471.293216,23.4994536 L476.336455,23.4994536 Z M476.336455,46.9125683 L476.336455,27.6240437 L471.293216,27.6240437 L471.293216,46.9125683 L476.336455,46.9125683 Z M489.14468,47.3169399 C490.585605,47.3169399 491.746351,47.0743169 492.426788,46.7912568 L491.906454,42.747541 C491.466171,42.9497268 490.905811,43.1114754 490.145323,43.1114754 C488.264115,43.1114754 487.303498,42.3027322 487.303498,39.7147541 L487.303498,31.9508197 L492.226659,31.9508197 L492.226659,27.6240437 L487.303498,27.6240437 L487.303498,21.5180328 L482.260259,22.5289617 L482.260259,27.6240437 L478.978151,27.6240437 L478.978151,31.9508197 L482.260259,31.9508197 L482.260259,40.5234973 C482.260259,45.6185792 485.14211,47.3169399 489.14468,47.3169399 Z M502.313137,54.9191257 L513,27.6240437 L507.996787,27.6240437 L503.553934,40.2 L498.670798,27.6240437 L493.187276,27.6240437 L500.832186,46.1442623 L497.34995,54.9191257 L502.313137,54.9191257 Z" id="ElasticEndpointSecurity" fill="#FFFFFF" fill-rule="nonzero"></path>
    </g>
</svg>