<?xml version="1.0" encoding="UTF-8"?>
<svg width="294px" height="64px" viewBox="0 0 294 64" version="1.1" xmlns="http://www.w3.org/2000/svg" xmlns:xlink="http://www.w3.org/1999/xlink">
    <!-- Generator: Sketch 63.1 (92452) - https://sketch.com -->
    <title>apm-logo-ink-horizontal</title>
    <desc>Created with Sketch.</desc>
    <g id="apm-logo-ink-horizontal" stroke="none" stroke-width="1" fill="none" fill-rule="evenodd">
        <rect id="bounding-box" x="0" y="0" width="294" height="64"></rect>
        <g id="group" transform="translate(6.000000, 5.000000)" fill="#343741">
            <path d="M0,17 L0,0 L54,0 L54,17 C54,26.3888407 46.3888407,34 37,34 L17,34 L17,17 L0,17 Z" id="Combined-Shape"></path>
            <polygon id="Fill-4" points="32 54 54 54 54 39 32 39"></polygon>
        </g>
        <path d="M98.821902,46.3933054 L98.821902,41.4993026 L85.274928,41.4993026 L85.274928,34.623431 L95.5050913,34.623431 L95.5050913,29.7294282 L85.274928,29.7294282 L85.274928,22.9748954 L98.821902,22.9748954 L98.821902,18.0808926 L80,18.0808926 L80,46.3933054 L98.821902,46.3933054 Z M108.41268,46.3933054 L108.41268,18.0808926 L103.377522,18.0808926 L103.377522,46.3933054 L108.41268,46.3933054 Z M119.042459,46.9595537 C121.320269,46.9595537 123.598079,45.9483961 124.517195,44.4923291 L124.677041,44.4923291 L124.677041,46.3933054 L129.432469,46.3933054 L129.432469,34.1785216 C129.432469,29.2440725 126.595197,26.4937238 121.520077,26.4937238 C117.164265,26.4937238 114.047262,28.5160391 112.928338,32.0348675 L117.963497,32.4393305 C118.403074,31.3877266 119.482037,30.5383543 121.200384,30.5383543 C123.238425,30.5383543 124.437272,31.7517434 124.437272,33.8549512 L124.437272,35.2705718 C123.797887,34.9065551 122.159462,34.5425384 120.521037,34.5425384 C115.445917,34.5425384 112.368876,36.9288703 112.368876,40.9330544 C112.368876,44.4518828 115.126225,46.9595537 119.042459,46.9595537 Z M120.481076,42.9958159 C118.56292,42.9958159 117.443996,42.0251046 117.443996,40.5285914 C117.443996,39.0320781 118.762728,38.0613668 121.0805,38.0613668 C122.559078,38.0613668 123.957733,38.4253835 124.517195,38.9107392 L124.517195,40.1645746 C124.517195,41.6610879 122.639001,42.9958159 120.481076,42.9958159 Z M140.741595,47 C145.417099,47 148.574063,44.4518828 148.574063,40.5285914 C148.574063,32.762901 138.383862,36.0794979 138.383862,32.2775453 C138.383862,31.1854951 139.263016,30.3361227 140.821518,30.3361227 C142.340058,30.3361227 143.538905,31.1854951 143.778674,32.4393305 L148.454179,31.4281729 C147.654947,28.4755927 144.617867,26.4937238 140.701633,26.4937238 C136.345821,26.4937238 133.388665,28.9609484 133.388665,32.6415621 C133.388665,40.4476987 143.578866,37.1311018 143.578866,40.8926081 C143.578866,42.3082287 142.579827,43.2384937 140.861479,43.2384937 C139.10317,43.2384937 137.624592,42.2677824 137.224976,40.7712692 L132.589433,41.6610879 C133.628434,45.0585774 136.625552,47 140.741595,47 Z M160.122959,46.7977685 C161.561575,46.7977685 162.720461,46.5550907 163.399808,46.2719665 L162.880307,42.2273361 C162.44073,42.4295676 161.881268,42.5913529 161.121998,42.5913529 C159.243804,42.5913529 158.284726,41.7824268 158.284726,39.1938633 L158.284726,31.4281729 L163.2,31.4281729 L163.2,27.1004184 L158.284726,27.1004184 L158.284726,20.9930265 L153.249568,22.0041841 L153.249568,27.1004184 L149.972719,27.1004184 L149.972719,31.4281729 L153.249568,31.4281729 L153.249568,40.0027894 C153.249568,45.0990237 156.126801,46.7977685 160.122959,46.7977685 Z M171.152354,22.9748954 L171.152354,18.0808926 L166.117195,18.0808926 L166.117195,22.9748954 L171.152354,22.9748954 Z M171.152354,46.3933054 L171.152354,27.1004184 L166.117195,27.1004184 L166.117195,46.3933054 L171.152354,46.3933054 Z M184.49952,47 C188.775408,47 191.932373,44.7754533 193.091258,40.7712692 L188.375793,39.5578801 C187.81633,41.3779637 186.457637,42.5509066 184.339673,42.5509066 C181.342555,42.5509066 179.664169,40.1241283 179.664169,36.7670851 C179.664169,33.3695955 181.342555,30.9832636 184.339673,30.9832636 C186.457637,30.9832636 187.896254,32.0753138 188.455716,33.9358438 L193.331028,33.2482566 C192.252065,28.8396095 189.135062,26.4937238 184.219789,26.4937238 C178.904899,26.4937238 174.629011,30.4170153 174.629011,36.7266388 C174.629011,42.7531381 178.585207,47 184.49952,47 Z M208.316619,46.3933054 L210.554467,39.679219 L221.264169,39.679219 L223.502017,46.3933054 L229.216523,46.3933054 L218.906436,18 L213.032085,18 L202.721998,46.3933054 L208.316619,46.3933054 Z M219.705668,34.8661088 L212.192891,34.8661088 L215.829395,23.9456067 L215.989241,23.9456067 L219.705668,34.8661088 Z M238.207877,46.3933054 L238.207877,36.2008368 L243.442843,36.2008368 C248.837656,36.2008368 252.833814,32.3584379 252.833814,27.1408647 C252.833814,21.3570432 248.278194,18.0808926 243.003266,18.0808926 L232.932949,18.0808926 L232.932949,46.3933054 L238.207877,46.3933054 Z M242.563689,31.3472803 L238.207877,31.3472803 L238.207877,23.0153417 L242.004227,23.0153417 C245.960423,23.0153417 247.399039,24.9567643 247.399039,27.1408647 C247.399039,29.4058577 245.8805,31.3472803 242.563689,31.3472803 Z M262.504515,46.3933054 L262.504515,24.916318 L262.664361,24.916318 L270.376945,46.3933054 L274.852642,46.3933054 L282.565226,24.916318 L282.725072,24.916318 L282.725072,46.3933054 L288,46.3933054 L288,18.0808926 L280.087608,18.0808926 L272.854563,38.223152 L272.694717,38.223152 L265.381748,18.0808926 L257.229587,18.0808926 L257.229587,46.3933054 L262.504515,46.3933054 Z" id="ElasticAPM" fill="#343741" fill-rule="nonzero"></path>
    </g>
</svg>