<?xml version="1.0" encoding="UTF-8"?>
<svg width="307px" height="64px" viewBox="0 0 307 64" version="1.1" xmlns="http://www.w3.org/2000/svg" xmlns:xlink="http://www.w3.org/1999/xlink">
    <!-- Generator: Sketch 63.1 (92452) - https://sketch.com -->
    <title>cloud-logo-ink-horizontal</title>
    <desc>Created with Sketch.</desc>
    <g id="cloud-logo-ink-horizontal" stroke="none" stroke-width="1" fill="none" fill-rule="evenodd">
        <rect id="bounding-box" x="0" y="0" width="307" height="64"></rect>
        <g id="group" transform="translate(6.000000, 5.000000)">
            <path d="M37.5176,35.8779 C36.0096,35.2389 34.2716,35.3659 32.8926,36.2479 C31.1906,37.3359 29.1696,37.9689 26.9996,37.9689 C24.8296,37.9689 22.8096,37.3359 21.1076,36.2479 C19.7286,35.3659 17.9906,35.2389 16.4826,35.8779 C12.3316,37.6369 8.7116,40.4059 5.9296,43.8749 C10.8786,50.0449 18.4756,53.9999 26.9996,53.9999 C35.5246,53.9999 43.1216,50.0449 48.0706,43.8749 C45.2886,40.4059 41.6676,37.6369 37.5176,35.8779" id="Fill-1" fill="#1BA9F5"></path>
            <path d="M37.5176,35.8779 C36.0096,35.2389 34.2716,35.3659 32.8926,36.2479 C31.1906,37.3359 29.1696,37.9689 26.9996,37.9689 C24.8296,37.9689 22.8096,37.3359 21.1076,36.2479 C19.7286,35.3659 17.9906,35.2389 16.4826,35.8779 C12.3316,37.6369 8.7116,40.4059 5.9296,43.8749 C10.8786,50.0449 18.4756,53.9999 26.9996,53.9999 C35.5246,53.9999 43.1216,50.0449 48.0706,43.8749 C45.2886,40.4059 41.6676,37.6369 37.5176,35.8779" id="Fill-4" fill="#343741"></path>
            <path d="M20.8867657,17.8850873 L21.1074,17.7521 C21.2404,17.6671 21.3784,17.5901 21.5154,17.5111 C18.2404,19.4081 16.0314,22.9421 16.0314,27.0001 C16.0314,28.2801 16.2614,29.5031 16.6654,30.6451 C15.9364,30.7771 15.2224,30.9821 14.5314,31.2741 C10.1644,33.1251 6.2384,35.9631 3.0794,39.5181 C1.1164,35.7761 0.000400000001,31.5191 0.000400000001,27.0001 C0.000400000001,20.6121 2.2204,14.7451 5.9304,10.1231 L5.9299,10.1241 C6.70836,11.09642 7.5530976,12.01286 8.45680768,12.8676149 L8.07358861,12.4974346 C7.3136288,11.7498 6.59768,10.95756 5.93,10.125 C10.879,3.955 18.476,-3.55271368e-14 27,-3.55271368e-14 C35.524,-3.55271368e-14 43.121,3.955 48.07,10.125 C45.288,13.594 41.668,16.363 37.518,18.122 C36.01,18.761 34.271,18.634 32.893,17.752 C31.19,16.664 29.17,16.031 27,16.031 C24.83,16.031 22.81,16.664 21.107,17.752 C20.9619474,17.8448421 20.8128947,17.9293186 20.6605326,18.0054165 L20.8867657,17.8850873 L20.8867657,17.8850873 Z" id="Combined-Shape" fill="#343741"></path>
        </g>
        <path d="M93.8633705,46.4041096 L93.8633705,41.5972603 L80.2865497,41.5972603 L80.2865497,34.8438356 L90.5392522,34.8438356 L90.5392522,30.0369863 L80.2865497,30.0369863 L80.2865497,23.4027397 L93.8633705,23.4027397 L93.8633705,18.5958904 L75,18.5958904 L75,46.4041096 L93.8633705,46.4041096 Z M103.475279,46.4041096 L103.475279,18.5958904 L98.4290271,18.5958904 L98.4290271,46.4041096 L103.475279,46.4041096 Z M114.128478,46.960274 C116.411306,46.960274 118.694134,45.9671233 119.615276,44.5369863 L119.775474,44.5369863 L119.775474,46.4041096 L124.541379,46.4041096 L124.541379,34.4068493 C124.541379,29.560274 121.697856,26.8589041 116.611554,26.8589041 C112.246146,26.8589041 109.122275,28.8452055 108.000886,32.3013699 L113.047138,32.6986301 C113.487684,31.6657534 114.569024,30.8315068 116.291157,30.8315068 C118.333688,30.8315068 119.535176,32.0232877 119.535176,34.0890411 L119.535176,35.4794521 C118.894382,35.1219178 117.252348,34.7643836 115.610314,34.7643836 C110.524012,34.7643836 107.440191,37.1082192 107.440191,41.0410959 C107.440191,44.4972603 110.203615,46.960274 114.128478,46.960274 Z M115.570264,43.0671233 C113.647882,43.0671233 112.526493,42.1136986 112.526493,40.6438356 C112.526493,39.1739726 113.84813,38.2205479 116.171008,38.2205479 C117.652844,38.2205479 119.054581,38.5780822 119.615276,39.0547945 L119.615276,40.2863014 C119.615276,41.7561644 117.732943,43.0671233 115.570264,43.0671233 Z M135.875421,47 C140.561226,47 143.725146,44.4972603 143.725146,40.6438356 C143.725146,33.0164384 133.512493,36.2739726 133.512493,32.539726 C133.512493,31.4671233 134.393585,30.6328767 135.95552,30.6328767 C137.477406,30.6328767 138.678894,31.4671233 138.919192,32.6986301 L143.604997,31.7054795 C142.804005,28.8054795 139.760234,26.8589041 135.835371,26.8589041 C131.469963,26.8589041 128.506291,29.2821918 128.506291,32.8972603 C128.506291,40.5643836 138.718944,37.3068493 138.718944,41.0013699 C138.718944,42.3917808 137.717703,43.3054795 135.99557,43.3054795 C134.233386,43.3054795 132.751551,42.3520548 132.351054,40.8821918 L127.705299,41.7561644 C128.746589,45.0931507 131.75031,47 135.875421,47 Z M155.299486,46.8013699 C156.741272,46.8013699 157.902711,46.5630137 158.583555,46.2849315 L158.06291,42.3123288 C157.622364,42.5109589 157.061669,42.669863 156.300727,42.669863 C154.418394,42.669863 153.457204,41.8753425 153.457204,39.3328767 L153.457204,31.7054795 L158.383307,31.7054795 L158.383307,27.4547945 L153.457204,27.4547945 L153.457204,21.4561644 L148.410952,22.4493151 L148.410952,27.4547945 L145.126883,27.4547945 L145.126883,31.7054795 L148.410952,31.7054795 L148.410952,40.1273973 C148.410952,45.1328767 151.294524,46.8013699 155.299486,46.8013699 Z M166.353181,23.4027397 L166.353181,18.5958904 L161.306929,18.5958904 L161.306929,23.4027397 L166.353181,23.4027397 Z M166.353181,46.4041096 L166.353181,27.4547945 L161.306929,27.4547945 L161.306929,46.4041096 L166.353181,46.4041096 Z M179.729754,47 C184.015063,47 187.178983,44.8150685 188.340422,40.8821918 L183.614567,39.690411 C183.053872,41.4780822 181.692185,42.630137 179.569555,42.630137 C176.565834,42.630137 174.88375,40.2465753 174.88375,36.9493151 C174.88375,33.6123288 176.565834,31.2684932 179.569555,31.2684932 C181.692185,31.2684932 183.133971,32.3410959 183.694666,34.1684932 L188.580719,33.4931507 C187.49938,29.1630137 184.375509,26.8589041 179.449406,26.8589041 C174.122807,26.8589041 169.837498,30.7123288 169.837498,36.909589 C169.837498,42.8287671 173.80241,47 179.729754,47 Z M213.211235,47 C219.01843,47 223.423888,43.8219178 224.945774,38.4986301 L219.819422,37.1876712 C218.698033,40.2863014 216.255006,42.1136986 213.010987,42.1136986 C207.964735,42.1136986 204.560517,37.8630137 204.560517,32.5 C204.560517,27.1767123 207.924685,22.8863014 213.051037,22.8863014 C216.8958,22.8863014 219.05848,25.309589 219.739323,27.4945205 L225.226121,26.660274 C223.544037,21.1780822 219.05848,18 213.051037,18 C204.961014,18 199.153819,23.6410959 199.153819,32.539726 C199.153819,41.3589041 205.121212,47 213.211235,47 Z M233.67659,46.4041096 L233.67659,18.5958904 L228.630338,18.5958904 L228.630338,46.4041096 L233.67659,46.4041096 Z M247.253411,47 C252.740209,47 257.345915,43.2657534 257.345915,36.9493151 C257.345915,30.5534247 252.740209,26.8589041 247.253411,26.8589041 C241.766614,26.8589041 237.160907,30.5534247 237.160907,36.9493151 C237.160907,43.3054795 241.766614,47 247.253411,47 Z M247.253411,42.630137 C244.28974,42.630137 242.207159,40.3657534 242.207159,36.9493151 C242.207159,33.4931507 244.28974,31.2684932 247.253411,31.2684932 C250.217083,31.2684932 252.259614,33.4931507 252.259614,36.9493151 C252.259614,40.3657534 250.217083,42.630137 247.253411,42.630137 Z M267.238171,47 C269.881446,47 272.004076,45.7287671 273.045366,44.060274 L273.245614,44.060274 L273.245614,46.4041096 L277.85132,46.4041096 L277.85132,27.4547945 L272.805068,27.4547945 L272.805068,38.339726 C272.805068,40.9219178 271.042885,42.630137 268.800106,42.630137 C266.797625,42.630137 265.596137,41.2794521 265.596137,38.6575342 L265.596137,27.4547945 L260.549885,27.4547945 L260.549885,39.6109589 C260.549885,44.2589041 263.11306,47 267.238171,47 Z M290.186603,47 C292.469431,47 294.992557,46.0863014 296.234095,43.7027397 L296.354244,43.7027397 L296.354244,46.4041096 L301,46.4041096 L301,18.5958904 L295.953748,18.5958904 L295.953748,29.7986301 C295.072656,28.169863 293.070175,26.8589041 290.306752,26.8589041 C285.2605,26.8589041 281.295587,30.9109589 281.295587,36.9493151 C281.295587,42.9479452 285.100301,47 290.186603,47 Z M291.267943,42.630137 C288.264221,42.630137 286.381889,40.2068493 286.381889,36.9493151 C286.381889,33.6917808 288.224172,31.2684932 291.267943,31.2684932 C294.311714,31.2684932 296.113946,33.6123288 296.113946,36.9493151 C296.113946,40.2465753 294.311714,42.630137 291.267943,42.630137 Z" id="ElasticCloud" fill="#343741" fill-rule="nonzero"></path>
    </g>
</svg>