<?xml version="1.0" encoding="UTF-8"?>
<svg width="284px" height="64px" viewBox="0 0 284 64" version="1.1" xmlns="http://www.w3.org/2000/svg" xmlns:xlink="http://www.w3.org/1999/xlink">
    <!-- Generator: Sketch 63.1 (92452) - https://sketch.com -->
    <title>eck-logo-ink-horizontal</title>
    <desc>Created with Sketch.</desc>
    <g id="eck-logo-ink-horizontal" stroke="none" stroke-width="1" fill="none" fill-rule="evenodd">
        <rect id="bounding-box" x="0" y="0" width="284" height="64"></rect>
        <g id="group" transform="translate(6.000000, 5.000000)" fill="#343741">
            <path d="M32.063,27.0004 C32.063,29.7964 29.796,32.0624 27.001,32.0624 C24.205,32.0624 21.938,29.7964 21.938,27.0004 C21.938,24.2044 24.205,21.9384 27.001,21.9384 C29.796,21.9384 32.063,24.2044 32.063,27.0004" id="Fill-1"></path>
            <path d="M33.2232,19.1049 C33.2662,19.1389 33.3102,19.1739 33.3532,19.2089 C34.2912,19.9729 35.5862,20.1209 36.6782,19.5979 L50.1722,13.1419 C46.8752,7.6409 41.6762,3.4169 35.4832,1.3679 L32.1192,15.9429 C31.8462,17.1219 32.2722,18.3559 33.2232,19.1049" id="Fill-3"></path>
            <path d="M27.186,39.184 C26.919,38.003 26,37.076 24.819,36.814 C20.317,35.816 16.938,31.799 16.938,27 C16.938,22.183 20.342,18.153 24.871,17.174 C26.053,16.919 26.976,15.995 27.248,14.816 L30.611,0.248 C29.429,0.09 28.225,0 27,0 C12.088,0 -6.21724894e-14,12.089 -6.21724894e-14,27 C-6.21724894e-14,41.912 12.088,54 27,54 C28.179,54 29.337,53.916 30.475,53.77 L27.186,39.184 Z" id="Fill-5"></path>
            <path d="M52.2857,36.4784 C53.3907,33.5284 54.0007,30.3364 54.0007,27.0004 C54.0007,23.7134 53.4117,20.5634 52.3357,17.6494 L38.7527,24.1484 C37.6537,24.6744 36.9627,25.7864 36.9616902,27.0044 L36.9616902,27.0544 C36.9587,28.2704 37.6437,29.3814 38.7377,29.9114 L52.2857,36.4784 Z" id="Fill-10"></path>
            <path d="M33.311,34.8241 C33.268,34.8581 33.225,34.8921 33.182,34.9261 C32.228,35.6701 31.796,36.9011 32.062,38.0821 L35.354,52.6771 C41.56,50.6581 46.782,46.4601 50.105,40.9781 L36.64,34.4511 C35.55,33.9231 34.253,34.0641 33.311,34.8241" id="Fill-15"></path>
        </g>
        <path d="M96.5263158,33.4657534 L96.5263158,29.1561644 L84.6315789,29.1561644 L84.6315789,23.1013699 L93.6140351,23.1013699 L93.6140351,18.7917808 L84.6315789,18.7917808 L84.6315789,12.8438356 L96.5263158,12.8438356 L96.5263158,8.53424658 L80,8.53424658 L80,33.4657534 L96.5263158,33.4657534 Z M104.947368,33.4657534 L104.947368,8.53424658 L100.526316,8.53424658 L100.526316,33.4657534 L104.947368,33.4657534 Z M114.280702,33.9643836 C116.280702,33.9643836 118.280702,33.0739726 119.087719,31.7917808 L119.22807,31.7917808 L119.22807,33.4657534 L123.403509,33.4657534 L123.403509,22.709589 C123.403509,18.3643836 120.912281,15.9424658 116.45614,15.9424658 C112.631579,15.9424658 109.894737,17.7232877 108.912281,20.8219178 L113.333333,21.1780822 C113.719298,20.2520548 114.666667,19.5041096 116.175439,19.5041096 C117.964912,19.5041096 119.017544,20.5726027 119.017544,22.4246575 L119.017544,23.6712329 C118.45614,23.3506849 117.017544,23.030137 115.578947,23.030137 C111.122807,23.030137 108.421053,25.1315068 108.421053,28.6575342 C108.421053,31.7561644 110.842105,33.9643836 114.280702,33.9643836 Z M115.54386,30.4739726 C113.859649,30.4739726 112.877193,29.6191781 112.877193,28.3013699 C112.877193,26.9835616 114.035088,26.1287671 116.070175,26.1287671 C117.368421,26.1287671 118.596491,26.4493151 119.087719,26.8767123 L119.087719,27.9808219 C119.087719,29.2986301 117.438596,30.4739726 115.54386,30.4739726 Z M133.333333,34 C137.438596,34 140.210526,31.7561644 140.210526,28.3013699 C140.210526,21.4630137 131.263158,24.3835616 131.263158,21.0356164 C131.263158,20.0739726 132.035088,19.3260274 133.403509,19.3260274 C134.736842,19.3260274 135.789474,20.0739726 136,21.1780822 L140.105263,20.2876712 C139.403509,17.6876712 136.736842,15.9424658 133.298246,15.9424658 C129.473684,15.9424658 126.877193,18.1150685 126.877193,21.3561644 C126.877193,28.230137 135.824561,25.309589 135.824561,28.6219178 C135.824561,29.8684932 134.947368,30.6876712 133.438596,30.6876712 C131.894737,30.6876712 130.596491,29.8328767 130.245614,28.5150685 L126.175439,29.2986301 C127.087719,32.290411 129.719298,34 133.333333,34 Z M150.350877,33.8219178 C151.614035,33.8219178 152.631579,33.6082192 153.22807,33.3589041 L152.77193,29.7972603 C152.385965,29.9753425 151.894737,30.1178082 151.22807,30.1178082 C149.578947,30.1178082 148.736842,29.4054795 148.736842,27.1260274 L148.736842,20.2876712 L153.052632,20.2876712 L153.052632,16.4767123 L148.736842,16.4767123 L148.736842,11.0986301 L144.315789,11.9890411 L144.315789,16.4767123 L141.438596,16.4767123 L141.438596,20.2876712 L144.315789,20.2876712 L144.315789,27.8383562 C144.315789,32.3260274 146.842105,33.8219178 150.350877,33.8219178 Z M160.035088,12.8438356 L160.035088,8.53424658 L155.614035,8.53424658 L155.614035,12.8438356 L160.035088,12.8438356 Z M160.035088,33.4657534 L160.035088,16.4767123 L155.614035,16.4767123 L155.614035,33.4657534 L160.035088,33.4657534 Z M171.754386,34 C175.508772,34 178.280702,32.0410959 179.298246,28.5150685 L175.157895,27.4465753 C174.666667,29.0493151 173.473684,30.0821918 171.614035,30.0821918 C168.982456,30.0821918 167.508772,27.9452055 167.508772,24.9890411 C167.508772,21.9972603 168.982456,19.8958904 171.614035,19.8958904 C173.473684,19.8958904 174.736842,20.8575342 175.22807,22.4958904 L179.508772,21.890411 C178.561404,18.0082192 175.824561,15.9424658 171.508772,15.9424658 C166.842105,15.9424658 163.087719,19.3972603 163.087719,24.9534247 C163.087719,30.260274 166.561404,34 171.754386,34 Z M201.087719,34 C206.175439,34 210.035088,31.1506849 211.368421,26.3780822 L206.877193,25.2027397 C205.894737,27.9808219 203.754386,29.6191781 200.912281,29.6191781 C196.491228,29.6191781 193.508772,25.8082192 193.508772,21 C193.508772,16.2273973 196.45614,12.3808219 200.947368,12.3808219 C204.315789,12.3808219 206.210526,14.5534247 206.807018,16.5123288 L211.614035,15.7643836 C210.140351,10.8493151 206.210526,8 200.947368,8 C193.859649,8 188.77193,13.0575342 188.77193,21.0356164 C188.77193,28.9424658 194,34 201.087719,34 Z M219.017544,33.4657534 L219.017544,8.53424658 L214.596491,8.53424658 L214.596491,33.4657534 L219.017544,33.4657534 Z M230.912281,34 C235.719298,34 239.754386,30.6520548 239.754386,24.9890411 C239.754386,19.2547945 235.719298,15.9424658 230.912281,15.9424658 C226.105263,15.9424658 222.070175,19.2547945 222.070175,24.9890411 C222.070175,30.6876712 226.105263,34 230.912281,34 Z M230.912281,30.0821918 C228.315789,30.0821918 226.491228,28.0520548 226.491228,24.9890411 C226.491228,21.890411 228.315789,19.8958904 230.912281,19.8958904 C233.508772,19.8958904 235.298246,21.890411 235.298246,24.9890411 C235.298246,28.0520548 233.508772,30.0821918 230.912281,30.0821918 Z M248.421053,34 C250.736842,34 252.596491,32.860274 253.508772,31.3643836 L253.684211,31.3643836 L253.684211,33.4657534 L257.719298,33.4657534 L257.719298,16.4767123 L253.298246,16.4767123 L253.298246,26.2356164 C253.298246,28.5506849 251.754386,30.0821918 249.789474,30.0821918 C248.035088,30.0821918 246.982456,28.8712329 246.982456,26.5205479 L246.982456,16.4767123 L242.561404,16.4767123 L242.561404,27.3753425 C242.561404,31.5424658 244.807018,34 248.421053,34 Z M268.526316,34 C270.526316,34 272.736842,33.1808219 273.824561,31.0438356 L273.929825,31.0438356 L273.929825,33.4657534 L278,33.4657534 L278,8.53424658 L273.578947,8.53424658 L273.578947,18.5780822 C272.807018,17.1178082 271.052632,15.9424658 268.631579,15.9424658 C264.210526,15.9424658 260.736842,19.5753425 260.736842,24.9890411 C260.736842,30.3671233 264.070175,34 268.526316,34 Z M269.473684,30.0821918 C266.842105,30.0821918 265.192982,27.909589 265.192982,24.9890411 C265.192982,22.0684932 266.807018,19.8958904 269.473684,19.8958904 C272.140351,19.8958904 273.719298,21.9972603 273.719298,24.9890411 C273.719298,27.9452055 272.140351,30.0821918 269.473684,30.0821918 Z" id="ElasticCloud" fill="#343741" fill-rule="nonzero"></path>
        <path d="M85.404704,56 C88.4048662,56 90.853528,53.8517483 90.853528,50.3608392 C90.853528,46.8699301 88.4048662,44.7440559 85.404704,44.7440559 C82.4266018,44.7440559 80,46.8475524 80,50.3608392 C80,53.8517483 82.4266018,56 85.404704,56 Z M85.404704,53.8517483 C83.6178427,53.8517483 82.4045418,52.441958 82.4045418,50.3608392 C82.4045418,48.3020979 83.6178427,46.8699301 85.404704,46.8699301 C87.2136253,46.8699301 88.4269262,48.3020979 88.4269262,50.3608392 C88.4269262,52.441958 87.2136253,53.8517483 85.404704,53.8517483 Z M95.3978913,55.6643357 L95.3978913,49.5776224 C95.3978913,47.9888112 96.4788321,46.8699301 97.8686131,46.8699301 C99.103974,46.8699301 99.8319546,47.7426573 99.8319546,49.3538462 L99.8319546,55.6643357 L102.236496,55.6643357 L102.236496,48.8839161 C102.236496,46.2881119 100.824655,44.7440559 98.5745337,44.7440559 C97.0744526,44.7440559 95.8832117,45.4601399 95.2875912,46.4895105 L95.2434712,46.4895105 L95.2434712,45.0797203 L93.0154096,45.0797203 L93.0154096,55.6643357 L95.3978913,55.6643357 Z M111.987024,55.6643357 L111.987024,50.6293706 L116.200487,55.6643357 L119.310949,55.6643357 L114.369505,49.8461538 L118.869749,45.0797203 L116.001946,45.0797203 L111.987024,49.5328671 L111.987024,40 L109.582482,40 L109.582482,55.6643357 L111.987024,55.6643357 Z M124.318573,56 C125.796594,56 126.987835,55.2839161 127.561395,54.2545455 L127.671695,54.2545455 L127.671695,55.6643357 L129.877697,55.6643357 L129.877697,45.0797203 L127.473155,45.0797203 L127.473155,51.1664336 C127.473155,52.7552448 126.392214,53.8741259 125.024493,53.8741259 C123.767072,53.8741259 123.039092,53.0013986 123.039092,51.3678322 L123.039092,45.0797203 L120.65661,45.0797203 L120.65661,51.8601399 C120.65661,54.4335664 122.068451,56 124.318573,56 Z M138.459043,56 C141.260665,56 143.334307,53.7174825 143.334307,50.3832168 C143.334307,47.0041958 141.216545,44.7440559 138.392863,44.7440559 C136.826602,44.7440559 135.657421,45.4825175 135.127981,46.5342657 L135.127981,40 L132.723439,40 L132.723439,55.6643357 L134.9515,55.6643357 L134.9515,54.1202797 L135.01768,54.1202797 C135.679481,55.4181818 137.113382,56 138.459043,56 Z M137.973723,53.8517483 C136.164801,53.8517483 135.03974,52.4195804 135.03974,50.3832168 C135.03974,48.3244755 136.164801,46.8699301 137.973723,46.8699301 C139.804704,46.8699301 140.929765,48.3916084 140.929765,50.3832168 C140.929765,52.3300699 139.804704,53.8517483 137.973723,53.8517483 Z M150.239092,56 C152.334793,56 153.856934,54.993007 154.717275,53.0909091 L152.709813,52.4867133 C152.246553,53.448951 151.386212,53.986014 150.261152,53.986014 C148.58459,53.986014 147.43747,52.7776224 147.216869,51.0097902 L155.136415,51.0097902 L155.136415,50.4055944 C155.092295,46.758042 152.820114,44.7440559 149.974371,44.7440559 C146.908029,44.7440559 144.790268,47.1832168 144.790268,50.4055944 C144.790268,53.6055944 147.018329,56 150.239092,56 Z M152.643633,49.3538462 L147.238929,49.3538462 C147.50365,47.6083916 148.49635,46.6237762 150.018491,46.6237762 C151.364152,46.6237762 152.533333,47.4741259 152.643633,49.3538462 Z M159.658719,55.6643357 L159.658719,50.7188811 C159.658719,48.234965 160.827899,47.227972 162.416221,47.227972 C162.703001,47.227972 163.011841,47.2727273 163.210381,47.3622378 L163.210381,45.0125874 C163.033901,44.9230769 162.747121,44.8559441 162.394161,44.8559441 C161.1588,44.8559441 160.077859,45.572028 159.548418,46.7804196 L159.504298,46.7804196 L159.504298,45.0797203 L157.276237,45.0797203 L157.276237,55.6643357 L159.658719,55.6643357 Z M167.247364,55.6643357 L167.247364,49.5776224 C167.247364,47.9888112 168.328305,46.8699301 169.718086,46.8699301 C170.953447,46.8699301 171.681427,47.7426573 171.681427,49.3538462 L171.681427,55.6643357 L174.085969,55.6643357 L174.085969,48.8839161 C174.085969,46.2881119 172.674128,44.7440559 170.424006,44.7440559 C168.923925,44.7440559 167.732685,45.4601399 167.137064,46.4895105 L167.092944,46.4895105 L167.092944,45.0797203 L164.864882,45.0797203 L164.864882,55.6643357 L167.247364,55.6643357 Z M181.542255,56 C183.637956,56 185.160097,54.993007 186.020438,53.0909091 L184.012976,52.4867133 C183.549716,53.448951 182.689376,53.986014 181.564315,53.986014 C179.887753,53.986014 178.740633,52.7776224 178.520032,51.0097902 L186.439578,51.0097902 L186.439578,50.4055944 C186.395458,46.758042 184.123277,44.7440559 181.277534,44.7440559 C178.211192,44.7440559 176.093431,47.1832168 176.093431,50.4055944 C176.093431,53.6055944 178.321492,56 181.542255,56 Z M183.946796,49.3538462 L178.542092,49.3538462 C178.806813,47.6083916 179.799513,46.6237762 181.321655,46.6237762 C182.667315,46.6237762 183.836496,47.4741259 183.946796,49.3538462 Z M192.881103,55.8881119 C193.653204,55.8881119 194.315004,55.7538462 194.667964,55.5748252 L194.403244,53.627972 C194.160584,53.7622378 193.807624,53.8517483 193.344363,53.8517483 C192.219303,53.8517483 191.667802,53.3370629 191.667802,51.7706294 L191.667802,47.1384615 L194.557664,47.1384615 L194.557664,45.0797203 L191.667802,45.0797203 L191.667802,41.7006993 L189.26326,42.1706294 L189.26326,45.0797203 L187.366099,45.0797203 L187.366099,47.1384615 L189.26326,47.1384615 L189.26326,52.1734266 C189.26326,54.9258741 190.741281,55.8881119 192.881103,55.8881119 Z M201.131549,56 C203.227251,56 204.749392,54.993007 205.609732,53.0909091 L203.602271,52.4867133 C203.139011,53.448951 202.27867,53.986014 201.153609,53.986014 C199.477048,53.986014 198.329927,52.7776224 198.109327,51.0097902 L206.028873,51.0097902 L206.028873,50.4055944 C205.984753,46.758042 203.712571,44.7440559 200.866829,44.7440559 C197.800487,44.7440559 195.682725,47.1832168 195.682725,50.4055944 C195.682725,53.6055944 197.910787,56 201.131549,56 Z M203.536091,49.3538462 L198.131387,49.3538462 C198.396107,47.6083916 199.388808,46.6237762 200.910949,46.6237762 C202.25661,46.6237762 203.425791,47.4741259 203.536091,49.3538462 Z M211.852717,56 C214.323439,56 216,54.6573427 216,52.5090909 C216,48.2797203 210.286456,50.1594406 210.286456,47.8321678 C210.286456,47.1384615 210.815896,46.579021 211.852717,46.579021 C212.801298,46.579021 213.573398,47.1384615 213.683698,47.9216783 L215.91176,47.4517483 C215.53674,45.8405594 213.904298,44.7440559 211.786537,44.7440559 C209.470235,44.7440559 207.903974,46.041958 207.903974,48.0111888 C207.903974,52.2405594 213.617518,50.3608392 213.617518,52.6881119 C213.617518,53.5832168 213.021898,54.1874126 211.918897,54.1874126 C210.837956,54.1874126 209.955556,53.6055944 209.690835,52.6657343 L207.506894,53.1132867 C208.014274,54.9258741 209.624655,56 211.852717,56 Z" id="onkubernetes" fill="#343741" fill-rule="nonzero"></path>
    </g>
</svg>