<?xml version="1.0" encoding="UTF-8"?>
<svg width="308px" height="64px" viewBox="0 0 308 64" version="1.1" xmlns="http://www.w3.org/2000/svg" xmlns:xlink="http://www.w3.org/1999/xlink">
    <!-- Generator: Sketch 63.1 (92452) - https://sketch.com -->
    <title>elastic-stack-logo-ink-horizontal</title>
    <desc>Created with Sketch.</desc>
    <g id="elastic-stack-logo-ink-horizontal" stroke="none" stroke-width="1" fill="none" fill-rule="evenodd">
        <rect id="bounding-box" x="0" y="0" width="308" height="64"></rect>
        <g id="group" transform="translate(6.000000, 5.000000)" fill="#343741">
            <path d="M54,15 L54,4.219 C54,1.889 52.111,0 49.781,0 L4.219,0 C1.889,0 0,1.889 0,4.219 L0,15 L54,15 Z" id="Fill-1"></path>
            <polygon id="Fill-3" points="0 34 54 34 54 20 0 20"></polygon>
            <path d="M29.5313,39 L29.5313,54 L49.7813,54 C52.1113,54 54.0003,52.111 54.0003,49.781 L54.0003,39 L29.5313,39 Z" id="Fill-5"></path>
            <path d="M24.4688,39 L-0.0002,39 L-0.0002,49.781 C-0.0002,52.111 1.8888,54 4.2188,54 L24.4688,54 L24.4688,39 Z" id="Fill-6"></path>
        </g>
        <path d="M98.836606,46.4041096 L98.836606,41.5972603 L85.2790488,41.5972603 L85.2790488,34.8438356 L95.5172041,34.8438356 L95.5172041,30.0369863 L85.2790488,30.0369863 L85.2790488,23.4027397 L98.836606,23.4027397 L98.836606,18.5958904 L80,18.5958904 L80,46.4041096 L98.836606,46.4041096 Z M108.434877,46.4041096 L108.434877,18.5958904 L103.395785,18.5958904 L103.395785,46.4041096 L108.434877,46.4041096 Z M119.07296,46.960274 C121.352549,46.960274 123.632138,45.9671233 124.551973,44.5369863 L124.711944,44.5369863 L124.711944,46.4041096 L129.471086,46.4041096 L129.471086,34.4068493 C129.471086,29.560274 126.631598,26.8589041 121.552513,26.8589041 C117.193299,26.8589041 114.073861,28.8452055 112.954062,32.3013699 L117.993154,32.6986301 C118.433075,31.6657534 119.512881,30.8315068 121.232571,30.8315068 C123.272203,30.8315068 124.471987,32.0232877 124.471987,34.0890411 L124.471987,35.4794521 C123.832102,35.1219178 122.192398,34.7643836 120.552693,34.7643836 C115.473608,34.7643836 112.394163,37.1082192 112.394163,41.0410959 C112.394163,44.4972603 115.153666,46.960274 119.07296,46.960274 Z M120.5127,43.0671233 C118.593046,43.0671233 117.473248,42.1136986 117.473248,40.6438356 C117.473248,39.1739726 118.79301,38.2205479 121.112592,38.2205479 C122.592326,38.2205479 123.992074,38.5780822 124.551973,39.0547945 L124.551973,40.2863014 C124.551973,41.7561644 122.672311,43.0671233 120.5127,43.0671233 Z M140.789047,47 C145.468204,47 148.627635,44.4972603 148.627635,40.6438356 C148.627635,33.0164384 138.429472,36.2739726 138.429472,32.539726 C138.429472,31.4671233 139.309314,30.6328767 140.869033,30.6328767 C142.388759,30.6328767 143.588543,31.4671233 143.828499,32.6986301 L148.507656,31.7054795 C147.7078,28.8054795 144.668348,26.8589041 140.749054,26.8589041 C136.38984,26.8589041 133.430373,29.2821918 133.430373,32.8972603 C133.430373,40.5643836 143.628535,37.3068493 143.628535,41.0013699 C143.628535,42.3917808 142.628716,43.3054795 140.909025,43.3054795 C139.149342,43.3054795 137.669609,42.3520548 137.269681,40.8821918 L132.630517,41.7561644 C133.67033,45.0931507 136.669789,47 140.789047,47 Z M160.185552,46.8013699 C161.625293,46.8013699 162.785084,46.5630137 163.464961,46.2849315 L162.945055,42.3123288 C162.505134,42.5109589 161.945235,42.669863 161.185372,42.669863 C159.305711,42.669863 158.345884,41.8753425 158.345884,39.3328767 L158.345884,31.7054795 L163.264997,31.7054795 L163.264997,27.4547945 L158.345884,27.4547945 L158.345884,21.4561644 L153.306792,22.4493151 L153.306792,27.4547945 L150.027382,27.4547945 L150.027382,31.7054795 L153.306792,31.7054795 L153.306792,40.1273973 C153.306792,45.1328767 156.186273,46.8013699 160.185552,46.8013699 Z M171.223563,23.4027397 L171.223563,18.5958904 L166.184471,18.5958904 L166.184471,23.4027397 L171.223563,23.4027397 Z M171.223563,46.4041096 L171.223563,27.4547945 L166.184471,27.4547945 L166.184471,46.4041096 L171.223563,46.4041096 Z M184.581157,47 C188.860386,47 192.019816,44.8150685 193.179607,40.8821918 L188.460458,39.690411 C187.900558,41.4780822 186.540803,42.630137 184.421185,42.630137 C181.421726,42.630137 179.742028,40.2465753 179.742028,36.9493151 C179.742028,33.6123288 181.421726,31.2684932 184.421185,31.2684932 C186.540803,31.2684932 187.980544,32.3410959 188.540443,34.1684932 L193.419564,33.4931507 C192.339759,29.1630137 189.220321,26.8589041 184.301207,26.8589041 C178.982165,26.8589041 174.702936,30.7123288 174.702936,36.909589 C174.702936,42.8287671 178.662223,47 184.581157,47 Z M214.215817,47 C220.294722,47 224.333994,43.4643836 224.333994,38.1808219 C224.333994,27.5342466 210.296523,31.9041096 210.296523,25.9054795 C210.296523,23.8 211.936228,22.6082192 214.335795,22.6082192 C216.97532,22.6082192 218.69501,24.0780822 219.134931,26.4219178 L224.254008,25.5082192 C223.494145,21.0191781 219.814808,18 214.495767,18 C208.896775,18 204.937489,21.4164384 204.937489,26.3424658 C204.937489,37.0287671 218.974959,32.6191781 218.974959,38.7767123 C218.974959,40.9616438 217.175284,42.4315068 214.415781,42.4315068 C211.776257,42.4315068 209.456674,41.0410959 208.976761,38.6575342 L203.857683,39.730137 C204.697532,44.2589041 209.056747,47 214.215817,47 Z M236.331832,46.8013699 C237.771573,46.8013699 238.931364,46.5630137 239.611241,46.2849315 L239.091335,42.3123288 C238.651414,42.5109589 238.091515,42.669863 237.331652,42.669863 C235.451991,42.669863 234.492164,41.8753425 234.492164,39.3328767 L234.492164,31.7054795 L239.411277,31.7054795 L239.411277,27.4547945 L234.492164,27.4547945 L234.492164,21.4561644 L229.453072,22.4493151 L229.453072,27.4547945 L226.173662,27.4547945 L226.173662,31.7054795 L229.453072,31.7054795 L229.453072,40.1273973 C229.453072,45.1328767 232.332553,46.8013699 236.331832,46.8013699 Z M248.369663,46.960274 C250.649252,46.960274 252.928842,45.9671233 253.848676,44.5369863 L254.008647,44.5369863 L254.008647,46.4041096 L258.76779,46.4041096 L258.76779,34.4068493 C258.76779,29.560274 255.928301,26.8589041 250.849216,26.8589041 C246.490002,26.8589041 243.370564,28.8452055 242.250766,32.3013699 L247.289858,32.6986301 C247.729778,31.6657534 248.809584,30.8315068 250.529274,30.8315068 C252.568907,30.8315068 253.76869,32.0232877 253.76869,34.0890411 L253.76869,35.4794521 C253.128806,35.1219178 251.489101,34.7643836 249.849397,34.7643836 C244.770312,34.7643836 241.690867,37.1082192 241.690867,41.0410959 C241.690867,44.4972603 244.450369,46.960274 248.369663,46.960274 Z M249.809404,43.0671233 C247.88975,43.0671233 246.769951,42.1136986 246.769951,40.6438356 C246.769951,39.1739726 248.089714,38.2205479 250.409296,38.2205479 C251.889029,38.2205479 253.288777,38.5780822 253.848676,39.0547945 L253.848676,40.2863014 C253.848676,41.7561644 251.969015,43.0671233 249.809404,43.0671233 Z M271.80544,47 C276.084669,47 279.2441,44.8150685 280.403891,40.8821918 L275.684741,39.690411 C275.124842,41.4780822 273.765087,42.630137 271.645469,42.630137 C268.64601,42.630137 266.966312,40.2465753 266.966312,36.9493151 C266.966312,33.6123288 268.64601,31.2684932 271.645469,31.2684932 C273.765087,31.2684932 275.204828,32.3410959 275.764727,34.1684932 L280.643848,33.4931507 C279.564043,29.1630137 276.444605,26.8589041 271.525491,26.8589041 C266.206449,26.8589041 261.92722,30.7123288 261.92722,36.909589 C261.92722,42.8287671 265.886507,47 271.80544,47 Z M288.602414,46.4041096 L288.602414,37.5452055 L295.56116,46.4041096 L302,46.4041096 L293.641506,35.9958904 L301.320123,27.4547945 L295.361196,27.4547945 L288.602414,35.360274 L288.602414,18.5958904 L283.563322,18.5958904 L283.563322,46.4041096 L288.602414,46.4041096 Z" id="ElasticStack" fill="#343741" fill-rule="nonzero"></path>
    </g>
</svg>