<?xml version="1.0" encoding="UTF-8"?>
<svg width="64px" height="64px" viewBox="0 0 64 64" version="1.1" xmlns="http://www.w3.org/2000/svg" xmlns:xlink="http://www.w3.org/1999/xlink">
    <!-- Generator: Sketch 63.1 (92452) - https://sketch.com -->
    <title>workplace-search-logo-color-64px</title>
    <desc>Created with Sketch.</desc>
    <g id="workplace-search-logo-color-64px" stroke="none" stroke-width="1" fill="none" fill-rule="evenodd">
        <rect id="bounding-box" x="0" y="0" width="64" height="64"></rect>
        <g id="Group" transform="translate(8.010258, 6.000000)">
            <path d="M26.0223243,44.9804141 L30.3361052,39.525731 C33.0811749,35.9169516 34.8451656,30.9087031 34.8095301,25.918787 C34.7748049,21.0563499 33.0105762,16.2113205 30.3361052,12.6955898 L26.0223243,7.00185052 L28.2419394,4.21923828 C30.4863242,1.81896973 33.4900888,0 36.9897422,0 L47.9884554,0 L47.9884554,52 L36.9897422,52 C33.4900888,52 30.2546348,49.9265137 27.7916221,47.0529785 L26.0223243,44.9804141 Z" id="Path" fill="#FEC514"></path>
            <path d="M0,52 L0,0 L9.68452344,0 C12.534141,0 15.2674476,1.36155768 16.9953548,3.63941492 L26.7526582,16.5003337 C31.0827758,22.1924977 31.0827758,29.844194 26.7506868,35.5393329 L16.9923977,48.3705017 C15.2635049,50.6434007 12.534141,52 9.69043756,52 L0,52 Z" id="Fill-1" fill="#F04E98"></path>
            <path d="M22.1937658,41.5231867 L16.5809011,35.4996663 C11.7923259,29.8075023 11.7923259,22.155806 16.5830812,16.4606671 L21.9944419,10.2235107 L26.7540781,16.4606671 C31.1543904,22.152831 31.1563937,29.890792 26.7540781,35.5859309 L22.1937658,41.5231867 Z" id="Path" fill="#343741"></path>
        </g>
    </g>
</svg>