<?xml version="1.0" encoding="UTF-8"?>
<svg width="170px" height="64px" viewBox="0 0 170 64" version="1.1" xmlns="http://www.w3.org/2000/svg" xmlns:xlink="http://www.w3.org/1999/xlink">
    <!-- Generator: Sketch 63.1 (92452) - https://sketch.com -->
    <title>beats-logo-white-horizontal</title>
    <desc>Created with Sketch.</desc>
    <g id="beats-logo-white-horizontal" stroke="none" stroke-width="1" fill="none" fill-rule="evenodd">
        <rect id="bounding-box" x="0" y="0" width="170" height="64"></rect>
        <g id="group" transform="translate(6.000000, 5.000000)" fill="#FFFFFF">
            <path d="M0.0003,-0.0004 L18.5623,-0.0004 C27.8833,-0.0004 35.4373,7.5556 35.4373,16.8746 C35.4373,18.9906 35.0313,21.0066 34.3203,22.8726 C31.8993,29.2266 25.7663,33.7496 18.5623,33.7496 L18.5623,33.7496 L0.0003,33.7496 L0.0003,-0.0004 Z" id="Combined-Shape"></path>
            <path d="M38.2842,26.3354 C34.7492,33.6734 27.2372,38.7504 18.5622,38.7504 L0.0002,38.7504 L0.0002,54.0004 L25.3122,54.0004 C34.6332,54.0004 42.1872,46.4444 42.1872,37.1254 C42.1872,33.0204 40.7202,29.2604 38.2842,26.3354" id="Fill-3"></path>
        </g>
        <path d="M78.9140821,46.3916084 C85.642917,46.3916084 88.9476111,43.3496503 88.9476111,38.1986014 C88.9476111,35.0755245 87.1160939,32.2363636 83.0549036,31.7902098 C86.2799665,31.2629371 87.9522213,28.5454545 87.9522213,25.5846154 C87.9522213,20.9608392 84.6873428,18 78.5955574,18 L69,18 L69,46.3916084 L78.9140821,46.3916084 Z M78.834451,29.6405594 L74.255658,29.6405594 L74.255658,22.9482517 L78.1575859,22.9482517 C81.3428332,22.9482517 82.4974853,24.4895105 82.4974853,26.2741259 C82.4974853,28.220979 81.3428332,29.6405594 78.834451,29.6405594 Z M78.9140821,41.4839161 L74.255658,41.4839161 L74.255658,34.2237762 L78.834451,34.2237762 C82.139145,34.2237762 83.5326907,35.6027972 83.5326907,37.8335664 C83.5326907,40.0237762 81.9798826,41.4839161 78.9140821,41.4839161 Z M102.007125,47 C105.909053,47 108.73596,45.1748252 110.328583,41.6055944 L106.147946,40.3888112 C105.351635,41.9300699 103.918273,42.8223776 102.04694,42.8223776 C99.4191115,42.8223776 97.5079631,40.9566434 97.030176,38.158042 L111.08508,38.158042 L111.08508,36.9412587 C111.045264,30.2895105 106.904443,26.4363636 101.529338,26.4363636 C95.9551551,26.4363636 91.9337804,30.8979021 91.9337804,36.779021 C91.9337804,42.7006993 96.1144174,47 102.007125,47 Z M105.869237,34.6699301 L97.0699916,34.6699301 C97.5875943,31.7902098 99.2598491,30.3706294 101.608969,30.3706294 C103.838642,30.3706294 105.709975,31.7496503 105.869237,34.6699301 Z M120.441744,46.9594406 C122.711232,46.9594406 124.980721,45.9454545 125.896479,44.4853147 L126.055742,44.4853147 L126.055742,46.3916084 L130.793797,46.3916084 L130.793797,34.1426573 C130.793797,29.1944056 127.96689,26.4363636 122.91031,26.4363636 C118.570411,26.4363636 115.464795,28.4643357 114.349958,31.993007 L119.366723,32.3986014 C119.804694,31.3440559 120.879715,30.4923077 122.591785,30.4923077 C124.622381,30.4923077 125.816848,31.7090909 125.816848,33.8181818 L125.816848,35.2377622 C125.179799,34.8727273 123.54736,34.5076923 121.91492,34.5076923 C116.85834,34.5076923 113.79254,36.9006993 113.79254,40.9160839 C113.79254,44.4447552 116.539816,46.9594406 120.441744,46.9594406 Z M121.875105,42.9846154 C119.963956,42.9846154 118.84912,42.0111888 118.84912,40.5104895 C118.84912,39.0097902 120.163034,38.0363636 122.472339,38.0363636 C123.945516,38.0363636 125.339061,38.4013986 125.896479,38.8881119 L125.896479,40.1454545 C125.896479,41.6461538 124.025147,42.9846154 121.875105,42.9846154 Z M143.216262,46.7972028 C144.649623,46.7972028 145.804275,46.5538462 146.48114,46.2699301 L145.963537,42.213986 C145.525566,42.4167832 144.968148,42.579021 144.211651,42.579021 C142.340319,42.579021 141.384744,41.7678322 141.384744,39.172028 L141.384744,31.3846154 L146.282062,31.3846154 L146.282062,27.0447552 L141.384744,27.0447552 L141.384744,20.9202797 L136.36798,21.9342657 L136.36798,27.0447552 L133.103101,27.0447552 L133.103101,31.3846154 L136.36798,31.3846154 L136.36798,39.9832168 C136.36798,45.0937063 139.234702,46.7972028 143.216262,46.7972028 Z M156.196144,47 C160.854568,47 164,44.4447552 164,40.5104895 C164,32.7230769 153.847024,36.048951 153.847024,32.2363636 C153.847024,31.1412587 154.722967,30.2895105 156.275775,30.2895105 C157.788768,30.2895105 158.983236,31.1412587 159.222129,32.3986014 L163.880553,31.3846154 C163.084241,28.4237762 160.058256,26.4363636 156.156329,26.4363636 C151.816429,26.4363636 148.870075,28.9104895 148.870075,32.6013986 C148.870075,40.4293706 159.023051,37.1034965 159.023051,40.8755245 C159.023051,42.2951049 158.027661,43.227972 156.315591,43.227972 C154.563705,43.227972 153.090528,42.2545455 152.692372,40.7538462 L148.073764,41.6461538 C149.108969,45.0531469 152.095138,47 156.196144,47 Z" id="Beats" fill="#FFFFFF" fill-rule="nonzero"></path>
    </g>
</svg>