<?xml version="1.0" encoding="UTF-8"?>
<svg width="404px" height="64px" viewBox="0 0 404 64" version="1.1" xmlns="http://www.w3.org/2000/svg" xmlns:xlink="http://www.w3.org/1999/xlink">
    <!-- Generator: Sketch 63.1 (92452) - https://sketch.com -->
    <title>site-search-logo-white-horizontal</title>
    <desc>Created with Sketch.</desc>
    <g id="site-search-logo-white-horizontal" stroke="none" stroke-width="1" fill="none" fill-rule="evenodd">
        <rect id="bounding-box" x="0" y="0" width="404" height="64"></rect>
        <g id="group" transform="translate(6.000000, 5.000000)" fill="#FFFFFF">
            <path d="M12.6829017,0 L36.6829017,0 L19.6829017,34 L7.00890165,34 C1.80590165,34 -1.57909835,28.524 0.747901653,23.87 L0.747901653,23.87 L12.6829017,0 Z" id="Combined-Shape"></path>
            <path d="M45.6995017,17 L33.7315017,17 L15.1695017,54 C15.1695017,54 41.3285017,45.825 51.8535017,27.337 C54.4775017,22.726 51.0055017,17 45.6995017,17" id="Fill-6"></path>
        </g>
        <path d="M97.8258364,46.4041096 L97.8258364,41.5972603 L84.2760306,41.5972603 L84.2760306,34.8438356 L94.5083323,34.8438356 L94.5083323,30.0369863 L84.2760306,30.0369863 L84.2760306,23.4027397 L97.8258364,23.4027397 L97.8258364,18.5958904 L79,18.5958904 L79,46.4041096 L97.8258364,46.4041096 Z M107.418619,46.4041096 L107.418619,18.5958904 L102.382408,18.5958904 L102.382408,46.4041096 L107.418619,46.4041096 Z M118.05062,46.960274 C120.328906,46.960274 122.607192,45.9671233 123.5265,44.5369863 L123.68638,44.5369863 L123.68638,46.4041096 L128.442802,46.4041096 L128.442802,34.4068493 C128.442802,29.560274 125.604937,26.8589041 120.528756,26.8589041 C116.172034,26.8589041 113.054379,28.8452055 111.935221,32.3013699 L116.971432,32.6986301 C117.411101,31.6657534 118.490289,30.8315068 120.208996,30.8315068 C122.247463,30.8315068 123.446561,32.0232877 123.446561,34.0890411 L123.446561,35.4794521 C122.807042,35.1219178 121.168275,34.7643836 119.529508,34.7643836 C114.453327,34.7643836 111.375642,37.1082192 111.375642,41.0410959 C111.375642,44.4972603 114.133567,46.960274 118.05062,46.960274 Z M119.489538,43.0671233 C117.570981,43.0671233 116.451823,42.1136986 116.451823,40.6438356 C116.451823,39.1739726 117.770831,38.2205479 120.089087,38.2205479 C121.567974,38.2205479 122.966921,38.5780822 123.5265,39.0547945 L123.5265,40.2863014 C123.5265,41.7561644 121.647914,43.0671233 119.489538,43.0671233 Z M139.754291,47 C144.430773,47 147.588397,44.4972603 147.588397,40.6438356 C147.588397,33.0164384 137.396066,36.2739726 137.396066,32.539726 C137.396066,31.4671233 138.275404,30.6328767 139.834231,30.6328767 C141.353089,30.6328767 142.552186,31.4671233 142.792006,32.6986301 L147.468488,31.7054795 C146.669089,28.8054795 143.631375,26.8589041 139.714322,26.8589041 C135.357599,26.8589041 132.399825,29.2821918 132.399825,32.8972603 C132.399825,40.5643836 142.592156,37.3068493 142.592156,41.0013699 C142.592156,42.3917808 141.592908,43.3054795 139.874201,43.3054795 C138.115524,43.3054795 136.636637,42.3520548 136.236938,40.8821918 L131.600426,41.7561644 C132.639644,45.0931507 135.637389,47 139.754291,47 Z M159.139707,46.8013699 C160.578624,46.8013699 161.737752,46.5630137 162.417241,46.2849315 L161.897632,42.3123288 C161.457963,42.5109589 160.898384,42.669863 160.138955,42.669863 C158.260368,42.669863 157.30109,41.8753425 157.30109,39.3328767 L157.30109,31.7054795 L162.217391,31.7054795 L162.217391,27.4547945 L157.30109,27.4547945 L157.30109,21.4561644 L152.264879,22.4493151 L152.264879,27.4547945 L148.987345,27.4547945 L148.987345,31.7054795 L152.264879,31.7054795 L152.264879,40.1273973 C152.264879,45.1328767 155.142714,46.8013699 159.139707,46.8013699 Z M170.171407,23.4027397 L170.171407,18.5958904 L165.135196,18.5958904 L165.135196,23.4027397 L170.171407,23.4027397 Z M170.171407,46.4041096 L170.171407,27.4547945 L165.135196,27.4547945 L165.135196,46.4041096 L170.171407,46.4041096 Z M183.521363,47 C187.798146,47 190.95577,44.8150685 192.114898,40.8821918 L187.398446,39.690411 C186.838867,41.4780822 185.47989,42.630137 183.361484,42.630137 C180.363739,42.630137 178.685002,40.2465753 178.685002,36.9493151 C178.685002,33.6123288 180.363739,31.2684932 183.361484,31.2684932 C185.47989,31.2684932 186.918807,32.3410959 187.478386,34.1684932 L192.354717,33.4931507 C191.275529,29.1630137 188.157875,26.8589041 183.241574,26.8589041 C177.925573,26.8589041 173.648791,30.7123288 173.648791,36.909589 C173.648791,42.8287671 177.605814,47 183.521363,47 Z M213.13908,47 C219.214509,47 223.251472,43.4643836 223.251472,38.1808219 C223.251472,27.5342466 209.222027,31.9041096 209.222027,25.9054795 C209.222027,23.8 210.860794,22.6082192 213.25899,22.6082192 C215.897005,22.6082192 217.615712,24.0780822 218.055382,26.4219178 L223.171532,25.5082192 C222.412104,21.0191781 218.73487,18 213.41887,18 C207.82308,18 203.866057,21.4164384 203.866057,26.3424658 C203.866057,37.0287671 217.895502,32.6191781 217.895502,38.7767123 C217.895502,40.9616438 216.096855,42.4315068 213.33893,42.4315068 C210.700915,42.4315068 208.382659,41.0410959 207.90302,38.6575342 L202.786869,39.730137 C203.626237,44.2589041 207.98296,47 213.13908,47 Z M232.084826,23.4027397 L232.084826,18.5958904 L227.048615,18.5958904 L227.048615,23.4027397 L232.084826,23.4027397 Z M232.084826,46.4041096 L232.084826,27.4547945 L227.048615,27.4547945 L227.048615,46.4041096 L232.084826,46.4041096 Z M244.875204,46.8013699 C246.314121,46.8013699 247.473249,46.5630137 248.152738,46.2849315 L247.633129,42.3123288 C247.193459,42.5109589 246.63388,42.669863 245.874452,42.669863 C243.995865,42.669863 243.036587,41.8753425 243.036587,39.3328767 L243.036587,31.7054795 L247.952888,31.7054795 L247.952888,27.4547945 L243.036587,27.4547945 L243.036587,21.4561644 L238.000376,22.4493151 L238.000376,27.4547945 L234.722842,27.4547945 L234.722842,31.7054795 L238.000376,31.7054795 L238.000376,40.1273973 C238.000376,45.1328767 240.878211,46.8013699 244.875204,46.8013699 Z M259.863927,47 C263.78098,47 266.618845,45.2123288 268.217642,41.7164384 L264.020799,40.5246575 C263.221401,42.0342466 261.782483,42.9082192 259.903897,42.9082192 C257.265881,42.9082192 255.347325,41.0808219 254.867686,38.339726 L268.977071,38.339726 L268.977071,37.1479452 C268.937101,30.6328767 264.780228,26.8589041 259.384288,26.8589041 C253.788498,26.8589041 249.751535,31.2287671 249.751535,36.9890411 C249.751535,42.7890411 253.948377,47 259.863927,47 Z M263.74101,34.9232877 L254.907656,34.9232877 C255.427265,32.1027397 257.106002,30.7123288 259.464228,30.7123288 C261.702544,30.7123288 263.58113,32.0630137 263.74101,34.9232877 Z M290.201103,47 C296.276532,47 300.313495,43.4643836 300.313495,38.1808219 C300.313495,27.5342466 286.28405,31.9041096 286.28405,25.9054795 C286.28405,23.8 287.922817,22.6082192 290.321012,22.6082192 C292.959028,22.6082192 294.677735,24.0780822 295.117404,26.4219178 L300.233555,25.5082192 C299.474126,21.0191781 295.796893,18 290.480892,18 C284.885102,18 280.928079,21.4164384 280.928079,26.3424658 C280.928079,37.0287671 294.957524,32.6191781 294.957524,38.7767123 C294.957524,40.9616438 293.158877,42.4315068 290.400952,42.4315068 C287.762937,42.4315068 285.444681,41.0410959 284.965042,38.6575342 L279.848891,39.730137 C280.68826,44.2589041 285.044982,47 290.201103,47 Z M313.103872,47 C317.020925,47 319.85879,45.2123288 321.457587,41.7164384 L317.260744,40.5246575 C316.461346,42.0342466 315.022428,42.9082192 313.143842,42.9082192 C310.505826,42.9082192 308.58727,41.0808219 308.107631,38.339726 L322.217015,38.339726 L322.217015,37.1479452 C322.177045,30.6328767 318.020173,26.8589041 312.624233,26.8589041 C307.028443,26.8589041 302.99148,31.2287671 302.99148,36.9890411 C302.99148,42.7890411 307.188322,47 313.103872,47 Z M316.980955,34.9232877 L308.147601,34.9232877 C308.66721,32.1027397 310.345947,30.7123288 312.704172,30.7123288 C314.942488,30.7123288 316.821075,32.0630137 316.980955,34.9232877 Z M331.609949,46.960274 C333.888235,46.960274 336.16652,45.9671233 337.085829,44.5369863 L337.245709,44.5369863 L337.245709,46.4041096 L342.00213,46.4041096 L342.00213,34.4068493 C342.00213,29.560274 339.164265,26.8589041 334.088084,26.8589041 C329.731362,26.8589041 326.613708,28.8452055 325.49455,32.3013699 L330.530761,32.6986301 C330.97043,31.6657534 332.049618,30.8315068 333.768325,30.8315068 C335.806791,30.8315068 337.005889,32.0232877 337.005889,34.0890411 L337.005889,35.4794521 C336.36637,35.1219178 334.727603,34.7643836 333.088836,34.7643836 C328.012655,34.7643836 324.934971,37.1082192 324.934971,41.0410959 C324.934971,44.4972603 327.692896,46.960274 331.609949,46.960274 Z M333.048866,43.0671233 C331.130309,43.0671233 330.011151,42.1136986 330.011151,40.6438356 C330.011151,39.1739726 331.330159,38.2205479 333.648415,38.2205479 C335.127302,38.2205479 336.52625,38.5780822 337.085829,39.0547945 L337.085829,40.2863014 C337.085829,41.7561644 335.207242,43.0671233 333.048866,43.0671233 Z M351.315123,46.4041096 L351.315123,37.9027397 C351.315123,33.4534247 353.39356,31.9835616 356.151485,31.9835616 C356.631124,31.9835616 357.190703,32.0630137 357.550432,32.2219178 L357.550432,27.4150685 C357.270643,27.2561644 356.751034,27.1369863 356.111515,27.1369863 C353.913169,27.1369863 351.994612,28.3684932 351.035334,30.5136986 L350.955394,30.5136986 L350.955394,27.4547945 L346.278912,27.4547945 L346.278912,46.4041096 L351.315123,46.4041096 Z M368.981832,47 C373.258614,47 376.416239,44.8150685 377.575366,40.8821918 L372.858915,39.690411 C372.299336,41.4780822 370.940358,42.630137 368.821952,42.630137 C365.824207,42.630137 364.14547,40.2465753 364.14547,36.9493151 C364.14547,33.6123288 365.824207,31.2684932 368.821952,31.2684932 C370.940358,31.2684932 372.379276,32.3410959 372.938855,34.1684932 L377.815186,33.4931507 C376.735998,29.1630137 373.618344,26.8589041 368.702042,26.8589041 C363.386042,26.8589041 359.109259,30.7123288 359.109259,36.909589 C359.109259,42.8287671 363.066282,47 368.981832,47 Z M385.769202,46.4041096 L385.769202,35.5191781 C385.769202,32.9767123 387.567849,31.2684932 389.766195,31.2684932 C391.804661,31.2684932 392.963789,32.5794521 392.963789,35.2013699 L392.963789,46.4041096 L398,46.4041096 L398,34.2876712 C398,29.639726 395.441925,26.8589041 391.325022,26.8589041 C388.926826,26.8589041 386.76845,28.130137 385.769202,29.560274 L385.769202,18.5958904 L380.732991,18.5958904 L380.732991,46.4041096 L385.769202,46.4041096 Z" id="ElasticSiteSearch" fill="#FFFFFF" fill-rule="nonzero"></path>
    </g>
</svg>