<?xml version="1.0" encoding="UTF-8"?>
<svg width="338px" height="64px" viewBox="0 0 338 64" version="1.1" xmlns="http://www.w3.org/2000/svg" xmlns:xlink="http://www.w3.org/1999/xlink">
    <!-- Generator: Sketch 63.1 (92452) - https://sketch.com -->
    <title>uptime-logo-white-horizontal</title>
    <desc>Created with Sketch.</desc>
    <g id="uptime-logo-white-horizontal" stroke="none" stroke-width="1" fill="none" fill-rule="evenodd">
        <rect id="bounding-box" x="0" y="0" width="338" height="64"></rect>
        <g id="group" transform="translate(6.000000, 5.000000)" fill="#FFFFFF">
            <path d="M43.0313,11.6577 L54.0003,21.7827 L54.0003,26.8457 C54.0003,31.0847 53.0223,35.0947 51.2813,38.6637 L51.2813,38.6637 L51.2343,38.6897 L51.2343,38.6897 C51.2341,38.6905 51.2341,38.6915 51.2331,38.6925 C50.1501,40.9025 48.7741,42.9425 47.1581,44.7635 C47.1001,44.8295 47.0391,44.8945 46.9791,44.9595 C45.8771,46.1795 44.6601,47.2915 43.3531,48.2935 C43.1431,48.4545 42.9331,48.6145 42.7181,48.7685 C42.3631,49.0245 42.0031,49.2745 41.6351,49.5135 C41.3111,49.7235 40.9781,49.9195 40.6441,50.1155 C40.1821,50.3885 39.7111,50.6485 39.2301,50.8945 C38.7881,51.1195 38.3441,51.3395 37.8881,51.5405 C37.6001,51.6685 37.3091,51.7865 37.0161,51.9045 C36.5301,52.0985 36.0391,52.2775 35.5411,52.4435 C35.3041,52.5235 35.0701,52.6095 34.8301,52.6825 C34.1041,52.9015 33.3671,53.0925 32.6171,53.2515 C32.4171,53.2935 32.2121,53.3245 32.0111,53.3625 C31.4011,53.4765 30.7851,53.5715 30.1631,53.6445 C29.9301,53.6715 29.6961,53.6995 29.4621,53.7205 C28.6491,53.7945 27.8311,53.8455 27.0001,53.8455 C26.1791,53.8455 25.3711,53.7935 24.5681,53.7225 C24.3111,53.6995 24.0581,53.6695 23.8031,53.6395 C23.2431,53.5725 22.6891,53.4855 22.1411,53.3855 C21.8711,53.3355 21.5981,53.2955 21.3311,53.2385 C20.6651,53.0955 20.0111,52.9225 19.3631,52.7325 C18.9341,52.6045 18.5131,52.4575 18.0921,52.3095 C17.8501,52.2245 17.6081,52.1365 17.3681,52.0445 C15.7401,51.4165 14.1841,50.6445 12.7241,49.7315 L12.7241,49.7315 C20.3271,47.8885 26.5931,42.6235 29.7821,35.6545 L29.7821,35.6545 L30.0069147,35.1469757 C31.3281393,32.0831626 32.0623,28.7074895 32.0623,25.1577 L32.0623,25.1577 L32.0623,21.7827 L43.0313,11.6577 Z" id="Combined-Shape"></path>
            <path d="M11.5449,44.8721 C18.4809,43.1911 23.8199,38.1111 25.9939,31.6531 C23.4539,28.1701 21.9379,23.8931 21.9379,19.2511 L21.9379,19.2511 L21.9379,0.3361 C9.4479,2.7071 -0.0001,13.6661 -0.0001,26.8451 C-0.0001,34.2271 2.9649,40.9141 7.7659,45.7881 L11.5449,44.8721 Z" id="Fill-5"></path>
        </g>
        <path d="M98.8729528,46 L98.8729528,41.16 L85.2892352,41.16 L85.2892352,34.36 L95.5471458,34.36 L95.5471458,29.52 L85.2892352,29.52 L85.2892352,22.84 L98.8729528,22.84 L98.8729528,18 L80,18 L80,46 L98.8729528,46 Z M108.489744,46 L108.489744,18 L103.440929,18 L103.440929,46 L108.489744,46 Z M119.148354,46.56 C121.432342,46.56 123.71633,45.56 124.637939,44.12 L124.798219,44.12 L124.798219,46 L129.566545,46 L129.566545,33.92 C129.566545,29.04 126.721577,26.32 121.632692,26.32 C117.265066,26.32 114.139609,28.32 113.01765,31.8 L118.066465,32.2 C118.507235,31.16 119.589124,30.32 121.312132,30.32 C123.3557,30.32 124.557799,31.52 124.557799,33.6 L124.557799,35 C123.91668,34.64 122.273811,34.28 120.630943,34.28 C115.542058,34.28 112.45667,36.64 112.45667,40.6 C112.45667,44.08 115.221498,46.56 119.148354,46.56 Z M120.590873,42.64 C118.667515,42.64 117.545556,41.68 117.545556,40.2 C117.545556,38.72 118.867865,37.76 121.191922,37.76 C122.674511,37.76 124.07696,38.12 124.637939,38.6 L124.637939,39.84 C124.637939,41.32 122.754651,42.64 120.590873,42.64 Z M140.906344,46.6 C145.59453,46.6 148.760057,44.08 148.760057,40.2 C148.760057,32.52 138.542217,35.8 138.542217,32.04 C138.542217,30.96 139.423756,30.12 140.986484,30.12 C142.509143,30.12 143.711242,30.96 143.951662,32.2 L148.639847,31.2 C147.838448,28.28 144.793131,26.32 140.866274,26.32 C136.498648,26.32 133.533471,28.76 133.533471,32.4 C133.533471,40.12 143.751312,36.84 143.751312,40.56 C143.751312,41.96 142.749563,42.88 141.026554,42.88 C139.263476,42.88 137.780887,41.92 137.380188,40.44 L132.732072,41.32 C133.773891,44.68 136.779138,46.6 140.906344,46.6 Z M160.340277,46.4 C161.782795,46.4 162.944824,46.16 163.626014,45.88 L163.105104,41.88 C162.664335,42.08 162.103355,42.24 161.342026,42.24 C159.458737,42.24 158.497058,41.44 158.497058,38.88 L158.497058,31.2 L163.425664,31.2 L163.425664,26.92 L158.497058,26.92 L158.497058,20.88 L153.448243,21.88 L153.448243,26.92 L150.162506,26.92 L150.162506,31.2 L153.448243,31.2 L153.448243,39.68 C153.448243,44.72 156.33328,46.4 160.340277,46.4 Z M171.399587,22.84 L171.399587,18 L166.350771,18 L166.350771,22.84 L171.399587,22.84 Z M171.399587,46 L171.399587,26.92 L166.350771,26.92 L166.350771,46 L171.399587,46 Z M184.782954,46.6 C189.07044,46.6 192.235968,44.4 193.397997,40.44 L188.669741,39.24 C188.108761,41.04 186.746383,42.2 184.622675,42.2 C181.617427,42.2 179.934489,39.8 179.934489,36.48 C179.934489,33.12 181.617427,30.76 184.622675,30.76 C186.746383,30.76 188.188901,31.84 188.749881,33.68 L193.638416,33 C192.556527,28.64 189.43107,26.32 184.502465,26.32 C179.173159,26.32 174.885673,30.2 174.885673,36.44 C174.885673,42.4 178.8526,46.6 184.782954,46.6 Z M216.838925,46.6 C224.091588,46.6 228.419145,42.4 228.419145,34.2 L228.419145,18 L223.169979,18 L223.169979,33.8 C223.169979,38.92 220.845921,41.64 216.838925,41.64 C212.912069,41.64 210.588011,38.92 210.588011,33.76 L210.588011,18 L205.338846,18 L205.338846,34.24 C205.338846,42.4 209.666402,46.6 216.838925,46.6 Z M238.677055,54 L238.677055,43.64 C239.558594,45.28 241.562093,46.6 244.32692,46.6 C249.375735,46.6 253.342662,42.56 253.342662,36.48 C253.342662,30.4 249.536015,26.32 244.44713,26.32 C242.163142,26.32 239.638734,27.28 238.356495,29.68 L238.276356,29.68 L238.276356,26.92 L233.62824,26.92 L233.62824,54 L238.677055,54 Z M243.365241,42.2 C240.319924,42.2 238.476705,39.8 238.476705,36.48 C238.476705,33.12 240.319924,30.76 243.365241,30.76 C246.370488,30.76 248.253776,33.2 248.253776,36.48 C248.253776,39.72 246.410558,42.2 243.365241,42.2 Z M265.003021,46.4 C266.44554,46.4 267.607569,46.16 268.288758,45.88 L267.767849,41.88 C267.327079,42.08 266.7661,42.24 266.00477,42.24 C264.121482,42.24 263.159803,41.44 263.159803,38.88 L263.159803,31.2 L268.088408,31.2 L268.088408,26.92 L263.159803,26.92 L263.159803,20.88 L258.110987,21.88 L258.110987,26.92 L254.82525,26.92 L254.82525,31.2 L258.110987,31.2 L258.110987,39.68 C258.110987,44.72 260.996025,46.4 265.003021,46.4 Z M276.062331,22.84 L276.062331,18 L271.013516,18 L271.013516,22.84 L276.062331,22.84 Z M276.062331,46 L276.062331,26.92 L271.013516,26.92 L271.013516,46 L276.062331,46 Z M285.719192,46 L285.719192,35 C285.719192,32.52 287.321991,30.76 289.445699,30.76 C291.449197,30.76 292.571156,32.08 292.571156,34.52 L292.571156,46 L297.619971,46 L297.619971,35 C297.619971,32.56 299.22277,30.76 301.386548,30.76 C303.390046,30.76 304.471935,32.08 304.471935,34.52 L304.471935,46 L309.520751,46 L309.520751,33.52 C309.520751,29.08 307.036413,26.32 302.909207,26.32 C300.224519,26.32 297.980601,27.8 296.858642,29.76 C295.977103,27.72 294.013675,26.32 291.208777,26.32 C288.60423,26.32 286.440452,27.64 285.438702,29.2 L285.358563,29.2 L285.358563,26.92 L280.670377,26.92 L280.670377,46 L285.719192,46 Z M322.864048,46.6 C326.790905,46.6 329.635872,44.8 331.238671,41.28 L327.031325,40.08 C326.229925,41.6 324.787407,42.48 322.904118,42.48 C320.259501,42.48 318.336142,40.64 317.855303,37.88 L332,37.88 L332,36.68 C331.95993,30.12 327.792654,26.32 322.383209,26.32 C316.773414,26.32 312.726348,30.72 312.726348,36.52 C312.726348,42.36 316.933694,46.6 322.864048,46.6 Z M326.750835,34.44 L317.895373,34.44 C318.416282,31.6 320.099221,30.2 322.463349,30.2 C324.707267,30.2 326.590555,31.56 326.750835,34.44 Z" id="ElasticUptime" fill="#FFFFFF" fill-rule="nonzero"></path>
    </g>
</svg>