<?xml version="1.0" encoding="UTF-8"?>
<svg width="408px" height="64px" viewBox="0 0 408 64" version="1.1" xmlns="http://www.w3.org/2000/svg" xmlns:xlink="http://www.w3.org/1999/xlink">
    <!-- Generator: Sketch 63.1 (92452) - https://sketch.com -->
    <title>app-search-logo-color-reverse-horizontal</title>
    <desc>Created with Sketch.</desc>
    <g id="app-search-logo-color-reverse-horizontal" stroke="none" stroke-width="1" fill="none" fill-rule="evenodd">
        <rect id="bounding-box" x="0" y="0" width="408" height="64"></rect>
        <g id="group" transform="translate(6.000000, 5.000000)">
            <path d="M31.9689,1.6208 C28.2269,-0.5402 23.6149,-0.5402 19.8729,1.6208 L6.9119,9.1178 L25.9209,20.0918 L44.9299,9.1178 L31.9689,1.6208 Z" id="Fill-1" fill="#FFFFFF"></path>
            <path d="M25.921,20.092 L6.9,9.111 L6.048,9.602 C2.306,11.763 0,15.757 0,20.078 L0,36.041 C0,40.363 2.306,44.357 6.048,46.517 L19.009,54 L19.009,31.067 C19.009,26.745 21.315,22.752 25.057,20.591 L25.921,20.092 Z" id="Fill-3" fill="#0077CC"></path>
            <path d="M47.4298,13.4474 L30.1098,23.4474 C31.8348,25.5714 32.8328,28.2434 32.8328,31.0664 L32.8328,54.0004 L45.7938,46.5174 C49.5358,44.3564 51.8418,40.3634 51.8418,36.0414 L51.8418,20.0784 C51.8418,17.2594 50.8468,14.5904 49.1258,12.4684 L47.4298,13.4474 Z" id="Fill-5" fill="#FA744E"></path>
        </g>
        <path d="M96.8237326,46.9125683 L96.8237326,42.0196721 L83.275441,42.0196721 L83.275441,35.1453552 L93.5065992,35.1453552 L93.5065992,30.252459 L83.275441,30.252459 L83.275441,23.4994536 L96.8237326,23.4994536 L96.8237326,18.6065574 L78,18.6065574 L78,46.9125683 L96.8237326,46.9125683 Z M106.415443,46.9125683 L106.415443,18.6065574 L101.379795,18.6065574 L101.379795,46.9125683 L106.415443,46.9125683 Z M117.046256,47.4786885 C119.324288,47.4786885 121.602319,46.4677596 122.521525,45.0120219 L122.681386,45.0120219 L122.681386,46.9125683 L127.437276,46.9125683 L127.437276,34.7005464 C127.437276,29.7672131 124.599729,27.0174863 119.524115,27.0174863 C115.16788,27.0174863 112.050574,29.0393443 110.931541,32.557377 L115.967189,32.9617486 C116.406809,31.9103825 117.485876,31.0612022 119.204391,31.0612022 C121.24263,31.0612022 122.441594,32.2743169 122.441594,34.3770492 L122.441594,35.7923497 C121.802146,35.4284153 120.163562,35.0644809 118.524978,35.0644809 C113.449365,35.0644809 110.372024,37.4502732 110.372024,41.4535519 C110.372024,44.9715847 113.129641,47.4786885 117.046256,47.4786885 Z M118.485013,43.515847 C116.566671,43.515847 115.447638,42.5453552 115.447638,41.0491803 C115.447638,39.5530055 116.766498,38.5825137 119.084495,38.5825137 C120.563217,38.5825137 121.962008,38.9464481 122.521525,39.431694 L122.521525,40.6852459 C122.521525,42.1814208 120.643148,43.515847 118.485013,43.515847 Z M138.747502,47.5191257 C143.423461,47.5191257 146.580733,44.9715847 146.580733,41.0491803 C146.580733,33.2852459 136.38954,36.6010929 136.38954,32.8 C136.38954,31.7081967 137.26878,30.8590164 138.827433,30.8590164 C140.346121,30.8590164 141.545084,31.7081967 141.784877,32.9617486 L146.460836,31.9508197 C145.661527,28.9989071 142.624152,27.0174863 138.707537,27.0174863 C134.351301,27.0174863 131.393857,29.484153 131.393857,33.1639344 C131.393857,40.968306 141.58505,37.652459 141.58505,41.4131148 C141.58505,42.8284153 140.585913,43.7584699 138.867399,43.7584699 C137.108918,43.7584699 135.630196,42.7879781 135.230542,41.2918033 L130.594548,42.1814208 C131.63365,45.5781421 134.63106,47.5191257 138.747502,47.5191257 Z M158.130751,47.3169399 C159.569508,47.3169399 160.728506,47.0743169 161.407919,46.7912568 L160.888368,42.747541 C160.448748,42.9497268 159.889232,43.1114754 159.129888,43.1114754 C157.251511,43.1114754 156.29234,42.3027322 156.29234,39.7147541 L156.29234,31.9508197 L161.208092,31.9508197 L161.208092,27.6240437 L156.29234,27.6240437 L156.29234,21.5180328 L151.256692,22.5289617 L151.256692,27.6240437 L147.979524,27.6240437 L147.979524,31.9508197 L151.256692,31.9508197 L151.256692,40.5234973 C151.256692,45.6185792 154.134205,47.3169399 158.130751,47.3169399 Z M169.161219,23.4994536 L169.161219,18.6065574 L164.12557,18.6065574 L164.12557,23.4994536 L169.161219,23.4994536 Z M169.161219,46.9125683 L169.161219,27.6240437 L164.12557,27.6240437 L164.12557,46.9125683 L169.161219,46.9125683 Z M182.509683,47.5191257 C186.785987,47.5191257 189.943259,45.295082 191.102257,41.2918033 L186.386333,40.0786885 C185.826816,41.8983607 184.467991,43.0710383 182.349821,43.0710383 C179.352411,43.0710383 177.673862,40.6448087 177.673862,37.2885246 C177.673862,33.8918033 179.352411,31.5060109 182.349821,31.5060109 C184.467991,31.5060109 185.906747,32.5978142 186.466264,34.4579235 L191.34205,33.7704918 C190.262983,29.3628415 187.145677,27.0174863 182.229925,27.0174863 C176.914518,27.0174863 172.638214,30.9398907 172.638214,37.2480874 C172.638214,43.273224 176.594795,47.5191257 182.509683,47.5191257 Z M206.329098,46.9125683 L208.567164,40.2 L219.277908,40.2 L221.515974,46.9125683 L227.231035,46.9125683 L216.919946,18.5256831 L211.045023,18.5256831 L200.733934,46.9125683 L206.329098,46.9125683 Z M217.719255,35.3879781 L210.205748,35.3879781 L213.842605,24.4699454 L214.002467,24.4699454 L217.719255,35.3879781 Z M235.144196,55 L235.144196,44.526776 C236.023437,46.1846995 238.02171,47.5191257 240.779327,47.5191257 C245.814975,47.5191257 249.771555,43.4349727 249.771555,37.2885246 C249.771555,31.1420765 245.974837,27.0174863 240.899223,27.0174863 C238.621192,27.0174863 236.103367,27.9879781 234.824473,30.4142077 L234.744542,30.4142077 L234.744542,27.6240437 L230.108548,27.6240437 L230.108548,55 L235.144196,55 Z M239.820155,43.0710383 C236.78278,43.0710383 234.944369,40.6448087 234.944369,37.2885246 C234.944369,33.8918033 236.78278,31.5060109 239.820155,31.5060109 C242.817565,31.5060109 244.695942,33.9726776 244.695942,37.2885246 C244.695942,40.5639344 242.857531,43.0710383 239.820155,43.0710383 Z M258.284199,55 L258.284199,44.526776 C259.163439,46.1846995 261.161712,47.5191257 263.919329,47.5191257 C268.954977,47.5191257 272.911558,43.4349727 272.911558,37.2885246 C272.911558,31.1420765 269.114839,27.0174863 264.039225,27.0174863 C261.761194,27.0174863 259.24337,27.9879781 257.964475,30.4142077 L257.884544,30.4142077 L257.884544,27.6240437 L253.248551,27.6240437 L253.248551,55 L258.284199,55 Z M262.960158,43.0710383 C259.922783,43.0710383 258.084372,40.6448087 258.084372,37.2885246 C258.084372,33.8918033 259.922783,31.5060109 262.960158,31.5060109 C265.957568,31.5060109 267.835944,33.9726776 267.835944,37.2885246 C267.835944,40.5639344 265.997533,43.0710383 262.960158,43.0710383 Z M294.213149,47.5191257 C300.287899,47.5191257 304.324411,43.9202186 304.324411,38.5420765 C304.324411,27.704918 290.296534,32.1530055 290.296534,26.0469945 C290.296534,23.9038251 291.935118,22.6907104 294.333046,22.6907104 C296.970766,22.6907104 298.689281,24.1868852 299.128901,26.5726776 L304.24448,25.642623 C303.485136,21.073224 299.808314,18 294.492907,18 C288.897743,18 284.941162,21.4775956 284.941162,26.4918033 C284.941162,37.3693989 298.969039,32.8808743 298.969039,39.1486339 C298.969039,41.3726776 297.170593,42.8688525 294.412976,42.8688525 C291.775256,42.8688525 289.457259,41.4535519 288.977674,39.0273224 L283.862094,40.1191257 C284.701369,44.7289617 289.057605,47.5191257 294.213149,47.5191257 Z M317.113359,47.5191257 C321.029974,47.5191257 323.867522,45.6994536 325.46614,42.1409836 L321.269767,40.9278689 C320.470458,42.4644809 319.031701,43.3540984 317.153324,43.3540984 C314.515604,43.3540984 312.597262,41.4939891 312.117676,38.7038251 L326.225484,38.7038251 L326.225484,37.4907104 C326.185519,30.8590164 322.029111,27.0174863 316.633773,27.0174863 C311.038609,27.0174863 307.002097,31.4655738 307.002097,37.3289617 C307.002097,43.2327869 311.19847,47.5191257 317.113359,47.5191257 Z M320.990009,35.2262295 L312.157642,35.2262295 C312.677193,32.3551913 314.355742,30.9398907 316.713704,30.9398907 C318.95177,30.9398907 320.830147,32.3147541 320.990009,35.2262295 Z M335.617368,47.4786885 C337.895399,47.4786885 340.17343,46.4677596 341.092636,45.0120219 L341.252498,45.0120219 L341.252498,46.9125683 L346.008388,46.9125683 L346.008388,34.7005464 C346.008388,29.7672131 343.17084,27.0174863 338.095226,27.0174863 C333.738991,27.0174863 330.621685,29.0393443 329.502652,32.557377 L334.5383,32.9617486 C334.97792,31.9103825 336.056988,31.0612022 337.775503,31.0612022 C339.813741,31.0612022 341.012705,32.2743169 341.012705,34.3770492 L341.012705,35.7923497 C340.373258,35.4284153 338.734674,35.0644809 337.09609,35.0644809 C332.020476,35.0644809 328.943136,37.4502732 328.943136,41.4535519 C328.943136,44.9715847 331.700752,47.4786885 335.617368,47.4786885 Z M337.056124,43.515847 C335.137782,43.515847 334.018749,42.5453552 334.018749,41.0491803 C334.018749,39.5530055 335.337609,38.5825137 337.655606,38.5825137 C339.134328,38.5825137 340.53312,38.9464481 341.092636,39.431694 L341.092636,40.6852459 C341.092636,42.1814208 339.214259,43.515847 337.056124,43.515847 Z M355.32034,46.9125683 L355.32034,38.2590164 C355.32034,33.7300546 357.398544,32.2338798 360.156161,32.2338798 C360.635747,32.2338798 361.195263,32.3147541 361.554953,32.4765027 L361.554953,27.5836066 C361.275194,27.4218579 360.755643,27.3005464 360.116196,27.3005464 C357.918095,27.3005464 355.999753,28.5540984 355.040582,30.7377049 L354.960651,30.7377049 L354.960651,27.6240437 L350.284692,27.6240437 L350.284692,46.9125683 L355.32034,46.9125683 Z M372.985075,47.5191257 C377.261379,47.5191257 380.418651,45.295082 381.577649,41.2918033 L376.861724,40.0786885 C376.302208,41.8983607 374.943382,43.0710383 372.825213,43.0710383 C369.827803,43.0710383 368.149254,40.6448087 368.149254,37.2885246 C368.149254,33.8918033 369.827803,31.5060109 372.825213,31.5060109 C374.943382,31.5060109 376.382139,32.5978142 376.941655,34.4579235 L381.817442,33.7704918 C380.738374,29.3628415 377.621068,27.0174863 372.705316,27.0174863 C367.38991,27.0174863 363.113606,30.9398907 363.113606,37.2480874 C363.113606,43.273224 367.070186,47.5191257 372.985075,47.5191257 Z M389.770569,46.9125683 L389.770569,35.8327869 C389.770569,33.2448087 391.569014,31.5060109 393.767115,31.5060109 C395.805353,31.5060109 396.964352,32.8404372 396.964352,35.5092896 L396.964352,46.9125683 L402,46.9125683 L402,34.579235 C402,29.8480874 399.44221,27.0174863 395.325768,27.0174863 C392.92784,27.0174863 390.769705,28.3114754 389.770569,29.7672131 L389.770569,18.6065574 L384.73492,18.6065574 L384.73492,46.9125683 L389.770569,46.9125683 Z" id="ElasticAppSearch" fill="#FFFFFF" fill-rule="nonzero"></path>
    </g>
</svg>