<?xml version="1.0" encoding="UTF-8"?>
<svg width="524px" height="64px" viewBox="0 0 524 64" version="1.1" xmlns="http://www.w3.org/2000/svg" xmlns:xlink="http://www.w3.org/1999/xlink">
    <!-- Generator: Sketch 63.1 (92452) - https://sketch.com -->
    <title>workplace-search-logo-color-reverse-horizontal</title>
    <desc>Created with Sketch.</desc>
    <g id="workplace-search-logo-color-reverse-horizontal" stroke="none" stroke-width="1" fill="none" fill-rule="evenodd">
        <rect id="bounding-box" x="0" y="0" width="524" height="64"></rect>
        <g id="Group" transform="translate(8.000000, 6.000000)">
            <path d="M26.0223243,44.9804141 L30.3361052,39.525731 C33.0811749,35.9169516 34.8451656,30.9087031 34.8095301,25.918787 C34.7748049,21.0563499 33.0105762,16.2113205 30.3361052,12.6955898 L26.0223243,7.00185052 L28.2419394,4.21923828 C30.4863242,1.81896973 33.4900888,0 36.9897422,0 L47.9884554,0 L47.9884554,52 L36.9897422,52 C33.4900888,52 30.2546348,49.9265137 27.7916221,47.0529785 L26.0223243,44.9804141 Z" id="Path" fill="#FEC514"></path>
            <path d="M9.68452344,0 C12.534141,0 15.2674476,1.36155768 16.9953548,3.63941492 L21.992,10.225 L16.5830812,16.4606671 C11.8721719,22.060887 11.7936567,29.5529893 16.3454628,35.2134433 L16.5809011,35.4996663 L22.1937658,41.5231867 L22.815,40.713 L16.9923977,48.3705017 C15.2635049,50.6434007 12.534141,52 9.69043756,52 L0,52 L0,0 L9.68452344,0 Z" id="Combined-Shape" fill="#F04E98"></path>
            <path d="M22.1937658,41.5231867 L16.5809011,35.4996663 C11.7923259,29.8075023 11.7923259,22.155806 16.5830812,16.4606671 L21.9944419,10.2235107 L26.7540781,16.4606671 C31.1543904,22.152831 31.1563937,29.890792 26.7540781,35.5859309 L22.1937658,41.5231867 Z" id="Path" fill="#FFFFFF"></path>
        </g>
        <path d="M94.8195625,46.9125683 L94.8195625,42.0196721 L81.2742723,42.0196721 L81.2742723,35.1453552 L91.503164,35.1453552 L91.503164,30.252459 L81.2742723,30.252459 L81.2742723,23.4994536 L94.8195625,23.4994536 L94.8195625,18.6065574 L76,18.6065574 L76,46.9125683 L94.8195625,46.9125683 Z M104.409148,46.9125683 L104.409148,18.6065574 L99.3746158,18.6065574 L99.3746158,46.9125683 L104.409148,46.9125683 Z M115.037606,47.4786885 C117.315133,47.4786885 119.59266,46.4677596 120.511662,45.0120219 L120.671488,45.0120219 L120.671488,46.9125683 L125.426324,46.9125683 L125.426324,34.7005464 C125.426324,29.7672131 122.589405,27.0174863 117.514916,27.0174863 C113.159646,27.0174863 110.04303,29.0393443 108.924245,32.557377 L113.958778,32.9617486 C114.3983,31.9103825 115.477129,31.0612022 117.195263,31.0612022 C119.23305,31.0612022 120.431748,32.2743169 120.431748,34.3770492 L120.431748,35.7923497 C119.792443,35.4284153 118.154222,35.0644809 116.516001,35.0644809 C111.441511,35.0644809 108.364853,37.4502732 108.364853,41.4535519 C108.364853,44.9715847 111.121859,47.4786885 115.037606,47.4786885 Z M116.476044,43.515847 C114.558127,43.515847 113.439342,42.5453552 113.439342,41.0491803 C113.439342,39.5530055 114.75791,38.5825137 117.075393,38.5825137 C118.553788,38.5825137 119.952269,38.9464481 120.511662,39.431694 L120.511662,40.6852459 C120.511662,42.1814208 118.633701,43.515847 116.476044,43.515847 Z M136.734044,47.5191257 C141.408968,47.5191257 144.56554,44.9715847 144.56554,41.0491803 C144.56554,33.2852459 134.376605,36.6010929 134.376605,32.8 C134.376605,31.7081967 135.25565,30.8590164 136.813958,30.8590164 C138.332309,30.8590164 139.531007,31.7081967 139.770747,32.9617486 L144.44567,31.9508197 C143.646538,28.9989071 140.609835,27.0174863 136.694088,27.0174863 C132.338818,27.0174863 129.382029,29.484153 129.382029,33.1639344 C129.382029,40.968306 139.570964,37.652459 139.570964,41.4131148 C139.570964,42.8284153 138.572048,43.7584699 136.853914,43.7584699 C135.095824,43.7584699 133.617429,42.7879781 133.217863,41.2918033 L128.582896,42.1814208 C129.621768,45.5781421 132.618514,47.5191257 136.734044,47.5191257 Z M156.112999,47.3169399 C157.551437,47.3169399 158.710179,47.0743169 159.389441,46.7912568 L158.870005,42.747541 C158.430483,42.9497268 157.87109,43.1114754 157.111915,43.1114754 C155.233954,43.1114754 154.274995,42.3027322 154.274995,39.7147541 L154.274995,31.9508197 L159.189658,31.9508197 L159.189658,27.6240437 L154.274995,27.6240437 L154.274995,21.5180328 L149.240463,22.5289617 L149.240463,27.6240437 L145.964021,27.6240437 L145.964021,31.9508197 L149.240463,31.9508197 L149.240463,40.5234973 C149.240463,45.6185792 152.117339,47.3169399 156.112999,47.3169399 Z M167.141023,23.4994536 L167.141023,18.6065574 L162.106491,18.6065574 L162.106491,23.4994536 L167.141023,23.4994536 Z M167.141023,46.9125683 L167.141023,27.6240437 L162.106491,27.6240437 L162.106491,46.9125683 L167.141023,46.9125683 Z M180.48653,47.5191257 C184.761888,47.5191257 187.91846,45.295082 189.077201,41.2918033 L184.362321,40.0786885 C183.802929,41.8983607 182.444404,43.0710383 180.326704,43.0710383 C177.329958,43.0710383 175.651781,40.6448087 175.651781,37.2885246 C175.651781,33.8918033 177.329958,31.5060109 180.326704,31.5060109 C182.444404,31.5060109 183.882842,32.5978142 184.442235,34.4579235 L189.316941,33.7704918 C188.238112,29.3628415 185.121497,27.0174863 180.206834,27.0174863 C174.892605,27.0174863 170.617248,30.9398907 170.617248,37.2480874 C170.617248,43.273224 174.572952,47.5191257 180.48653,47.5191257 Z M211.652685,46.9934426 L217.806003,26.7344262 L217.965829,26.7344262 L224.07919,46.9934426 L229.713072,46.9934426 L236.785391,18.6065574 L231.351293,18.6065574 L226.836196,38.0972678 L226.636413,38.0972678 L220.722835,18.6065574 L215.328693,18.6065574 L209.455071,38.0972678 L209.215332,38.0972678 L204.660278,18.6065574 L198.7467,18.6065574 L206.018803,46.9934426 L211.652685,46.9934426 Z M248.612547,47.5191257 C254.086603,47.5191257 258.681613,43.7180328 258.681613,37.2885246 C258.681613,30.7781421 254.086603,27.0174863 248.612547,27.0174863 C243.138492,27.0174863 238.543482,30.7781421 238.543482,37.2885246 C238.543482,43.7584699 243.138492,47.5191257 248.612547,47.5191257 Z M248.612547,43.0710383 C245.655758,43.0710383 243.578015,40.7661202 243.578015,37.2885246 C243.578015,33.7704918 245.655758,31.5060109 248.612547,31.5060109 C251.569336,31.5060109 253.607123,33.7704918 253.607123,37.2885246 C253.607123,40.7661202 251.569336,43.0710383 248.612547,43.0710383 Z M267.152414,46.9125683 L267.152414,38.2590164 C267.152414,33.7300546 269.230157,32.2338798 271.987163,32.2338798 C272.466643,32.2338798 273.026035,32.3147541 273.385645,32.4765027 L273.385645,27.5836066 C273.105948,27.4218579 272.586512,27.3005464 271.947207,27.3005464 C269.749593,27.3005464 267.831676,28.5540984 266.872717,30.7377049 L266.792804,30.7377049 L266.792804,27.6240437 L262.117881,27.6240437 L262.117881,46.9125683 L267.152414,46.9125683 Z M281.09727,46.9125683 L281.09727,37.895082 L288.04972,46.9125683 L294.482734,46.9125683 L286.131803,36.3180328 L293.803471,27.6240437 L287.849937,27.6240437 L281.09727,35.6710383 L281.09727,18.6065574 L276.062737,18.6065574 L276.062737,46.9125683 L281.09727,46.9125683 Z M302.034533,55 L302.034533,44.526776 C302.913578,46.1846995 304.911408,47.5191257 307.668414,47.5191257 C312.702947,47.5191257 316.658651,43.4349727 316.658651,37.2885246 C316.658651,31.1420765 312.862773,27.0174863 307.788284,27.0174863 C305.510758,27.0174863 302.993491,27.9879781 301.71488,30.4142077 L301.634967,30.4142077 L301.634967,27.6240437 L297,27.6240437 L297,55 L302.034533,55 Z M306.709456,43.0710383 C303.672754,43.0710383 301.83475,40.6448087 301.83475,37.2885246 C301.83475,33.8918033 303.672754,31.5060109 306.709456,31.5060109 C309.706201,31.5060109 311.584162,33.9726776 311.584162,37.2885246 C311.584162,40.5639344 309.746158,43.0710383 306.709456,43.0710383 Z M325.129452,46.9125683 L325.129452,18.6065574 L320.09492,18.6065574 L320.09492,46.9125683 L325.129452,46.9125683 Z M335.75791,47.4786885 C338.035437,47.4786885 340.312963,46.4677596 341.231965,45.0120219 L341.391792,45.0120219 L341.391792,46.9125683 L346.146628,46.9125683 L346.146628,34.7005464 C346.146628,29.7672131 343.309709,27.0174863 338.23522,27.0174863 C333.879949,27.0174863 330.763334,29.0393443 329.644549,32.557377 L334.679082,32.9617486 C335.118604,31.9103825 336.197433,31.0612022 337.915567,31.0612022 C339.953354,31.0612022 341.152052,32.2743169 341.152052,34.3770492 L341.152052,35.7923497 C340.512746,35.4284153 338.874525,35.0644809 337.236304,35.0644809 C332.161815,35.0644809 329.085156,37.4502732 329.085156,41.4535519 C329.085156,44.9715847 331.842162,47.4786885 335.75791,47.4786885 Z M337.196348,43.515847 C335.278431,43.515847 334.159646,42.5453552 334.159646,41.0491803 C334.159646,39.5530055 335.478214,38.5825137 337.795697,38.5825137 C339.274091,38.5825137 340.672573,38.9464481 341.231965,39.431694 L341.231965,40.6852459 C341.231965,42.1814208 339.354005,43.515847 337.196348,43.515847 Z M359.172482,47.5191257 C363.447839,47.5191257 366.604411,45.295082 367.763153,41.2918033 L363.048273,40.0786885 C362.488881,41.8983607 361.130356,43.0710383 359.012656,43.0710383 C356.01591,43.0710383 354.337733,40.6448087 354.337733,37.2885246 C354.337733,33.8918033 356.01591,31.5060109 359.012656,31.5060109 C361.130356,31.5060109 362.568794,32.5978142 363.128187,34.4579235 L368.002893,33.7704918 C366.924064,29.3628415 363.807449,27.0174863 358.892786,27.0174863 C353.578557,27.0174863 349.3032,30.9398907 349.3032,37.2480874 C349.3032,43.273224 353.258904,47.5191257 359.172482,47.5191257 Z M379.909962,47.5191257 C383.82571,47.5191257 386.662629,45.6994536 388.260893,42.1409836 L384.065449,40.9278689 C383.266317,42.4644809 381.827879,43.3540984 379.949919,43.3540984 C377.312782,43.3540984 375.394865,41.4939891 374.915386,38.7038251 L389.020069,38.7038251 L389.020069,37.4907104 C388.980112,30.8590164 384.824625,27.0174863 379.430483,27.0174863 C373.836558,27.0174863 369.80094,31.4655738 369.80094,37.3289617 C369.80094,43.2327869 373.996384,47.5191257 379.909962,47.5191257 Z M383.785753,35.2262295 L374.955343,35.2262295 C375.474779,32.3551913 377.152956,30.9398907 379.510396,30.9398907 C381.747966,30.9398907 383.625927,32.3147541 383.785753,35.2262295 Z M410.237028,47.5191257 C416.310432,47.5191257 420.34605,43.9202186 420.34605,38.5420765 C420.34605,27.704918 406.32128,32.1530055 406.32128,26.0469945 C406.32128,23.9038251 407.959501,22.6907104 410.356897,22.6907104 C412.994034,22.6907104 414.712168,24.1868852 415.15169,26.5726776 L420.266136,25.642623 C419.506961,21.073224 415.830953,18 410.516724,18 C404.922799,18 400.967095,21.4775956 400.967095,26.4918033 C400.967095,37.3693989 414.991864,32.8808743 414.991864,39.1486339 C414.991864,41.3726776 413.193817,42.8688525 410.436811,42.8688525 C407.799675,42.8688525 405.482191,41.4535519 405.002712,39.0273224 L399.888266,40.1191257 C400.727355,44.7289617 405.082625,47.5191257 410.237028,47.5191257 Z M433.132164,47.5191257 C437.047912,47.5191257 439.884831,45.6994536 441.483095,42.1409836 L437.287651,40.9278689 C436.488519,42.4644809 435.050081,43.3540984 433.172121,43.3540984 C430.534985,43.3540984 428.617067,41.4939891 428.137588,38.7038251 L442.242271,38.7038251 L442.242271,37.4907104 C442.202314,30.8590164 438.046827,27.0174863 432.652685,27.0174863 C427.05876,27.0174863 423.023142,31.4655738 423.023142,37.3289617 C423.023142,43.2327869 427.218586,47.5191257 433.132164,47.5191257 Z M437.007955,35.2262295 L428.177545,35.2262295 C428.696981,32.3551913 430.375158,30.9398907 432.732598,30.9398907 C434.970168,30.9398907 436.848129,32.3147541 437.007955,35.2262295 Z M451.632074,47.4786885 C453.9096,47.4786885 456.187127,46.4677596 457.106129,45.0120219 L457.265956,45.0120219 L457.265956,46.9125683 L462.020792,46.9125683 L462.020792,34.7005464 C462.020792,29.7672131 459.183873,27.0174863 454.109383,27.0174863 C449.754113,27.0174863 446.637498,29.0393443 445.518713,32.557377 L450.553245,32.9617486 C450.992768,31.9103825 452.071596,31.0612022 453.789731,31.0612022 C455.827518,31.0612022 457.026216,32.2743169 457.026216,34.3770492 L457.026216,35.7923497 C456.38691,35.4284153 454.748689,35.0644809 453.110468,35.0644809 C448.035979,35.0644809 444.95932,37.4502732 444.95932,41.4535519 C444.95932,44.9715847 447.716326,47.4786885 451.632074,47.4786885 Z M453.070512,43.515847 C451.152594,43.515847 450.033809,42.5453552 450.033809,41.0491803 C450.033809,39.5530055 451.352378,38.5825137 453.669861,38.5825137 C455.148255,38.5825137 456.546737,38.9464481 457.106129,39.431694 L457.106129,40.6852459 C457.106129,42.1814208 455.228169,43.515847 453.070512,43.515847 Z M471.330682,46.9125683 L471.330682,38.2590164 C471.330682,33.7300546 473.408425,32.2338798 476.165431,32.2338798 C476.644911,32.2338798 477.204303,32.3147541 477.563912,32.4765027 L477.563912,27.5836066 C477.284216,27.4218579 476.76478,27.3005464 476.125475,27.3005464 C473.927861,27.3005464 472.009944,28.5540984 471.050985,30.7377049 L470.971072,30.7377049 L470.971072,27.6240437 L466.296149,27.6240437 L466.296149,46.9125683 L471.330682,46.9125683 Z M488.991502,47.5191257 C493.26686,47.5191257 496.423432,45.295082 497.582173,41.2918033 L492.867293,40.0786885 C492.307901,41.8983607 490.949376,43.0710383 488.831676,43.0710383 C485.83493,43.0710383 484.156753,40.6448087 484.156753,37.2885246 C484.156753,33.8918033 485.83493,31.5060109 488.831676,31.5060109 C490.949376,31.5060109 492.387814,32.5978142 492.947207,34.4579235 L497.821913,33.7704918 C496.743084,29.3628415 493.626469,27.0174863 488.711806,27.0174863 C483.397577,27.0174863 479.12222,30.9398907 479.12222,37.2480874 C479.12222,43.273224 483.077924,47.5191257 488.991502,47.5191257 Z M505.773278,46.9125683 L505.773278,35.8327869 C505.773278,33.2448087 507.571325,31.5060109 509.768939,31.5060109 C511.806726,31.5060109 512.965467,32.8404372 512.965467,35.5092896 L512.965467,46.9125683 L518,46.9125683 L518,34.579235 C518,29.8480874 515.442777,27.0174863 511.327246,27.0174863 C508.92985,27.0174863 506.772193,28.3114754 505.773278,29.7672131 L505.773278,18.6065574 L500.738745,18.6065574 L500.738745,46.9125683 L505.773278,46.9125683 Z" id="ElasticWorkplaceSearch" fill="#FFFFFF" fill-rule="nonzero"></path>
    </g>
</svg>