<?xml version="1.0" encoding="UTF-8"?>
<svg width="279px" height="64px" viewBox="0 0 279 64" version="1.1" xmlns="http://www.w3.org/2000/svg" xmlns:xlink="http://www.w3.org/1999/xlink">
    <!-- Generator: Sketch 63.1 (92452) - https://sketch.com -->
    <title>ece-logo-color-horizontal</title>
    <desc>Created with Sketch.</desc>
    <defs>
        <polygon id="path-1" points="0.9296 0.477306077 43.07 0.477306077 43.07 18.9999 0.9296 18.9999"></polygon>
        <polygon id="path-3" points="0.9296 0.477306077 43.07 0.477306077 43.07 18.9999 0.9296 18.9999"></polygon>
    </defs>
    <g id="ece-logo-color-horizontal" stroke="none" stroke-width="1" fill="none" fill-rule="evenodd">
        <rect id="bounding-box" x="0" y="0" width="279" height="64"></rect>
        <g id="group" transform="translate(6.000000, 5.000000)">
            <g id="Group-3" transform="translate(5.000000, 35.000000)">
                <mask id="mask-2" fill="white">
                    <use xlink:href="#path-1"></use>
                </mask>
                <g id="Clip-2"></g>
                <path d="M32.5176,0.8779 C31.0096,0.2389 29.2716,0.3659 27.8926,1.2479 C26.1906,2.3359 24.1696,2.9689 21.9996,2.9689 C19.8296,2.9689 17.8096,2.3359 16.1076,1.2479 C14.7286,0.3659 12.9906,0.2389 11.4826,0.8779 C7.3316,2.6369 3.7116,5.4059 0.9296,8.8749 C5.8786,15.0449 13.4756,18.9999 21.9996,18.9999 C30.5246,18.9999 38.1216,15.0449 43.0706,8.8749 C40.2886,5.4059 36.6676,2.6369 32.5176,0.8779" id="Fill-1" fill="#1BA9F5" mask="url(#mask-2)"></path>
            </g>
            <g id="Group-6" transform="translate(5.000000, 35.000000)">
                <mask id="mask-4" fill="white">
                    <use xlink:href="#path-3"></use>
                </mask>
                <g id="Clip-5"></g>
                <path d="M32.5176,0.8779 C31.0096,0.2389 29.2716,0.3659 27.8926,1.2479 C26.1906,2.3359 24.1696,2.9689 21.9996,2.9689 C19.8296,2.9689 17.8096,2.3359 16.1076,1.2479 C14.7286,0.3659 12.9906,0.2389 11.4826,0.8779 C7.3316,2.6369 3.7116,5.4059 0.9296,8.8749 C5.8786,15.0449 13.4756,18.9999 21.9996,18.9999 C30.5246,18.9999 38.1216,15.0449 43.0706,8.8749 C40.2886,5.4059 36.6676,2.6369 32.5176,0.8779" id="Fill-4" fill="#1BA9F5" mask="url(#mask-4)"></path>
            </g>
            <path d="M27,0 C18.476,0 10.879,3.955 5.93,10.125 C8.712,13.594 12.332,16.363 16.482,18.122 C17.99,18.761 19.729,18.634 21.107,17.752 C22.81,16.664 24.83,16.031 27,16.031 C29.17,16.031 31.19,16.664 32.893,17.752 C34.271,18.634 36.01,18.761 37.518,18.122 C41.668,16.363 45.288,13.594 48.07,10.125 C43.121,3.955 35.524,0 27,0" id="Fill-7" fill="#0077CC"></path>
            <path d="M32.9063,27 C32.9063,30.262 30.2613,32.906 27.0003,32.906 C23.7383,32.906 21.0933,30.262 21.0933,27 C21.0933,23.738 23.7383,21.094 27.0003,21.094 C30.2613,21.094 32.9063,23.738 32.9063,27" id="Fill-9" fill="#343741"></path>
            <path d="M16.4824,18.1221 C12.3324,16.3631 8.7114,13.5941 5.9294,10.1251 C5.9294,10.1241 5.9304,10.1241 5.9304,10.1231 C2.2204,14.7451 0.0004,20.6121 0.0004,27.0001 C0.0004,31.5191 1.1164,35.7761 3.0794,39.5181 C6.2384,35.9631 10.1644,33.1251 14.5314,31.2741 C15.2224,30.9821 15.9364,30.7771 16.6654,30.6451 C16.2614,29.5031 16.0314,28.2801 16.0314,27.0001 C16.0314,22.9421 18.2404,19.4081 21.5154,17.5111 C21.3784,17.5901 21.2404,17.6671 21.1074,17.7521 C19.7284,18.6341 17.9904,18.7611 16.4824,18.1221" id="Fill-11" fill="#343741"></path>
        </g>
        <path d="M91.5263158,33.4657534 L91.5263158,29.1561644 L79.6315789,29.1561644 L79.6315789,23.1013699 L88.6140351,23.1013699 L88.6140351,18.7917808 L79.6315789,18.7917808 L79.6315789,12.8438356 L91.5263158,12.8438356 L91.5263158,8.53424658 L75,8.53424658 L75,33.4657534 L91.5263158,33.4657534 Z M99.9473684,33.4657534 L99.9473684,8.53424658 L95.5263158,8.53424658 L95.5263158,33.4657534 L99.9473684,33.4657534 Z M109.280702,33.9643836 C111.280702,33.9643836 113.280702,33.0739726 114.087719,31.7917808 L114.22807,31.7917808 L114.22807,33.4657534 L118.403509,33.4657534 L118.403509,22.709589 C118.403509,18.3643836 115.912281,15.9424658 111.45614,15.9424658 C107.631579,15.9424658 104.894737,17.7232877 103.912281,20.8219178 L108.333333,21.1780822 C108.719298,20.2520548 109.666667,19.5041096 111.175439,19.5041096 C112.964912,19.5041096 114.017544,20.5726027 114.017544,22.4246575 L114.017544,23.6712329 C113.45614,23.3506849 112.017544,23.030137 110.578947,23.030137 C106.122807,23.030137 103.421053,25.1315068 103.421053,28.6575342 C103.421053,31.7561644 105.842105,33.9643836 109.280702,33.9643836 Z M110.54386,30.4739726 C108.859649,30.4739726 107.877193,29.6191781 107.877193,28.3013699 C107.877193,26.9835616 109.035088,26.1287671 111.070175,26.1287671 C112.368421,26.1287671 113.596491,26.4493151 114.087719,26.8767123 L114.087719,27.9808219 C114.087719,29.2986301 112.438596,30.4739726 110.54386,30.4739726 Z M128.333333,34 C132.438596,34 135.210526,31.7561644 135.210526,28.3013699 C135.210526,21.4630137 126.263158,24.3835616 126.263158,21.0356164 C126.263158,20.0739726 127.035088,19.3260274 128.403509,19.3260274 C129.736842,19.3260274 130.789474,20.0739726 131,21.1780822 L135.105263,20.2876712 C134.403509,17.6876712 131.736842,15.9424658 128.298246,15.9424658 C124.473684,15.9424658 121.877193,18.1150685 121.877193,21.3561644 C121.877193,28.230137 130.824561,25.309589 130.824561,28.6219178 C130.824561,29.8684932 129.947368,30.6876712 128.438596,30.6876712 C126.894737,30.6876712 125.596491,29.8328767 125.245614,28.5150685 L121.175439,29.2986301 C122.087719,32.290411 124.719298,34 128.333333,34 Z M145.350877,33.8219178 C146.614035,33.8219178 147.631579,33.6082192 148.22807,33.3589041 L147.77193,29.7972603 C147.385965,29.9753425 146.894737,30.1178082 146.22807,30.1178082 C144.578947,30.1178082 143.736842,29.4054795 143.736842,27.1260274 L143.736842,20.2876712 L148.052632,20.2876712 L148.052632,16.4767123 L143.736842,16.4767123 L143.736842,11.0986301 L139.315789,11.9890411 L139.315789,16.4767123 L136.438596,16.4767123 L136.438596,20.2876712 L139.315789,20.2876712 L139.315789,27.8383562 C139.315789,32.3260274 141.842105,33.8219178 145.350877,33.8219178 Z M155.035088,12.8438356 L155.035088,8.53424658 L150.614035,8.53424658 L150.614035,12.8438356 L155.035088,12.8438356 Z M155.035088,33.4657534 L155.035088,16.4767123 L150.614035,16.4767123 L150.614035,33.4657534 L155.035088,33.4657534 Z M166.754386,34 C170.508772,34 173.280702,32.0410959 174.298246,28.5150685 L170.157895,27.4465753 C169.666667,29.0493151 168.473684,30.0821918 166.614035,30.0821918 C163.982456,30.0821918 162.508772,27.9452055 162.508772,24.9890411 C162.508772,21.9972603 163.982456,19.8958904 166.614035,19.8958904 C168.473684,19.8958904 169.736842,20.8575342 170.22807,22.4958904 L174.508772,21.890411 C173.561404,18.0082192 170.824561,15.9424658 166.508772,15.9424658 C161.842105,15.9424658 158.087719,19.3972603 158.087719,24.9534247 C158.087719,30.260274 161.561404,34 166.754386,34 Z M196.087719,34 C201.175439,34 205.035088,31.1506849 206.368421,26.3780822 L201.877193,25.2027397 C200.894737,27.9808219 198.754386,29.6191781 195.912281,29.6191781 C191.491228,29.6191781 188.508772,25.8082192 188.508772,21 C188.508772,16.2273973 191.45614,12.3808219 195.947368,12.3808219 C199.315789,12.3808219 201.210526,14.5534247 201.807018,16.5123288 L206.614035,15.7643836 C205.140351,10.8493151 201.210526,8 195.947368,8 C188.859649,8 183.77193,13.0575342 183.77193,21.0356164 C183.77193,28.9424658 189,34 196.087719,34 Z M214.017544,33.4657534 L214.017544,8.53424658 L209.596491,8.53424658 L209.596491,33.4657534 L214.017544,33.4657534 Z M225.912281,34 C230.719298,34 234.754386,30.6520548 234.754386,24.9890411 C234.754386,19.2547945 230.719298,15.9424658 225.912281,15.9424658 C221.105263,15.9424658 217.070175,19.2547945 217.070175,24.9890411 C217.070175,30.6876712 221.105263,34 225.912281,34 Z M225.912281,30.0821918 C223.315789,30.0821918 221.491228,28.0520548 221.491228,24.9890411 C221.491228,21.890411 223.315789,19.8958904 225.912281,19.8958904 C228.508772,19.8958904 230.298246,21.890411 230.298246,24.9890411 C230.298246,28.0520548 228.508772,30.0821918 225.912281,30.0821918 Z M243.421053,34 C245.736842,34 247.596491,32.860274 248.508772,31.3643836 L248.684211,31.3643836 L248.684211,33.4657534 L252.719298,33.4657534 L252.719298,16.4767123 L248.298246,16.4767123 L248.298246,26.2356164 C248.298246,28.5506849 246.754386,30.0821918 244.789474,30.0821918 C243.035088,30.0821918 241.982456,28.8712329 241.982456,26.5205479 L241.982456,16.4767123 L237.561404,16.4767123 L237.561404,27.3753425 C237.561404,31.5424658 239.807018,34 243.421053,34 Z M263.526316,34 C265.526316,34 267.736842,33.1808219 268.824561,31.0438356 L268.929825,31.0438356 L268.929825,33.4657534 L273,33.4657534 L273,8.53424658 L268.578947,8.53424658 L268.578947,18.5780822 C267.807018,17.1178082 266.052632,15.9424658 263.631579,15.9424658 C259.210526,15.9424658 255.736842,19.5753425 255.736842,24.9890411 C255.736842,30.3671233 259.070175,34 263.526316,34 Z M264.473684,30.0821918 C261.842105,30.0821918 260.192982,27.909589 260.192982,24.9890411 C260.192982,22.0684932 261.807018,19.8958904 264.473684,19.8958904 C267.140351,19.8958904 268.719298,21.9972603 268.719298,24.9890411 C268.719298,27.9452055 267.140351,30.0821918 264.473684,30.0821918 Z" id="ElasticCloud" fill="#343741" fill-rule="nonzero"></path>
        <path d="M80.457631,55.8888889 C82.5567198,55.8888889 84.0813212,54.8888889 84.9430524,53 L82.9323462,52.4 C82.4683371,53.3555556 81.6066059,53.8888889 80.4797267,53.8888889 C78.8004556,53.8888889 77.6514806,52.6888889 77.4305239,50.9333333 L85.3628702,50.9333333 L85.3628702,50.3333333 C85.3186788,46.7111111 83.0428246,44.7111111 80.1924829,44.7111111 C77.1211845,44.7111111 75,47.1333333 75,50.3333333 C75,53.5111111 77.2316629,55.8888889 80.457631,55.8888889 Z M82.8660592,49.2888889 L77.4526196,49.2888889 C77.7177677,47.5555556 78.7120729,46.5777778 80.2366743,46.5777778 C81.5845103,46.5777778 82.7555809,47.4222222 82.8660592,49.2888889 Z M89.8924829,55.5555556 L89.8924829,49.5111111 C89.8924829,47.9333333 90.9751708,46.8222222 92.3671982,46.8222222 C93.6045558,46.8222222 94.333713,47.6888889 94.333713,49.2888889 L94.333713,55.5555556 L96.7421412,55.5555556 L96.7421412,48.8222222 C96.7421412,46.2444444 95.3280182,44.7111111 93.0742597,44.7111111 C91.571754,44.7111111 90.3785877,45.4222222 89.7820046,46.4444444 L89.7378132,46.4444444 L89.7378132,45.0444444 L87.5061503,45.0444444 L87.5061503,55.5555556 L89.8924829,55.5555556 Z M103.746469,55.7777778 C104.519818,55.7777778 105.182688,55.6444444 105.536219,55.4666667 L105.271071,53.5333333 C105.028018,53.6666667 104.674487,53.7555556 104.210478,53.7555556 C103.083599,53.7555556 102.531207,53.2444444 102.531207,51.6888889 L102.531207,47.0888889 L105.42574,47.0888889 L105.42574,45.0444444 L102.531207,45.0444444 L102.531207,41.6888889 L100.122779,42.1555556 L100.122779,45.0444444 L98.2225513,45.0444444 L98.2225513,47.0888889 L100.122779,47.0888889 L100.122779,52.0888889 C100.122779,54.8222222 101.603189,55.7777778 103.746469,55.7777778 Z M112.010251,55.8888889 C114.109339,55.8888889 115.633941,54.8888889 116.495672,53 L114.484966,52.4 C114.020957,53.3555556 113.159226,53.8888889 112.032346,53.8888889 C110.353075,53.8888889 109.2041,52.6888889 108.983144,50.9333333 L116.91549,50.9333333 L116.91549,50.3333333 C116.871298,46.7111111 114.595444,44.7111111 111.745103,44.7111111 C108.673804,44.7111111 106.55262,47.1333333 106.55262,50.3333333 C106.55262,53.5111111 108.784282,55.8888889 112.010251,55.8888889 Z M114.418679,49.2888889 L109.005239,49.2888889 C109.270387,47.5555556 110.264692,46.5777778 111.789294,46.5777778 C113.13713,46.5777778 114.3082,47.4222222 114.418679,49.2888889 Z M121.445103,55.5555556 L121.445103,50.6444444 C121.445103,48.1777778 122.616173,47.1777778 124.207062,47.1777778 C124.494305,47.1777778 124.803645,47.2222222 125.002506,47.3111111 L125.002506,44.9777778 C124.82574,44.8888889 124.538497,44.8222222 124.184966,44.8222222 C122.947608,44.8222222 121.86492,45.5333333 121.334624,46.7333333 L121.290433,46.7333333 L121.290433,45.0444444 L119.05877,45.0444444 L119.05877,55.5555556 L121.445103,55.5555556 Z M129.068109,60 L129.068109,54.1777778 C129.620501,55.1555556 130.791572,55.8888889 132.338269,55.8888889 C135.144419,55.8888889 137.287699,53.6444444 137.287699,50.2888889 C137.287699,46.9555556 135.210706,44.7111111 132.404556,44.7111111 C131.012528,44.7111111 129.642597,45.2888889 128.935535,46.6444444 L128.869248,46.6444444 L128.869248,45.0444444 L126.659681,45.0444444 L126.659681,60 L129.068109,60 Z M131.918451,53.7777778 C130.106606,53.7777778 128.979727,52.3333333 128.979727,50.2888889 C128.979727,48.2666667 130.106606,46.8444444 131.918451,46.8444444 C133.7082,46.8444444 134.879271,48.3111111 134.879271,50.2888889 C134.879271,52.2444444 133.752392,53.7777778 131.918451,53.7777778 Z M141.861503,55.5555556 L141.861503,50.6444444 C141.861503,48.1777778 143.032574,47.1777778 144.623462,47.1777778 C144.910706,47.1777778 145.220046,47.2222222 145.418907,47.3111111 L145.418907,44.9777778 C145.242141,44.8888889 144.954897,44.8222222 144.601367,44.8222222 C143.364009,44.8222222 142.281321,45.5333333 141.751025,46.7333333 L141.706834,46.7333333 L141.706834,45.0444444 L139.475171,45.0444444 L139.475171,55.5555556 L141.861503,55.5555556 Z M149.48451,42.5555556 L149.48451,40 L147.076082,40 L147.076082,42.5555556 L149.48451,42.5555556 Z M149.48451,55.5555556 L149.48451,45.0444444 L147.076082,45.0444444 L147.076082,55.5555556 L149.48451,55.5555556 Z M156.024829,55.8888889 C158.499544,55.8888889 160.178815,54.5555556 160.178815,52.4222222 C160.178815,48.2222222 154.456036,50.0888889 154.456036,47.7777778 C154.456036,47.0888889 154.986333,46.5333333 156.024829,46.5333333 C156.974943,46.5333333 157.748292,47.0888889 157.85877,47.8666667 L160.090433,47.4 C159.714806,45.8 158.079727,44.7111111 155.958542,44.7111111 C153.638497,44.7111111 152.069704,46 152.069704,47.9555556 C152.069704,52.1555556 157.792483,50.2888889 157.792483,52.6 C157.792483,53.4888889 157.1959,54.0888889 156.091116,54.0888889 C155.008428,54.0888889 154.124601,53.5111111 153.859453,52.5777778 L151.671982,53.0222222 C152.180182,54.8222222 153.793166,55.8888889 156.024829,55.8888889 Z M167.094761,55.8888889 C169.19385,55.8888889 170.718451,54.8888889 171.580182,53 L169.569476,52.4 C169.105467,53.3555556 168.243736,53.8888889 167.116856,53.8888889 C165.437585,53.8888889 164.28861,52.6888889 164.067654,50.9333333 L172,50.9333333 L172,50.3333333 C171.955809,46.7111111 169.679954,44.7111111 166.829613,44.7111111 C163.758314,44.7111111 161.63713,47.1333333 161.63713,50.3333333 C161.63713,53.5111111 163.868793,55.8888889 167.094761,55.8888889 Z M169.503189,49.2888889 L164.089749,49.2888889 C164.354897,47.5555556 165.349203,46.5777778 166.873804,46.5777778 C168.22164,46.5777778 169.392711,47.4222222 169.503189,49.2888889 Z" id="enterprise" fill="#343741" fill-rule="nonzero"></path>
    </g>
</svg>