<?xml version="1.0" encoding="UTF-8"?>
<svg width="306px" height="64px" viewBox="0 0 306 64" version="1.1" xmlns="http://www.w3.org/2000/svg" xmlns:xlink="http://www.w3.org/1999/xlink">
    <!-- Generator: Sketch 63.1 (92452) - https://sketch.com -->
    <title>maps-logo-color-horizontal</title>
    <desc>Created with Sketch.</desc>
    <g id="maps-logo-color-horizontal" stroke="none" stroke-width="1" fill="none" fill-rule="evenodd">
        <rect id="bounding-box" x="0" y="0" width="306" height="64"></rect>
        <g id="group" transform="translate(6.000000, 5.000000)">
            <path d="M27.0002,35.3113 C27.0002,35.3113 34.3012,31.6273 39.0492,25.7853 L34.8222,22.6163 C30.1882,19.1393 23.8122,19.1393 19.1782,22.6163 L14.9512,25.7853 C19.6992,31.6273 27.0002,35.3113 27.0002,35.3113" id="Fill-1" fill="#343741"></path>
            <path d="M43.049,28.7859 C41.71,30.4629 40.116,32.1019 38.26,33.6839 C33.844,37.4499 29.432,39.6849 29.245,39.7789 L27,40.9079 L24.755,39.7789 C24.569,39.6849 20.156,37.4499 15.74,33.6839 C13.884,32.1019 12.29,30.4629 10.951,28.7859 L0,36.9989 L19.178,51.3819 C23.813,54.8589 30.188,54.8589 34.822,51.3819 L54,36.9989 L43.049,28.7859 Z" id="Fill-5" fill="#FA744E"></path>
            <path d="M19.1779,22.616 C23.8129,19.139 30.1879,19.139 34.8229,22.616 L39.0549,25.79 C41.3379,22.982 43.0319,19.675 43.0319,16.032 C43.0319,7.178 35.8539,-1.77635684e-14 26.9999,-1.77635684e-14 C18.1469,-1.77635684e-14 10.9689,7.178 10.9689,16.032 C10.9689,19.675 12.6619,22.982 14.9459,25.79 L19.1779,22.616 Z" id="Fill-8" fill="#1BA9F5"></path>
        </g>
        <path d="M98.8023952,46 L98.8023952,41.16 L85.2694611,41.16 L85.2694611,34.36 L95.489022,34.36 L95.489022,29.52 L85.2694611,29.52 L85.2694611,22.84 L98.8023952,22.84 L98.8023952,18 L80,18 L80,46 L98.8023952,46 Z M108.383234,46 L108.383234,18 L103.353293,18 L103.353293,46 L108.383234,46 Z M119.001996,46.56 C121.277445,46.56 123.552894,45.56 124.471058,44.12 L124.630739,44.12 L124.630739,46 L129.381238,46 L129.381238,33.92 C129.381238,29.04 126.546906,26.32 121.477046,26.32 C117.125749,26.32 114.011976,28.32 112.894212,31.8 L117.924152,32.2 C118.363273,31.16 119.441118,30.32 121.157685,30.32 C123.193613,30.32 124.391218,31.52 124.391218,33.6 L124.391218,35 C123.752495,34.64 122.115768,34.28 120.479042,34.28 C115.409182,34.28 112.335329,36.64 112.335329,40.6 C112.335329,44.08 115.08982,46.56 119.001996,46.56 Z M120.439122,42.64 C118.522954,42.64 117.40519,41.68 117.40519,40.2 C117.40519,38.72 118.722555,37.76 121.037924,37.76 C122.51497,37.76 123.912176,38.12 124.471058,38.6 L124.471058,39.84 C124.471058,41.32 122.59481,42.64 120.439122,42.64 Z M140.678643,46.6 C145.349301,46.6 148.502994,44.08 148.502994,40.2 C148.502994,32.52 138.323353,35.8 138.323353,32.04 C138.323353,30.96 139.201597,30.12 140.758483,30.12 C142.275449,30.12 143.473054,30.96 143.712575,32.2 L148.383234,31.2 C147.58483,28.28 144.550898,26.32 140.638723,26.32 C136.287425,26.32 133.333333,28.76 133.333333,32.4 C133.333333,40.12 143.512974,36.84 143.512974,40.56 C143.512974,41.96 142.51497,42.88 140.798403,42.88 C139.041916,42.88 137.56487,41.92 137.165669,40.44 L132.53493,41.32 C133.572854,44.68 136.566866,46.6 140.678643,46.6 Z M160.03992,46.4 C161.477046,46.4 162.634731,46.16 163.313373,45.88 L162.794411,41.88 C162.355289,42.08 161.796407,42.24 161.037924,42.24 C159.161677,42.24 158.203593,41.44 158.203593,38.88 L158.203593,31.2 L163.113772,31.2 L163.113772,26.92 L158.203593,26.92 L158.203593,20.88 L153.173653,21.88 L153.173653,26.92 L149.9002,26.92 L149.9002,31.2 L153.173653,31.2 L153.173653,39.68 C153.173653,44.72 156.047904,46.4 160.03992,46.4 Z M171.057884,22.84 L171.057884,18 L166.027944,18 L166.027944,22.84 L171.057884,22.84 Z M171.057884,46 L171.057884,26.92 L166.027944,26.92 L166.027944,46 L171.057884,46 Z M184.391218,46.6 C188.662675,46.6 191.816367,44.4 192.974052,40.44 L188.263473,39.24 C187.704591,41.04 186.347305,42.2 184.231537,42.2 C181.237525,42.2 179.560878,39.8 179.560878,36.48 C179.560878,33.12 181.237525,30.76 184.231537,30.76 C186.347305,30.76 187.784431,31.84 188.343313,33.68 L193.213573,33 C192.135729,28.64 189.021956,26.32 184.111776,26.32 C178.802395,26.32 174.530938,30.2 174.530938,36.44 C174.530938,42.4 178.483034,46.6 184.391218,46.6 Z M210.459082,46 L210.459082,24.76 L210.618762,24.76 L218.323353,46 L222.794411,46 L230.499002,24.76 L230.658683,24.76 L230.658683,46 L235.928144,46 L235.928144,18 L228.023952,18 L220.798403,37.92 L220.638723,37.92 L213.333333,18 L205.189621,18 L205.189621,46 L210.459082,46 Z M247.38523,46.56 C249.660679,46.56 251.936128,45.56 252.854291,44.12 L253.013972,44.12 L253.013972,46 L257.764471,46 L257.764471,33.92 C257.764471,29.04 254.93014,26.32 249.860279,26.32 C245.508982,26.32 242.39521,28.32 241.277445,31.8 L246.307385,32.2 C246.746507,31.16 247.824351,30.32 249.540918,30.32 C251.576846,30.32 252.774451,31.52 252.774451,33.6 L252.774451,35 C252.135729,34.64 250.499002,34.28 248.862275,34.28 C243.792415,34.28 240.718563,36.64 240.718563,40.6 C240.718563,44.08 243.473054,46.56 247.38523,46.56 Z M248.822355,42.64 C246.906188,42.64 245.788423,41.68 245.788423,40.2 C245.788423,38.72 247.105788,37.76 249.421158,37.76 C250.898204,37.76 252.295409,38.12 252.854291,38.6 L252.854291,39.84 C252.854291,41.32 250.978044,42.64 248.822355,42.64 Z M267.105788,54 L267.105788,43.64 C267.984032,45.28 269.98004,46.6 272.734531,46.6 C277.764471,46.6 281.716567,42.56 281.716567,36.48 C281.716567,30.4 277.924152,26.32 272.854291,26.32 C270.578842,26.32 268.063872,27.28 266.786427,29.68 L266.706587,29.68 L266.706587,26.92 L262.075848,26.92 L262.075848,54 L267.105788,54 Z M271.776447,42.2 C268.742515,42.2 266.906188,39.8 266.906188,36.48 C266.906188,33.12 268.742515,30.76 271.776447,30.76 C274.770459,30.76 276.646707,33.2 276.646707,36.48 C276.646707,39.72 274.810379,42.2 271.776447,42.2 Z M292.175649,46.6 C296.846307,46.6 300,44.08 300,40.2 C300,32.52 289.820359,35.8 289.820359,32.04 C289.820359,30.96 290.698603,30.12 292.255489,30.12 C293.772455,30.12 294.97006,30.96 295.209581,32.2 L299.88024,31.2 C299.081836,28.28 296.047904,26.32 292.135729,26.32 C287.784431,26.32 284.830339,28.76 284.830339,32.4 C284.830339,40.12 295.00998,36.84 295.00998,40.56 C295.00998,41.96 294.011976,42.88 292.295409,42.88 C290.538922,42.88 289.061876,41.92 288.662675,40.44 L284.031936,41.32 C285.06986,44.68 288.063872,46.6 292.175649,46.6 Z" id="ElasticMaps" fill="#343741" fill-rule="nonzero"></path>
    </g>
</svg>