<?xml version="1.0" encoding="UTF-8"?>
<svg width="444px" height="64px" viewBox="0 0 444 64" version="1.1" xmlns="http://www.w3.org/2000/svg" xmlns:xlink="http://www.w3.org/1999/xlink">
    <!-- Generator: Sketch 63.1 (92452) - https://sketch.com -->
    <title>observability-logo-color-horizontal</title>
    <desc>Created with Sketch.</desc>
    <g id="observability-logo-color-horizontal" stroke="none" stroke-width="1" fill="none" fill-rule="evenodd">
        <rect id="bounding-box" x="0" y="0" width="443" height="64"></rect>
        <g id="Group" transform="translate(6.000000, 6.000000)">
            <path d="M16,53 L11.0905758,53 C4.96601789,53 0,48.0201387 0,41.8785078 L0,26 L16,26 L16,53 Z" id="Fill-1" fill="#F04E98"></path>
            <polygon id="Fill-4" fill="#343741" points="16 53 32 53 32 13 16 13"></polygon>
            <path d="M53,53 L37,53 L37,0 L40.5080928,0.0405243037 C47.4281662,0.118678318 53,6.17995631 53,13.6277444 L53,36.9610595 L53,53 Z" id="Fill-6" fill="#0077CC"></path>
        </g>
        <path d="M97.8631191,46.9759036 L97.8631191,42.0722892 L84.2864793,42.0722892 L84.2864793,35.1829135 L94.5390451,35.1829135 L94.5390451,30.279299 L84.2864793,30.279299 L84.2864793,23.5115005 L97.8631191,23.5115005 L97.8631191,18.6078861 L79,18.6078861 L79,46.9759036 L97.8631191,46.9759036 Z M107.4749,46.9759036 L107.4749,18.6078861 L102.428715,18.6078861 L102.428715,46.9759036 L107.4749,46.9759036 Z M118.127956,47.543264 C120.410754,47.543264 122.693552,46.5301205 123.614681,45.0711939 L123.774877,45.0711939 L123.774877,46.9759036 L128.540718,46.9759036 L128.540718,34.7371303 C128.540718,29.7929901 125.697233,27.0372399 120.611,27.0372399 C116.245649,27.0372399 113.121821,29.0635268 112.000446,32.5892662 L117.046631,32.9945235 C117.487171,31.9408543 118.568496,31.0898138 120.290607,31.0898138 C122.33311,31.0898138 123.534583,32.305586 123.534583,34.4129244 L123.534583,35.8313253 C122.893797,35.4665936 121.251785,35.101862 119.609772,35.101862 C114.523539,35.101862 111.439759,37.4928806 111.439759,41.5049288 C111.439759,45.0306681 114.203146,47.543264 118.127956,47.543264 Z M119.569723,43.5717415 C117.647367,43.5717415 116.525993,42.5991238 116.525993,41.0996714 C116.525993,39.6002191 117.847613,38.6276013 120.17046,38.6276013 C121.652276,38.6276013 123.053994,38.992333 123.614681,39.4786418 L123.614681,40.7349398 C123.614681,42.2343921 121.732374,43.5717415 119.569723,43.5717415 Z M139.87461,47.5837897 C144.560353,47.5837897 147.72423,45.0306681 147.72423,41.0996714 C147.72423,33.3187295 137.511714,36.6418401 137.511714,32.8324206 C137.511714,31.7382256 138.392793,30.8871851 139.954708,30.8871851 C141.476573,30.8871851 142.678046,31.7382256 142.91834,32.9945235 L147.604083,31.9813801 C146.803101,29.0230011 143.759371,27.0372399 139.83456,27.0372399 C135.46921,27.0372399 132.505578,29.50931 132.505578,33.1971522 C132.505578,41.0186199 142.718095,37.6955093 142.718095,41.4644031 C142.718095,42.8828039 141.716867,43.8148959 139.994757,43.8148959 C138.232597,43.8148959 136.750781,42.8422782 136.35029,41.3428258 L131.704596,42.2343921 C132.745872,45.6385542 135.749554,47.5837897 139.87461,47.5837897 Z M159.298416,47.381161 C160.740183,47.381161 161.901606,47.1380066 162.582441,46.8543264 L162.061803,42.8017525 C161.621263,43.0043812 161.060576,43.1664841 160.299643,43.1664841 C158.417336,43.1664841 157.456158,42.3559693 157.456158,39.762322 L157.456158,31.9813801 L162.382195,31.9813801 L162.382195,27.645126 L157.456158,27.645126 L157.456158,21.5257393 L152.409973,22.5388828 L152.409973,27.645126 L149.125948,27.645126 L149.125948,31.9813801 L152.409973,31.9813801 L152.409973,40.5728368 C152.409973,45.67908 155.293507,47.381161 159.298416,47.381161 Z M170.351963,23.5115005 L170.351963,18.6078861 L165.305779,18.6078861 L165.305779,23.5115005 L170.351963,23.5115005 Z M170.351963,46.9759036 L170.351963,27.645126 L165.305779,27.645126 L165.305779,46.9759036 L170.351963,46.9759036 Z M183.728358,47.5837897 C188.01361,47.5837897 191.177488,45.354874 192.338911,41.3428258 L187.613119,40.1270537 C187.052432,41.9507119 185.690763,43.1259584 183.568162,43.1259584 C180.56448,43.1259584 178.882419,40.694414 178.882419,37.3307777 C178.882419,33.9266156 180.56448,31.5355969 183.568162,31.5355969 C185.690763,31.5355969 187.13253,32.6297919 187.693217,34.4939759 L192.579206,33.8050383 C191.49788,29.3877327 188.374052,27.0372399 183.448014,27.0372399 C178.121486,27.0372399 173.836234,30.9682366 173.836234,37.2902519 C173.836234,43.3285871 177.801093,47.5837897 183.728358,47.5837897 Z M217.369589,47.5837897 C225.499554,47.5837897 231.627064,41.4238773 231.627064,32.7918949 C231.627064,24.1599124 225.499554,18 217.369589,18 C209.279674,18 203.152164,24.1599124 203.152164,32.7918949 C203.152164,41.4238773 209.279674,47.5837897 217.369589,47.5837897 Z M217.369589,42.5991238 C212.403503,42.5991238 208.59884,38.5870756 208.59884,32.7918949 C208.59884,26.9967141 212.403503,22.9846659 217.369589,22.9846659 C222.375725,22.9846659 226.180388,26.9967141 226.180388,32.7918949 C226.180388,38.5870756 222.375725,42.5991238 217.369589,42.5991238 Z M246.525324,47.5837897 C251.571508,47.5837897 255.376171,43.4501643 255.376171,37.3307777 C255.376171,31.1303395 251.411312,27.0372399 246.365127,27.0372399 C243.60174,27.0372399 241.599286,28.415115 240.718206,30.1171961 L240.718206,18.6078861 L235.672021,18.6078861 L235.672021,46.9759036 L240.317715,46.9759036 L240.317715,44.3012048 L240.437863,44.3012048 C241.639335,46.6516977 244.242526,47.5837897 246.525324,47.5837897 Z M245.403949,43.1259584 C242.360219,43.1259584 240.517961,40.694414 240.517961,37.3307777 C240.517961,33.9266156 242.360219,31.5355969 245.403949,31.5355969 C248.44768,31.5355969 250.289938,34.007667 250.289938,37.3307777 C250.289938,40.5728368 248.44768,43.1259584 245.403949,43.1259584 Z M265.828983,47.5837897 C270.514726,47.5837897 273.678603,45.0306681 273.678603,41.0996714 C273.678603,33.3187295 263.466087,36.6418401 263.466087,32.8324206 C263.466087,31.7382256 264.347166,30.8871851 265.909081,30.8871851 C267.430946,30.8871851 268.632419,31.7382256 268.872713,32.9945235 L273.558456,31.9813801 C272.757474,29.0230011 269.713744,27.0372399 265.788934,27.0372399 C261.423583,27.0372399 258.459951,29.50931 258.459951,33.1971522 C258.459951,41.0186199 268.672468,37.6955093 268.672468,41.4644031 C268.672468,42.8828039 267.671241,43.8148959 265.94913,43.8148959 C264.18697,43.8148959 262.705154,42.8422782 262.304663,41.3428258 L257.658969,42.2343921 C258.700245,45.6385542 261.703927,47.5837897 265.828983,47.5837897 Z M286.053771,47.5837897 C289.978581,47.5837897 292.822066,45.7601314 294.424029,42.1938664 L290.218876,40.9780942 C289.417894,42.5180723 287.976127,43.4096386 286.09382,43.4096386 C283.45058,43.4096386 281.528224,41.5454545 281.047635,38.7491785 L295.184962,38.7491785 L295.184962,37.5334064 C295.144913,30.8871851 290.979808,27.0372399 285.573182,27.0372399 C279.96631,27.0372399 275.921352,31.4950712 275.921352,37.3713034 C275.921352,43.2880613 280.126506,47.5837897 286.053771,47.5837897 Z M289.938532,35.263965 L281.087684,35.263965 C281.608322,32.3866375 283.290384,30.9682366 285.65328,30.9682366 C287.896029,30.9682366 289.778336,32.3461117 289.938532,35.263965 Z M303.59527,46.9759036 L303.59527,38.3033954 C303.59527,33.7645126 305.677822,32.2650602 308.441209,32.2650602 C308.921798,32.2650602 309.482485,32.3461117 309.842927,32.5082147 L309.842927,27.6046002 C309.562584,27.4424973 309.041946,27.32092 308.40116,27.32092 C306.198461,27.32092 304.276104,28.577218 303.314926,30.7656079 L303.234828,30.7656079 L303.234828,27.645126 L298.549085,27.645126 L298.549085,46.9759036 L303.59527,46.9759036 Z M322.818831,47.0569551 L330.348059,27.645126 L325.341923,27.645126 L320.816377,40.694414 L320.65618,40.694414 L316.210732,27.645126 L310.683958,27.645126 L318.213186,47.0569551 L322.818831,47.0569551 Z M339.118809,47.543264 C341.401606,47.543264 343.684404,46.5301205 344.605533,45.0711939 L344.76573,45.0711939 L344.76573,46.9759036 L349.531571,46.9759036 L349.531571,34.7371303 C349.531571,29.7929901 346.688086,27.0372399 341.601852,27.0372399 C337.236502,27.0372399 334.112673,29.0635268 332.991299,32.5892662 L338.037483,32.9945235 C338.478023,31.9408543 339.559349,31.0898138 341.281459,31.0898138 C343.323963,31.0898138 344.525435,32.305586 344.525435,34.4129244 L344.525435,35.8313253 C343.88465,35.4665936 342.242637,35.101862 340.600625,35.101862 C335.514391,35.101862 332.430611,37.4928806 332.430611,41.5049288 C332.430611,45.0306681 335.193998,47.543264 339.118809,47.543264 Z M340.560576,43.5717415 C338.63822,43.5717415 337.516845,42.5991238 337.516845,41.0996714 C337.516845,39.6002191 338.838465,38.6276013 341.161312,38.6276013 C342.643128,38.6276013 344.044846,38.992333 344.605533,39.4786418 L344.605533,40.7349398 C344.605533,42.2343921 342.723226,43.5717415 340.560576,43.5717415 Z M364.710174,47.5837897 C369.756359,47.5837897 373.561022,43.4501643 373.561022,37.3307777 C373.561022,31.1303395 369.596162,27.0372399 364.549978,27.0372399 C361.786591,27.0372399 359.784137,28.415115 358.903057,30.1171961 L358.903057,18.6078861 L353.856872,18.6078861 L353.856872,46.9759036 L358.502566,46.9759036 L358.502566,44.3012048 L358.622713,44.3012048 C359.824186,46.6516977 362.427376,47.5837897 364.710174,47.5837897 Z M363.5888,43.1259584 C360.545069,43.1259584 358.702811,40.694414 358.702811,37.3307777 C358.702811,33.9266156 360.545069,31.5355969 363.5888,31.5355969 C366.63253,31.5355969 368.474788,34.007667 368.474788,37.3307777 C368.474788,40.5728368 366.63253,43.1259584 363.5888,43.1259584 Z M382.011379,23.5115005 L382.011379,18.6078861 L376.965194,18.6078861 L376.965194,23.5115005 L382.011379,23.5115005 Z M382.011379,46.9759036 L382.011379,27.645126 L376.965194,27.645126 L376.965194,46.9759036 L382.011379,46.9759036 Z M391.663208,46.9759036 L391.663208,18.6078861 L386.617024,18.6078861 L386.617024,46.9759036 L391.663208,46.9759036 Z M401.315038,23.5115005 L401.315038,18.6078861 L396.268853,18.6078861 L396.268853,23.5115005 L401.315038,23.5115005 Z M401.315038,46.9759036 L401.315038,27.645126 L396.268853,27.645126 L396.268853,46.9759036 L401.315038,46.9759036 Z M414.130745,47.381161 C415.572512,47.381161 416.733936,47.1380066 417.41477,46.8543264 L416.894132,42.8017525 C416.453592,43.0043812 415.892905,43.1664841 415.131972,43.1664841 C413.249665,43.1664841 412.288487,42.3559693 412.288487,39.762322 L412.288487,31.9813801 L417.214525,31.9813801 L417.214525,27.645126 L412.288487,27.645126 L412.288487,21.5257393 L407.242303,22.5388828 L407.242303,27.645126 L403.958278,27.645126 L403.958278,31.9813801 L407.242303,31.9813801 L407.242303,40.5728368 C407.242303,45.67908 410.125837,47.381161 414.130745,47.381161 Z M427.306894,55 L438,27.645126 L432.993864,27.645126 L428.548416,40.2486309 L423.662427,27.645126 L418.175703,27.645126 L425.825078,46.2059146 L422.340808,55 L427.306894,55 Z" id="ElasticObservability" fill="#343741" fill-rule="nonzero"></path>
    </g>
</svg>