<?xml version="1.0" encoding="UTF-8"?>
<svg width="349px" height="64px" viewBox="0 0 349 64" version="1.1" xmlns="http://www.w3.org/2000/svg" xmlns:xlink="http://www.w3.org/1999/xlink">
    <!-- Generator: Sketch 63.1 (92452) - https://sketch.com -->
    <title>analyze-logo-color-reverse-horizontal</title>
    <desc>Created with Sketch.</desc>
    <g id="analyze-logo-color-reverse-horizontal" stroke="none" stroke-width="1" fill="none" fill-rule="evenodd">
        <rect id="bounding-box" x="0" y="0" width="349" height="64"></rect>
        <g id="Group" transform="translate(6.000000, 6.000000)" fill-rule="nonzero">
            <path d="M16.2456463,45.3543219 L27.542587,29.2475022 L36.2116161,36.8446788 L48.1575064,20.3145828 C49.5911,23.1237909 50.3998525,26.3017917 50.3998525,29.6648965 C50.3998525,33.2041632 49.503509,36.5386749 47.9254072,39.4539844 L55,45.5034663 L49.159455,52 L42.2453396,46.0888154 C38.7623009,48.7457147 34.412707,50.3256866 29.6999263,50.3256866 C24.5677826,50.3256866 19.8663373,48.4520192 16.2456463,45.3543219 Z" id="Combined-Shape-path" fill="#1BA9F5"></path>
            <path d="M5.5655324,51.8528873 C2.38758424,51.1910553 -4.68958206e-13,48.3743527 -4.68958206e-13,45 L-4.68958206e-13,7 C-4.68958206e-13,3.13400675 3.13400675,1.0658141e-14 7,1.0658141e-14 L46,1.0658141e-14 C49.2857029,1.0658141e-14 52.0426715,2.26378053 52.7962921,5.3167279 L45.1460141,15.9209943 C41.3524575,11.6764955 35.8338138,9 29.6999263,9 C18.2845258,9 9,18.2699461 9,29.6648965 C9,34.1009803 10.4081451,38.2153965 12.8019036,41.5858851 L12.8019036,41.5858851 L5.5655324,51.8528873 Z" id="Combined-Shape" fill="#FEC514"></path>
            <path d="M12.8019036,41.5858851 C10.4081451,38.2153965 9,34.1009803 9,29.6648965 C9,18.2699461 18.2845258,9 29.6999263,9 C35.8338138,9 41.3524575,11.6764955 45.1460141,15.9209943 L35.5318185,29.2475022 L26.8495754,21.6549732 L12.8019036,41.5858851 Z" id="Combined-Shape" fill="#FFFFFF"></path>
        </g>
        <path d="M99.8745794,46.08 L99.8745794,41.24 L86.289691,41.24 L86.289691,34.44 L96.5484858,34.44 L96.5484858,29.6 L86.289691,29.6 L86.289691,22.92 L99.8745794,22.92 L99.8745794,18.08 L81,18.08 L81,46.08 L99.8745794,46.08 Z M109.492199,46.08 L109.492199,18.08 L104.442949,18.08 L104.442949,46.08 L109.492199,46.08 Z M120.151728,46.64 C122.435913,46.64 124.720098,45.64 125.641786,44.2 L125.80208,44.2 L125.80208,46.08 L130.570817,46.08 L130.570817,34 C130.570817,29.12 127.725604,26.4 122.63628,26.4 C118.268278,26.4 115.142551,28.4 114.020496,31.88 L119.069746,32.28 C119.510554,31.24 120.592536,30.4 122.315693,30.4 C124.359437,30.4 125.56164,31.6 125.56164,33.68 L125.56164,35.08 C124.920465,34.72 123.277455,34.36 121.634445,34.36 C116.545121,34.36 113.459468,36.72 113.459468,40.68 C113.459468,44.16 116.224533,46.64 120.151728,46.64 Z M121.594371,42.72 C119.670847,42.72 118.548792,41.76 118.548792,40.28 C118.548792,38.8 119.871214,37.84 122.195473,37.84 C123.678189,37.84 125.080759,38.2 125.641786,38.68 L125.641786,39.92 C125.641786,41.4 123.758336,42.72 121.594371,42.72 Z M141.911594,46.68 C146.600184,46.68 149.765983,44.16 149.765983,40.28 C149.765983,32.6 139.547262,35.88 139.547262,32.12 C139.547262,31.04 140.428877,30.2 141.991741,30.2 C143.51453,30.2 144.716733,31.04 144.957173,32.28 L149.645763,31.28 C148.844295,28.36 145.798715,26.4 141.87152,26.4 C137.503518,26.4 134.538085,28.84 134.538085,32.48 C134.538085,40.2 144.756806,36.92 144.756806,40.64 C144.756806,42.04 143.754971,42.96 142.031814,42.96 C140.268584,42.96 138.785867,42 138.385133,40.52 L133.736617,41.4 C134.778526,44.76 137.784032,46.68 141.911594,46.68 Z M161.347201,46.48 C162.789844,46.48 163.951973,46.24 164.633221,45.96 L164.112267,41.96 C163.671459,42.16 163.110431,42.32 162.349036,42.32 C160.465586,42.32 159.503824,41.52 159.503824,38.96 L159.503824,31.28 L164.432854,31.28 L164.432854,27 L159.503824,27 L159.503824,20.96 L154.454573,21.96 L154.454573,27 L151.168553,27 L151.168553,31.28 L154.454573,31.28 L154.454573,39.76 C154.454573,44.8 157.339859,46.48 161.347201,46.48 Z M172.407464,22.92 L172.407464,18.08 L167.358214,18.08 L167.358214,22.92 L172.407464,22.92 Z M172.407464,46.08 L172.407464,27 L167.358214,27 L167.358214,46.08 L172.407464,46.08 Z M185.791985,46.68 C190.079841,46.68 193.245641,44.48 194.40777,40.52 L189.679107,39.32 C189.118079,41.12 187.755583,42.28 185.631692,42.28 C182.626185,42.28 180.943102,39.88 180.943102,36.56 C180.943102,33.2 182.626185,30.84 185.631692,30.84 C187.755583,30.84 189.198226,31.92 189.759254,33.76 L194.64821,33.08 C193.566228,28.72 190.440502,26.4 185.511471,26.4 C180.181707,26.4 175.893851,30.28 175.893851,36.52 C175.893851,42.48 179.86112,46.68 185.791985,46.68 Z M209.675742,46.08 L211.919853,39.44 L222.659529,39.44 L224.90364,46.08 L230.634139,46.08 L220.295197,18 L214.404405,18 L204.065463,46.08 L209.675742,46.08 Z M221.096666,34.68 L213.562863,34.68 L217.209544,23.88 L217.369838,23.88 L221.096666,34.68 Z M238.528602,46.08 L238.528602,35.12 C238.528602,32.56 240.331906,30.84 242.535944,30.84 C244.579688,30.84 245.741817,32.16 245.741817,34.8 L245.741817,46.08 L250.791068,46.08 L250.791068,33.88 C250.791068,29.16 248.226369,26.4 244.098807,26.4 C241.453961,26.4 239.33007,27.68 238.248088,29.4 L238.167941,29.4 L238.167941,27 L233.479351,27 L233.479351,46.08 L238.528602,46.08 Z M261.170083,46.64 C263.454267,46.64 265.738452,45.64 266.660141,44.2 L266.820434,44.2 L266.820434,46.08 L271.589171,46.08 L271.589171,34 C271.589171,29.12 268.743958,26.4 263.654634,26.4 C259.286632,26.4 256.160905,28.4 255.03885,31.88 L260.0881,32.28 C260.528908,31.24 261.61089,30.4 263.334047,30.4 C265.377791,30.4 266.579994,31.6 266.579994,33.68 L266.579994,35.08 C265.938819,34.72 264.295809,34.36 262.652799,34.36 C257.563475,34.36 254.477822,36.72 254.477822,40.68 C254.477822,44.16 257.242888,46.64 261.170083,46.64 Z M262.612726,42.72 C260.689202,42.72 259.567146,41.76 259.567146,40.28 C259.567146,38.8 260.889569,37.84 263.213827,37.84 C264.696543,37.84 266.099113,38.2 266.660141,38.68 L266.660141,39.92 C266.660141,41.4 264.77669,42.72 262.612726,42.72 Z M280.926277,46.08 L280.926277,18.08 L275.877027,18.08 L275.877027,46.08 L280.926277,46.08 Z M292.707862,54 L303.407464,27 L298.398287,27 L293.950138,39.44 L289.061181,27 L283.571123,27 L291.225145,45.32 L287.738758,54 L292.707862,54 Z M321.440502,46.08 L321.440502,41.92 L311.582441,41.92 L320.959621,30.88 L320.959621,27 L306.252677,27 L306.252677,31.2 L314.988682,31.2 L305.611502,42.24 L305.611502,46.08 L321.440502,46.08 Z M333.863261,46.68 C337.790456,46.68 340.635668,44.88 342.238605,41.36 L338.030896,40.16 C337.229428,41.68 335.786785,42.56 333.903334,42.56 C331.258489,42.56 329.334965,40.72 328.854084,37.96 L343,37.96 L343,36.76 C342.959927,30.2 338.792291,26.4 333.38238,26.4 C327.772102,26.4 323.724686,30.8 323.724686,36.6 C323.724686,42.44 327.932395,46.68 333.863261,46.68 Z M337.750382,34.52 L328.894157,34.52 C329.415112,31.68 331.098195,30.28 333.462527,30.28 C335.706638,30.28 337.590089,31.64 337.750382,34.52 Z" id="ElasticAnalyze" fill="#FFFFFF" fill-rule="nonzero"></path>
    </g>
</svg>