<?xml version="1.0" encoding="UTF-8"?>
<svg width="303px" height="64px" viewBox="0 0 303 64" version="1.1" xmlns="http://www.w3.org/2000/svg" xmlns:xlink="http://www.w3.org/1999/xlink">
    <!-- Generator: Sketch 63.1 (92452) - https://sketch.com -->
    <title>siem-logo-color-reversed-horizontal</title>
    <desc>Created with Sketch.</desc>
    <g id="siem-logo-color-reversed-horizontal" stroke="none" stroke-width="1" fill="none" fill-rule="evenodd">
        <rect id="bounding-box" x="0" y="0" width="303" height="64"></rect>
        <g id="group" transform="translate(6.000000, 5.000000)">
            <path d="M18,19 L18,37 L36,37 C36,27.059 27.941,19 18,19" id="Fill-1" fill="#FFFFFF"></path>
            <path d="M18,19 C8.059,19 0,27.059 0,37 C0,46.941 8.059,55 18,55 L18,37 L18,19 Z" id="Fill-3" fill="#00BFB3"></path>
            <path d="M18,0 L18,14 C30.683,14 41,24.318 41,37 L55,37 C55,16.565 38.435,0 18,0" id="Fill-5" fill="#F04E98"></path>
        </g>
        <path d="M99.8679525,46.4041096 L99.8679525,41.5972603 L86.2878338,41.5972603 L86.2878338,34.8438356 L96.5430267,34.8438356 L96.5430267,30.0369863 L86.2878338,30.0369863 L86.2878338,23.4027397 L99.8679525,23.4027397 L99.8679525,18.5958904 L81,18.5958904 L81,46.4041096 L99.8679525,46.4041096 Z M109.482196,46.4041096 L109.482196,18.5958904 L104.434718,18.5958904 L104.434718,46.4041096 L109.482196,46.4041096 Z M120.137982,46.960274 C122.421365,46.960274 124.704748,45.9671233 125.626113,44.5369863 L125.78635,44.5369863 L125.78635,46.4041096 L130.553412,46.4041096 L130.553412,34.4068493 C130.553412,29.560274 127.709199,26.8589041 122.621662,26.8589041 C118.255193,26.8589041 115.130564,28.8452055 114.008902,32.3013699 L119.05638,32.6986301 C119.497033,31.6657534 120.578635,30.8315068 122.301187,30.8315068 C124.344214,30.8315068 125.545994,32.0232877 125.545994,34.0890411 L125.545994,35.4794521 C124.905045,35.1219178 123.262611,34.7643836 121.620178,34.7643836 C116.532641,34.7643836 113.448071,37.1082192 113.448071,41.0410959 C113.448071,44.4972603 116.212166,46.960274 120.137982,46.960274 Z M121.580119,43.0671233 C119.65727,43.0671233 118.535608,42.1136986 118.535608,40.6438356 C118.535608,39.1739726 119.857567,38.2205479 122.181009,38.2205479 C123.663205,38.2205479 125.065282,38.5780822 125.626113,39.0547945 L125.626113,40.2863014 C125.626113,41.7561644 123.743323,43.0671233 121.580119,43.0671233 Z M141.890208,47 C146.577151,47 149.74184,44.4972603 149.74184,40.6438356 C149.74184,33.0164384 139.526706,36.2739726 139.526706,32.539726 C139.526706,31.4671233 140.408012,30.6328767 141.970326,30.6328767 C143.492582,30.6328767 144.694362,31.4671233 144.934718,32.6986301 L149.621662,31.7054795 C148.820475,28.8054795 145.775964,26.8589041 141.850148,26.8589041 C137.48368,26.8589041 134.519288,29.2821918 134.519288,32.8972603 C134.519288,40.5643836 144.734421,37.3068493 144.734421,41.0013699 C144.734421,42.3917808 143.732938,43.3054795 142.010386,43.3054795 C140.247774,43.3054795 138.765579,42.3520548 138.364985,40.8821918 L133.718101,41.7561644 C134.759644,45.0931507 137.764095,47 141.890208,47 Z M161.318991,46.8013699 C162.761128,46.8013699 163.922849,46.5630137 164.603858,46.2849315 L164.083086,42.3123288 C163.642433,42.5109589 163.081602,42.669863 162.320475,42.669863 C160.437685,42.669863 159.476261,41.8753425 159.476261,39.3328767 L159.476261,31.7054795 L164.403561,31.7054795 L164.403561,27.4547945 L159.476261,27.4547945 L159.476261,21.4561644 L154.428783,22.4493151 L154.428783,27.4547945 L151.143917,27.4547945 L151.143917,31.7054795 L154.428783,31.7054795 L154.428783,40.1273973 C154.428783,45.1328767 157.313056,46.8013699 161.318991,46.8013699 Z M172.375371,23.4027397 L172.375371,18.5958904 L167.327893,18.5958904 L167.327893,23.4027397 L172.375371,23.4027397 Z M172.375371,46.4041096 L172.375371,27.4547945 L167.327893,27.4547945 L167.327893,46.4041096 L172.375371,46.4041096 Z M185.755193,47 C190.041543,47 193.206231,44.8150685 194.367953,40.8821918 L189.64095,39.690411 C189.080119,41.4780822 187.718101,42.630137 185.594955,42.630137 C182.590504,42.630137 180.908012,40.2465753 180.908012,36.9493151 C180.908012,33.6123288 182.590504,31.2684932 185.594955,31.2684932 C187.718101,31.2684932 189.160237,32.3410959 189.721068,34.1684932 L194.608309,33.4931507 C193.526706,29.1630137 190.402077,26.8589041 185.474777,26.8589041 C180.146884,26.8589041 175.860534,30.7123288 175.860534,36.909589 C175.860534,42.8287671 179.826409,47 185.755193,47 Z M215.439169,47 C221.52819,47 225.574184,43.4643836 225.574184,38.1808219 C225.574184,27.5342466 211.513353,31.9041096 211.513353,25.9054795 C211.513353,23.8 213.155786,22.6082192 215.559347,22.6082192 C218.203264,22.6082192 219.925816,24.0780822 220.366469,26.4219178 L225.494065,25.5082192 C224.732938,21.0191781 221.047478,18 215.719585,18 C210.111276,18 206.145401,21.4164384 206.145401,26.3424658 C206.145401,37.0287671 220.206231,32.6191781 220.206231,38.7767123 C220.206231,40.9616438 218.403561,42.4315068 215.639466,42.4315068 C212.995549,42.4315068 210.672107,41.0410959 210.191395,38.6575342 L205.063798,39.730137 C205.905045,44.2589041 210.271513,47 215.439169,47 Z M235.548961,46.4041096 L235.548961,18.5958904 L230.261128,18.5958904 L230.261128,46.4041096 L235.548961,46.4041096 Z M260.706231,46.4041096 L260.706231,41.5972603 L247.126113,41.5972603 L247.126113,34.8438356 L257.381306,34.8438356 L257.381306,30.0369863 L247.126113,30.0369863 L247.126113,23.4027397 L260.706231,23.4027397 L260.706231,18.5958904 L241.838279,18.5958904 L241.838279,46.4041096 L260.706231,46.4041096 Z M271.442136,46.4041096 L271.442136,25.309589 L271.602374,25.309589 L279.333828,46.4041096 L283.820475,46.4041096 L291.551929,25.309589 L291.712166,25.309589 L291.712166,46.4041096 L297,46.4041096 L297,18.5958904 L289.068249,18.5958904 L281.817507,38.3794521 L281.65727,38.3794521 L274.326409,18.5958904 L266.154303,18.5958904 L266.154303,46.4041096 L271.442136,46.4041096 Z" id="ElasticSIEM" fill="#FFFFFF" fill-rule="nonzero"></path>
    </g>
</svg>