<?xml version="1.0" encoding="UTF-8"?>
<svg width="518px" height="64px" viewBox="0 0 518 64" version="1.1" xmlns="http://www.w3.org/2000/svg" xmlns:xlink="http://www.w3.org/1999/xlink">
    <!-- Generator: Sketch 63.1 (92452) - https://sketch.com -->
    <title>enterprise-search-logo-color-horizontal</title>
    <desc>Created with Sketch.</desc>
    <g id="enterprise-search-logo-color-horizontal" stroke="none" stroke-width="1" fill="none" fill-rule="evenodd">
        <rect id="bounding-box" x="0" y="0" width="518" height="64"></rect>
        <g id="group" transform="translate(6.000000, 5.000000)">
            <path d="M27,13 L23.066,13 C25.557,17.081 27,21.867 27,27 C27,32.133 25.556,36.919 23.066,41 L27,41 C34.732,41 41,34.732 41,27 C41,19.268 34.732,13 27,13" id="Fill-1" fill="#343741"></path>
            <path d="M27,0 C22.076,0 17.475,1.339 13.5,3.642 C17.42,5.912 20.711,9.14 23.066,13 L27,13 C34.732,13 41,19.268 41,27 C41,34.732 34.732,41 27,41 L23.066,41 C20.71,44.86 17.42,48.088 13.5,50.358 C17.475,52.661 22.076,54 27,54 C41.912,54 54,41.912 54,27 C54,12.088 41.912,0 27,0" id="Fill-3" fill="#00BFB3"></path>
            <path d="M14,41 L16.92,41 C20.142,37.107 22,32.17 22,27 C22,21.83 20.142,16.893 16.921,13 L14,13 C6.268,13 0,19.268 0,27 C0,34.732 6.268,41 14,41" id="Fill-5" fill="#FEC514"></path>
        </g>
        <path d="M98.8260548,46.9125683 L98.8260548,42.0196721 L85.2760918,42.0196721 L85.2760918,35.1453552 L95.5085122,35.1453552 L95.5085122,30.252459 L85.2760918,30.252459 L85.2760918,23.4994536 L98.8260548,23.4994536 L98.8260548,18.6065574 L80,18.6065574 L80,46.9125683 L98.8260548,46.9125683 Z M108.418949,46.9125683 L108.418949,18.6065574 L103.382679,18.6065574 L103.382679,46.9125683 L108.418949,46.9125683 Z M119.051073,47.4786885 C121.329386,47.4786885 123.607698,46.4677596 124.527017,45.0120219 L124.686899,45.0120219 L124.686899,46.9125683 L129.443375,46.9125683 L129.443375,34.7005464 C129.443375,29.7672131 126.605477,27.0174863 121.529238,27.0174863 C117.172465,27.0174863 114.054774,29.0393443 112.935603,32.557377 L117.971873,32.9617486 C118.411547,31.9103825 119.490748,31.0612022 121.209474,31.0612022 C123.247964,31.0612022 124.447076,32.2743169 124.447076,34.3770492 L124.447076,35.7923497 C123.80755,35.4284153 122.168764,35.0644809 120.529978,35.0644809 C115.453738,35.0644809 112.376018,37.4502732 112.376018,41.4535519 C112.376018,44.9715847 115.133975,47.4786885 119.051073,47.4786885 Z M120.490007,43.515847 C118.571429,43.515847 117.452258,42.5453552 117.452258,41.0491803 C117.452258,39.5530055 118.771281,38.5825137 121.089563,38.5825137 C122.568468,38.5825137 123.967432,38.9464481 124.527017,39.431694 L124.527017,40.6852459 C124.527017,42.1814208 122.648409,43.515847 120.490007,43.515847 Z M140.754996,47.5191257 C145.431532,47.5191257 148.589193,44.9715847 148.589193,41.0491803 C148.589193,33.2852459 138.396743,36.6010929 138.396743,32.8 C138.396743,31.7081967 139.276092,30.8590164 140.834937,30.8590164 C142.353812,30.8590164 143.552924,31.7081967 143.792746,32.9617486 L148.469282,31.9508197 C147.669874,28.9989071 144.632124,27.0174863 140.715026,27.0174863 C136.358253,27.0174863 133.400444,29.484153 133.400444,33.1639344 C133.400444,40.968306 143.592894,37.652459 143.592894,41.4131148 C143.592894,42.8284153 142.593634,43.7584699 140.874907,43.7584699 C139.11621,43.7584699 137.637306,42.7879781 137.237602,41.2918033 L132.601036,42.1814208 C133.640266,45.5781421 136.638046,47.5191257 140.754996,47.5191257 Z M160.140637,47.3169399 C161.579571,47.3169399 162.738712,47.0743169 163.418209,46.7912568 L162.898594,42.747541 C162.458919,42.9497268 161.899334,43.1114754 161.139896,43.1114754 C159.261288,43.1114754 158.301999,42.3027322 158.301999,39.7147541 L158.301999,31.9508197 L163.218357,31.9508197 L163.218357,27.6240437 L158.301999,27.6240437 L158.301999,21.5180328 L153.265729,22.5289617 L153.265729,27.6240437 L149.988157,27.6240437 L149.988157,31.9508197 L153.265729,31.9508197 L153.265729,40.5234973 C153.265729,45.6185792 156.143597,47.3169399 160.140637,47.3169399 Z M171.172465,23.4994536 L171.172465,18.6065574 L166.136195,18.6065574 L166.136195,23.4994536 L171.172465,23.4994536 Z M171.172465,46.9125683 L171.172465,27.6240437 L166.136195,27.6240437 L166.136195,46.9125683 L171.172465,46.9125683 Z M184.522576,47.5191257 C188.799408,47.5191257 191.957069,45.295082 193.11621,41.2918033 L188.399704,40.0786885 C187.840118,41.8983607 186.481125,43.0710383 184.362694,43.0710383 C181.364915,43.0710383 179.686158,40.6448087 179.686158,37.2885246 C179.686158,33.8918033 181.364915,31.5060109 184.362694,31.5060109 C186.481125,31.5060109 187.920059,32.5978142 188.479645,34.4579235 L193.356033,33.7704918 C192.276832,29.3628415 189.159141,27.0174863 184.242783,27.0174863 C178.926721,27.0174863 174.649889,30.9398907 174.649889,37.2480874 C174.649889,43.273224 178.606958,47.5191257 184.522576,47.5191257 Z M224.173205,46.9125683 L224.173205,42.0196721 L210.623242,42.0196721 L210.623242,35.1453552 L220.855662,35.1453552 L220.855662,30.252459 L210.623242,30.252459 L210.623242,23.4994536 L224.173205,23.4994536 L224.173205,18.6065574 L205.34715,18.6065574 L205.34715,46.9125683 L224.173205,46.9125683 Z M233.766099,46.9125683 L233.766099,35.8327869 C233.766099,33.2448087 235.564767,31.5060109 237.763138,31.5060109 C239.801628,31.5060109 240.96077,32.8404372 240.96077,35.5092896 L240.96077,46.9125683 L245.997039,46.9125683 L245.997039,34.579235 C245.997039,29.8076503 243.438934,27.0174863 239.321984,27.0174863 C236.683938,27.0174863 234.565507,28.3114754 233.486306,30.0502732 L233.406366,30.0502732 L233.406366,27.6240437 L228.72983,27.6240437 L228.72983,46.9125683 L233.766099,46.9125683 Z M258.507772,47.3169399 C259.946706,47.3169399 261.105848,47.0743169 261.785344,46.7912568 L261.265729,42.747541 C260.826055,42.9497268 260.266469,43.1114754 259.507032,43.1114754 C257.628423,43.1114754 256.669134,42.3027322 256.669134,39.7147541 L256.669134,31.9508197 L261.585492,31.9508197 L261.585492,27.6240437 L256.669134,27.6240437 L256.669134,21.5180328 L251.632865,22.5289617 L251.632865,27.6240437 L248.355292,27.6240437 L248.355292,31.9508197 L251.632865,31.9508197 L251.632865,40.5234973 C251.632865,45.6185792 254.510733,47.3169399 258.507772,47.3169399 Z M273.496669,47.5191257 C277.413768,47.5191257 280.251665,45.6994536 281.850481,42.1409836 L277.65359,40.9278689 C276.854182,42.4644809 275.415248,43.3540984 273.53664,43.3540984 C270.898594,43.3540984 268.980015,41.4939891 268.50037,38.7038251 L282.609919,38.7038251 L282.609919,37.4907104 C282.569948,30.8590164 278.413027,27.0174863 273.017024,27.0174863 C267.42117,27.0174863 263.38416,31.4655738 263.38416,37.3289617 C263.38416,43.2327869 267.581051,47.5191257 273.496669,47.5191257 Z M277.373797,35.2262295 L268.54034,35.2262295 C269.059956,32.3551913 270.738712,30.9398907 273.096965,30.9398907 C275.335307,30.9398907 277.213916,32.3147541 277.373797,35.2262295 Z M291.003701,46.9125683 L291.003701,38.2590164 C291.003701,33.7300546 293.082161,32.2338798 295.840118,32.2338798 C296.319763,32.2338798 296.879349,32.3147541 297.239082,32.4765027 L297.239082,27.5836066 C296.959289,27.4218579 296.439674,27.3005464 295.800148,27.3005464 C293.601776,27.3005464 291.683198,28.5540984 290.723908,30.7377049 L290.643967,30.7377049 L290.643967,27.6240437 L285.967432,27.6240437 L285.967432,46.9125683 L291.003701,46.9125683 Z M304.993338,55 L304.993338,44.526776 C305.872687,46.1846995 307.871207,47.5191257 310.629164,47.5191257 C315.665433,47.5191257 319.622502,43.4349727 319.622502,37.2885246 C319.622502,31.1420765 315.825315,27.0174863 310.749075,27.0174863 C308.470762,27.0174863 305.952628,27.9879781 304.673575,30.4142077 L304.593634,30.4142077 L304.593634,27.6240437 L299.957069,27.6240437 L299.957069,55 L304.993338,55 Z M309.669874,43.0710383 C306.632124,43.0710383 304.793486,40.6448087 304.793486,37.2885246 C304.793486,33.8918033 306.632124,31.5060109 309.669874,31.5060109 C312.667654,31.5060109 314.546262,33.9726776 314.546262,37.2885246 C314.546262,40.5639344 312.707624,43.0710383 309.669874,43.0710383 Z M328.096225,46.9125683 L328.096225,38.2590164 C328.096225,33.7300546 330.174685,32.2338798 332.932642,32.2338798 C333.412287,32.2338798 333.971873,32.3147541 334.331606,32.4765027 L334.331606,27.5836066 C334.051813,27.4218579 333.532198,27.3005464 332.892672,27.3005464 C330.694301,27.3005464 328.775722,28.5540984 327.816432,30.7377049 L327.736491,30.7377049 L327.736491,27.6240437 L323.059956,27.6240437 L323.059956,46.9125683 L328.096225,46.9125683 Z M342.045892,23.4994536 L342.045892,18.6065574 L337.009623,18.6065574 L337.009623,23.4994536 L342.045892,23.4994536 Z M342.045892,46.9125683 L342.045892,27.6240437 L337.009623,27.6240437 L337.009623,46.9125683 L342.045892,46.9125683 Z M353.677276,47.5191257 C358.353812,47.5191257 361.511473,44.9715847 361.511473,41.0491803 C361.511473,33.2852459 351.319023,36.6010929 351.319023,32.8 C351.319023,31.7081967 352.198372,30.8590164 353.757217,30.8590164 C355.276092,30.8590164 356.475204,31.7081967 356.715026,32.9617486 L361.391562,31.9508197 C360.592154,28.9989071 357.554404,27.0174863 353.637306,27.0174863 C349.280533,27.0174863 346.322724,29.484153 346.322724,33.1639344 C346.322724,40.968306 356.515174,37.652459 356.515174,41.4131148 C356.515174,42.8284153 355.515914,43.7584699 353.797187,43.7584699 C352.03849,43.7584699 350.559585,42.7879781 350.159882,41.2918033 L345.523316,42.1814208 C346.562546,45.5781421 349.560326,47.5191257 353.677276,47.5191257 Z M373.862324,47.5191257 C377.779423,47.5191257 380.617321,45.6994536 382.216136,42.1409836 L378.019245,40.9278689 C377.219837,42.4644809 375.780903,43.3540984 373.902295,43.3540984 C371.264249,43.3540984 369.34567,41.4939891 368.866025,38.7038251 L382.975574,38.7038251 L382.975574,37.4907104 C382.935603,30.8590164 378.778682,27.0174863 373.382679,27.0174863 C367.786825,27.0174863 363.749815,31.4655738 363.749815,37.3289617 C363.749815,43.2327869 367.946706,47.5191257 373.862324,47.5191257 Z M377.739452,35.2262295 L368.905996,35.2262295 C369.425611,32.3551913 371.104367,30.9398907 373.46262,30.9398907 C375.700962,30.9398907 377.579571,32.3147541 377.739452,35.2262295 Z M404.199852,47.5191257 C410.275352,47.5191257 414.312361,43.9202186 414.312361,38.5420765 C414.312361,27.704918 400.282754,32.1530055 400.282754,26.0469945 C400.282754,23.9038251 401.92154,22.6907104 404.319763,22.6907104 C406.957809,22.6907104 408.676536,24.1868852 409.11621,26.5726776 L414.23242,25.642623 C413.472983,21.073224 409.795707,18 404.479645,18 C398.88379,18 394.926721,21.4775956 394.926721,26.4918033 C394.926721,37.3693989 408.956329,32.8808743 408.956329,39.1486339 C408.956329,41.3726776 407.157661,42.8688525 404.399704,42.8688525 C401.761658,42.8688525 399.443375,41.4535519 398.963731,39.0273224 L393.84752,40.1191257 C394.686899,44.7289617 399.043671,47.5191257 404.199852,47.5191257 Z M427.102887,47.5191257 C431.019985,47.5191257 433.857883,45.6994536 435.456699,42.1409836 L431.259808,40.9278689 C430.4604,42.4644809 429.021466,43.3540984 427.142857,43.3540984 C424.504811,43.3540984 422.586232,41.4939891 422.106588,38.7038251 L436.216136,38.7038251 L436.216136,37.4907104 C436.176166,30.8590164 432.019245,27.0174863 426.623242,27.0174863 C421.027387,27.0174863 416.990377,31.4655738 416.990377,37.3289617 C416.990377,43.2327869 421.187269,47.5191257 427.102887,47.5191257 Z M430.980015,35.2262295 L422.146558,35.2262295 C422.666173,32.3551913 424.34493,30.9398907 426.703183,30.9398907 C428.941525,30.9398907 430.820133,32.3147541 430.980015,35.2262295 Z M445.609178,47.4786885 C447.887491,47.4786885 450.165803,46.4677596 451.085122,45.0120219 L451.245004,45.0120219 L451.245004,46.9125683 L456.00148,46.9125683 L456.00148,34.7005464 C456.00148,29.7672131 453.163583,27.0174863 448.087343,27.0174863 C443.73057,27.0174863 440.612879,29.0393443 439.493708,32.557377 L444.529978,32.9617486 C444.969652,31.9103825 446.048853,31.0612022 447.76758,31.0612022 C449.80607,31.0612022 451.005181,32.2743169 451.005181,34.3770492 L451.005181,35.7923497 C450.365655,35.4284153 448.726869,35.0644809 447.088083,35.0644809 C442.011843,35.0644809 438.934123,37.4502732 438.934123,41.4535519 C438.934123,44.9715847 441.69208,47.4786885 445.609178,47.4786885 Z M447.048113,43.515847 C445.129534,43.515847 444.010363,42.5453552 444.010363,41.0491803 C444.010363,39.5530055 445.329386,38.5825137 447.647668,38.5825137 C449.126573,38.5825137 450.525537,38.9464481 451.085122,39.431694 L451.085122,40.6852459 C451.085122,42.1814208 449.206514,43.515847 447.048113,43.515847 Z M465.314582,46.9125683 L465.314582,38.2590164 C465.314582,33.7300546 467.393042,32.2338798 470.150999,32.2338798 C470.630644,32.2338798 471.190229,32.3147541 471.549963,32.4765027 L471.549963,27.5836066 C471.27017,27.4218579 470.750555,27.3005464 470.111029,27.3005464 C467.912657,27.3005464 465.994078,28.5540984 465.034789,30.7377049 L464.954848,30.7377049 L464.954848,27.6240437 L460.278312,27.6240437 L460.278312,46.9125683 L465.314582,46.9125683 Z M482.981495,47.5191257 C487.258327,47.5191257 490.415988,45.295082 491.57513,41.2918033 L486.858623,40.0786885 C486.299038,41.8983607 484.940044,43.0710383 482.821614,43.0710383 C479.823834,43.0710383 478.145078,40.6448087 478.145078,37.2885246 C478.145078,33.8918033 479.823834,31.5060109 482.821614,31.5060109 C484.940044,31.5060109 486.378979,32.5978142 486.938564,34.4579235 L491.814952,33.7704918 C490.735751,29.3628415 487.618061,27.0174863 482.701702,27.0174863 C477.38564,27.0174863 473.108808,30.9398907 473.108808,37.2480874 C473.108808,43.273224 477.065877,47.5191257 482.981495,47.5191257 Z M499.76906,46.9125683 L499.76906,35.8327869 C499.76906,33.2448087 501.567728,31.5060109 503.766099,31.5060109 C505.804589,31.5060109 506.963731,32.8404372 506.963731,35.5092896 L506.963731,46.9125683 L512,46.9125683 L512,34.579235 C512,29.8480874 509.441895,27.0174863 505.324944,27.0174863 C502.926721,27.0174863 500.76832,28.3114754 499.76906,29.7672131 L499.76906,18.6065574 L494.732791,18.6065574 L494.732791,46.9125683 L499.76906,46.9125683 Z" id="ElasticEnterpriseSearch" fill="#343741" fill-rule="nonzero"></path>
    </g>
</svg>