<?xml version="1.0" encoding="UTF-8"?>
<svg width="286px" height="64px" viewBox="0 0 286 64" version="1.1" xmlns="http://www.w3.org/2000/svg" xmlns:xlink="http://www.w3.org/1999/xlink">
    <!-- Generator: Sketch 63.1 (92452) - https://sketch.com -->
    <title>logging-logo-color-horizontal</title>
    <desc>Created with Sketch.</desc>
    <g id="logging-logo-color-horizontal" stroke="none" stroke-width="1" fill="none" fill-rule="evenodd">
        <rect id="bounding-box" x="0" y="0" width="286" height="64"></rect>
        <g id="group" transform="translate(6.000000, 5.000000)">
            <path d="M21,23.5415 L21,53.9995 L37,53.9995 C37,41.3665 30.664,30.2165 21,23.5415" id="Fill-1" fill="#343741"></path>
            <path d="M0,17 L0,38 C8.837,38 16,45.164 16,54 L21,54 L21,23.542 C15.033,19.42 7.801,17 0,17" id="Fill-3" fill="#0077CC"></path>
            <path d="M21,0 L21,17.65 C33.541,24.924 42,38.488 42,54 L48,54 L48,27 C48,12.088 35.912,0 21,0" id="Fill-5" fill="#00BFB3"></path>
        </g>
        <path d="M92.843659,46 L92.843659,41.16 L79.2810254,41.16 L79.2810254,34.36 L89.5230142,34.36 L89.5230142,29.52 L79.2810254,29.52 L79.2810254,22.84 L92.843659,22.84 L92.843659,18 L74,18 L74,46 L92.843659,46 Z M102.445523,46 L102.445523,18 L97.4045446,18 L97.4045446,46 L102.445523,46 Z M113.08759,46.56 C115.368033,46.56 117.648475,45.56 118.568654,44.12 L118.728685,44.12 L118.728685,46 L123.48961,46 L123.48961,33.92 C123.48961,29.04 120.649058,26.32 115.568071,26.32 C111.207225,26.32 108.086619,28.32 106.966401,31.8 L112.00738,32.2 C112.447466,31.16 113.527675,30.32 115.248009,30.32 C117.288406,30.32 118.488639,31.52 118.488639,33.6 L118.488639,35 C117.848514,34.64 116.208196,34.28 114.567877,34.28 C109.486891,34.28 106.406292,36.64 106.406292,40.6 C106.406292,44.08 109.166829,46.56 113.08759,46.56 Z M114.527869,42.64 C112.607497,42.64 111.487279,41.68 111.487279,40.2 C111.487279,38.72 112.807535,37.76 115.127986,37.76 C116.608273,37.76 118.008545,38.12 118.568654,38.6 L118.568654,39.84 C118.568654,41.32 116.688289,42.64 114.527869,42.64 Z M134.811808,46.6 C139.492717,46.6 142.653331,44.08 142.653331,40.2 C142.653331,32.52 132.45135,35.8 132.45135,32.04 C132.45135,30.96 133.331521,30.12 134.891824,30.12 C136.412119,30.12 137.612352,30.96 137.852399,32.2 L142.533307,31.2 C141.733152,28.28 138.692562,26.32 134.7718,26.32 C130.410954,26.32 127.450379,28.76 127.450379,32.4 C127.450379,40.12 137.65236,36.84 137.65236,40.56 C137.65236,41.96 136.652165,42.88 134.931831,42.88 C133.17149,42.88 131.691202,41.92 131.291124,40.44 L126.650223,41.32 C127.690425,44.68 130.691008,46.6 134.811808,46.6 Z M154.215576,46.4 C155.655856,46.4 156.816081,46.16 157.496213,45.88 L156.976112,41.88 C156.536026,42.08 155.975918,42.24 155.21577,42.24 C153.335405,42.24 152.375218,41.44 152.375218,38.88 L152.375218,31.2 L157.296174,31.2 L157.296174,26.92 L152.375218,26.92 L152.375218,20.88 L147.33424,21.88 L147.33424,26.92 L144.053603,26.92 L144.053603,31.2 L147.33424,31.2 L147.33424,39.68 C147.33424,44.72 150.214799,46.4 154.215576,46.4 Z M165.25772,22.84 L165.25772,18 L160.216741,18 L160.216741,22.84 L165.25772,22.84 Z M165.25772,46 L165.25772,26.92 L160.216741,26.92 L160.216741,46 L165.25772,46 Z M178.620315,46.6 C182.901146,46.6 186.06176,44.4 187.221985,40.44 L182.501068,39.24 C181.940959,41.04 180.580695,42.2 178.460284,42.2 C175.459701,42.2 173.779375,39.8 173.779375,36.48 C173.779375,33.12 175.459701,30.76 178.460284,30.76 C180.580695,30.76 182.020975,31.84 182.581084,33.68 L187.462031,33 C186.381822,28.64 183.261216,26.32 178.34026,26.32 C173.019227,26.32 168.738396,30.2 168.738396,36.44 C168.738396,42.4 172.699165,46.6 178.620315,46.6 Z M216.667702,46 L216.667702,41.16 L204.745387,41.16 L204.745387,18 L199.464362,18 L199.464362,46 L216.667702,46 Z M228.870072,46.6 C234.351136,46.6 238.95203,42.84 238.95203,36.48 C238.95203,30.04 234.351136,26.32 228.870072,26.32 C223.389008,26.32 218.788114,30.04 218.788114,36.48 C218.788114,42.88 223.389008,46.6 228.870072,46.6 Z M228.870072,42.2 C225.909497,42.2 223.829093,39.92 223.829093,36.48 C223.829093,33 225.909497,30.76 228.870072,30.76 C231.830647,30.76 233.871043,33 233.871043,36.48 C233.871043,39.92 231.830647,42.2 228.870072,42.2 Z M251.154399,54 C257.155564,54 260.556225,50.4 260.556225,44 L260.556225,26.92 L255.675277,26.92 L255.675277,28.92 L255.515246,28.92 C254.475044,27.56 253.034764,26.32 250.074189,26.32 C245.673335,26.32 241.512527,29.8 241.512527,35.84 C241.512527,41.84 245.593319,45.36 250.114197,45.36 C252.714702,45.36 254.635075,44.32 255.555253,42.64 L255.555253,45.16 C255.555253,48.32 253.874927,50 251.274422,50 C249.234026,50 247.513692,48.96 247.153622,47.56 L242.072635,48.68 C243.032822,51.88 246.553506,54 251.154399,54 Z M251.114391,41 C248.673917,41 246.553506,39.16 246.553506,35.84 C246.553506,32.48 248.673917,30.68 251.114391,30.68 C253.834919,30.68 255.755292,32.64 255.755292,35.84 C255.755292,39 253.834919,41 251.114391,41 Z M272.158477,46.6 C276.839386,46.6 280,44.08 280,40.2 C280,32.52 269.798019,35.8 269.798019,32.04 C269.798019,30.96 270.67819,30.12 272.238493,30.12 C273.758788,30.12 274.959021,30.96 275.199068,32.2 L279.879977,31.2 C279.079821,28.28 276.039231,26.32 272.11847,26.32 C267.757623,26.32 264.797048,28.76 264.797048,32.4 C264.797048,40.12 274.999029,36.84 274.999029,40.56 C274.999029,41.96 273.998835,42.88 272.278501,42.88 C270.518159,42.88 269.037871,41.92 268.637794,40.44 L263.996893,41.32 C265.037095,44.68 268.037677,46.6 272.158477,46.6 Z" id="ElasticLogs" fill="#343741" fill-rule="nonzero"></path>
    </g>
</svg>