<?xml version="1.0" encoding="UTF-8"?>
<svg width="346px" height="64px" viewBox="0 0 346 64" version="1.1" xmlns="http://www.w3.org/2000/svg" xmlns:xlink="http://www.w3.org/1999/xlink">
    <!-- Generator: Sketch 63.1 (92452) - https://sketch.com -->
    <title>security-logo-color-horizontal</title>
    <desc>Created with Sketch.</desc>
    <g id="security-logo-color-horizontal" stroke="none" stroke-width="1" fill="none" fill-rule="evenodd">
        <rect id="bounding-box" x="0" y="0" width="519" height="64"></rect>
        <g id="Group" transform="translate(6.000000, 4.000000)">
            <path d="M11,13 L11,5.68434189e-14 L47,5.68434189e-14 L47,30 C47,37.0111899 34.7467341,41.6043834 30,43 L30,13 L11,13 Z" id="Shape" fill="#FA744E"></path>
            <path d="M0,35.3983993 L0,18 L25,18 L25,56 C8.33333333,49.0564437 0,42.1892435 0,35.3983993 Z" id="Path" fill="#1DBAB0"></path>
            <path d="M10,18 L25,18 L25,43 C19.4060122,40.9626041 10,36.2920291 10,30.4224321 L10,18 Z" id="Path" fill="#343741"></path>
        </g>
        <path d="M91.8118175,46.9759036 L91.8118175,42.0722892 L78.2721017,42.0722892 L78.2721017,35.1829135 L88.4967838,35.1829135 L88.4967838,30.279299 L78.2721017,30.279299 L78.2721017,23.5115005 L91.8118175,23.5115005 L91.8118175,18.6078861 L73,18.6078861 L73,46.9759036 L91.8118175,46.9759036 Z M101.397457,46.9759036 L101.397457,18.6078861 L96.3649963,18.6078861 L96.3649963,46.9759036 L101.397457,46.9759036 Z M112.021541,47.543264 C114.29813,47.543264 116.57472,46.5301205 117.493343,45.0711939 L117.653104,45.0711939 L117.653104,46.9759036 L122.405984,46.9759036 L122.405984,34.7371303 C122.405984,29.7929901 119.570232,27.0372399 114.497831,27.0372399 C110.144353,27.0372399 107.02902,29.0635268 105.910696,32.5892662 L110.943156,32.9945235 C111.382498,31.9408543 112.460883,31.0898138 114.17831,31.0898138 C116.215258,31.0898138 117.413463,32.305586 117.413463,34.4129244 L117.413463,35.8313253 C116.77442,35.4665936 115.136874,35.101862 113.499327,35.101862 C108.426926,35.101862 105.351533,37.4928806 105.351533,41.5049288 C105.351533,45.0306681 108.107405,47.543264 112.021541,47.543264 Z M113.459387,43.5717415 C111.542259,43.5717415 110.423934,42.5991238 110.423934,41.0996714 C110.423934,39.6002191 111.74196,38.6276013 114.058489,38.6276013 C115.536275,38.6276013 116.934181,38.992333 117.493343,39.4786418 L117.493343,40.7349398 C117.493343,42.2343921 115.616156,43.5717415 113.459387,43.5717415 Z M133.70905,47.5837897 C138.382049,47.5837897 141.537322,45.0306681 141.537322,41.0996714 C141.537322,33.3187295 131.35258,36.6418401 131.35258,32.8324206 C131.35258,31.7382256 132.231264,30.8871851 133.78893,30.8871851 C135.306657,30.8871851 136.504862,31.7382256 136.744503,32.9945235 L141.417502,31.9813801 C140.618699,29.0230011 137.583246,27.0372399 133.66911,27.0372399 C129.315632,27.0372399 126.36006,29.50931 126.36006,33.1971522 C126.36006,41.0186199 136.544802,37.6955093 136.544802,41.4644031 C136.544802,42.8828039 135.546298,43.8148959 133.828871,43.8148959 C132.071503,43.8148959 130.593717,42.8422782 130.194316,41.3428258 L125.561257,42.2343921 C126.599701,45.6385542 129.595213,47.5837897 133.70905,47.5837897 Z M153.08003,47.381161 C154.517876,47.381161 155.676141,47.1380066 156.355123,46.8543264 L155.835901,42.8017525 C155.396559,43.0043812 154.837397,43.1664841 154.078534,43.1664841 C152.201346,43.1664841 151.242782,42.3559693 151.242782,39.762322 L151.242782,31.9813801 L156.155423,31.9813801 L156.155423,27.645126 L151.242782,27.645126 L151.242782,21.5257393 L146.210322,22.5388828 L146.210322,27.645126 L142.935228,27.645126 L142.935228,31.9813801 L146.210322,31.9813801 L146.210322,40.5728368 C146.210322,45.67908 149.086013,47.381161 153.08003,47.381161 Z M164.103515,23.5115005 L164.103515,18.6078861 L159.071055,18.6078861 L159.071055,23.5115005 L164.103515,23.5115005 Z M164.103515,46.9759036 L164.103515,27.645126 L159.071055,27.645126 L159.071055,46.9759036 L164.103515,46.9759036 Z M177.44353,47.5837897 C181.717128,47.5837897 184.872401,45.354874 186.030666,41.3428258 L181.317726,40.1270537 C180.758564,41.9507119 179.400598,43.1259584 177.28377,43.1259584 C174.288257,43.1259584 172.61077,40.694414 172.61077,37.3307777 C172.61077,33.9266156 174.288257,31.5355969 177.28377,31.5355969 C179.400598,31.5355969 180.838444,32.6297919 181.397607,34.4939759 L186.270307,33.8050383 C185.191922,29.3877327 182.076589,27.0372399 177.163949,27.0372399 C171.851907,27.0372399 167.57831,30.9682366 167.57831,37.2902519 C167.57831,43.3285871 171.532386,47.5837897 177.44353,47.5837897 Z M207.039192,47.5837897 C213.110097,47.5837897 217.144054,43.9769989 217.144054,38.5870756 C217.144054,27.7261774 203.125056,32.1840088 203.125056,26.0646221 C203.125056,23.9167579 204.762603,22.7009858 207.159013,22.7009858 C209.795064,22.7009858 211.512491,24.2004381 211.951832,26.5914567 L217.064174,25.6593647 C216.30531,21.0799562 212.630815,18 207.318773,18 C201.72715,18 197.773074,21.4852136 197.773074,26.5104053 C197.773074,37.4118291 211.792072,32.9134721 211.792072,39.1949617 C211.792072,41.4238773 209.994764,42.9233297 207.238893,42.9233297 C204.602842,42.9233297 202.286313,41.5049288 201.807031,39.0733844 L196.69469,40.1675794 C197.533433,44.7875137 201.886911,47.5837897 207.039192,47.5837897 Z M229.924907,47.5837897 C233.839043,47.5837897 236.674794,45.7601314 238.272401,42.1938664 L234.078684,40.9780942 C233.27988,42.5180723 231.842034,43.4096386 229.964847,43.4096386 C227.328796,43.4096386 225.411668,41.5454545 224.932386,38.7491785 L239.031264,38.7491785 L239.031264,37.5334064 C238.991324,30.8871851 234.837547,27.0372399 229.445625,27.0372399 C223.854001,27.0372399 219.820045,31.4950712 219.820045,37.3713034 C219.820045,43.2880613 224.013762,47.5837897 229.924907,47.5837897 Z M233.799102,35.263965 L224.972326,35.263965 C225.491548,32.3866375 227.169035,30.9682366 229.525505,30.9682366 C231.762154,30.9682366 233.639342,32.3461117 233.799102,35.263965 Z M251.133134,47.5837897 C255.406731,47.5837897 258.562004,45.354874 259.720269,41.3428258 L255.00733,40.1270537 C254.448168,41.9507119 253.090202,43.1259584 250.973373,43.1259584 C247.977861,43.1259584 246.300374,40.694414 246.300374,37.3307777 C246.300374,33.9266156 247.977861,31.5355969 250.973373,31.5355969 C253.090202,31.5355969 254.528048,32.6297919 255.08721,34.4939759 L259.95991,33.8050383 C258.881526,29.3877327 255.766193,27.0372399 250.853553,27.0372399 C245.541511,27.0372399 241.267913,30.9682366 241.267913,37.2902519 C241.267913,43.3285871 245.22199,47.5837897 251.133134,47.5837897 Z M269.305909,47.5837897 C271.94196,47.5837897 274.058788,46.286966 275.097233,44.584885 L275.296933,44.584885 L275.296933,46.9759036 L279.890052,46.9759036 L279.890052,27.645126 L274.857592,27.645126 L274.857592,38.7491785 C274.857592,41.3833516 273.100224,43.1259584 270.863575,43.1259584 C268.866567,43.1259584 267.668362,41.7480832 267.668362,39.0733844 L267.668362,27.645126 L262.635901,27.645126 L262.635901,40.0460022 C262.635901,44.7875137 265.192072,47.5837897 269.305909,47.5837897 Z M289.475692,46.9759036 L289.475692,38.3033954 C289.475692,33.7645126 291.55258,32.2650602 294.308452,32.2650602 C294.787734,32.2650602 295.346896,32.3461117 295.706358,32.5082147 L295.706358,27.6046002 C295.426776,27.4424973 294.907554,27.32092 294.268512,27.32092 C292.071803,27.32092 290.154675,28.577218 289.196111,30.7656079 L289.11623,30.7656079 L289.11623,27.645126 L284.443231,27.645126 L284.443231,46.9759036 L289.475692,46.9759036 Z M303.414809,23.5115005 L303.414809,18.6078861 L298.382349,18.6078861 L298.382349,23.5115005 L303.414809,23.5115005 Z M303.414809,46.9759036 L303.414809,27.645126 L298.382349,27.645126 L298.382349,46.9759036 L303.414809,46.9759036 Z M316.195662,47.381161 C317.633508,47.381161 318.791773,47.1380066 319.470755,46.8543264 L318.951533,42.8017525 C318.512191,43.0043812 317.953029,43.1664841 317.194166,43.1664841 C315.316978,43.1664841 314.358414,42.3559693 314.358414,39.762322 L314.358414,31.9813801 L319.271055,31.9813801 L319.271055,27.645126 L314.358414,27.645126 L314.358414,21.5257393 L309.325954,22.5388828 L309.325954,27.645126 L306.05086,27.645126 L306.05086,31.9813801 L309.325954,31.9813801 L309.325954,40.5728368 C309.325954,45.67908 312.201645,47.381161 316.195662,47.381161 Z M329.335976,55 L340,27.645126 L335.007479,27.645126 L330.574121,40.2486309 L325.701421,27.645126 L320.229619,27.645126 L327.85819,46.2059146 L324.383396,55 L329.335976,55 Z" id="ElasticSecurity" fill="#343741" fill-rule="nonzero"></path>
    </g>
</svg>